M48
; DRILL file {KiCad (5.1.5)-3} date 2020/03/27 11:43:42
; FORMAT={-:-/ absolute / inch / decimal}
; #@! TF.CreationDate,2020-03-27T11:43:42+09:00
; #@! TF.GenerationSoftware,Kicad,Pcbnew,(5.1.5)-3
FMAT,2
INCH
T1C0.0118
T2C0.0197
T3C0.0276
T4C0.0300
T5C0.0315
T6C0.0354
T7C0.0374
T8C0.0394
T9C0.0433
T10C0.1378
%
G90
G05
T1
X8.124Y-4.0055
X8.349Y-5.7305
X8.449Y-5.7055
X8.524Y-4.0555
X9.074Y-4.5555
X9.124Y-5.8305
X9.149Y-5.8555
X9.174Y-5.3055
X9.374Y-3.9805
X9.574Y-4.0055
X9.924Y-5.0055
X10.174Y-3.7555
X10.224Y-4.5055
X10.374Y-4.0055
X10.824Y-3.9555
X10.824Y-5.2555
X10.874Y-4.8805
X10.924Y-4.9055
X11.124Y-5.7555
T2
X8.274Y-4.9055
X8.274Y-4.9803
T3
X10.824Y-4.6555
X10.924Y-4.6555
X10.774Y-5.6555
X10.774Y-5.7555
X9.424Y-4.0555
X9.524Y-4.0555
X9.824Y-4.4555
X9.924Y-4.4555
X9.624Y-4.0555
X9.724Y-4.0555
X10.974Y-5.6555
X10.974Y-5.7555
X9.824Y-4.6555
X9.924Y-4.6555
X10.624Y-4.6555
X10.724Y-4.6555
X10.874Y-5.6555
X10.874Y-5.7555
X9.824Y-4.5555
X9.924Y-4.5555
X10.674Y-5.6555
X10.674Y-5.7555
X10.424Y-4.6555
X10.524Y-4.6555
X10.774Y-4.0055
X10.774Y-4.1055
X9.224Y-4.0555
X9.324Y-4.0555
X9.774Y-5.0555
X9.874Y-5.0555
X9.824Y-4.0555
X9.924Y-4.0555
X11.024Y-4.6555
X11.124Y-4.6555
X9.824Y-4.7555
X9.924Y-4.7555
T4
X8.024Y-4.2055
X8.024Y-4.2843
X8.024Y-4.363
X8.024Y-4.4417
X7.9323Y-5.1055
X8.074Y-4.9055
X8.074Y-5.3055
T5
X11.074Y-4.1555
X11.074Y-4.2539
X10.424Y-4.0555
X10.424Y-4.1555
X10.424Y-4.2555
X10.424Y-4.3555
X10.424Y-4.4555
X10.924Y-4.0055
X10.924Y-4.2024
X10.974Y-5.1055
X10.974Y-5.4055
X11.074Y-5.1055
X11.074Y-5.4055
X8.274Y-4.1055
X8.274Y-4.4055
X8.374Y-4.1055
X8.374Y-4.4055
X8.474Y-4.1055
X8.474Y-4.4055
X8.574Y-4.1055
X8.574Y-4.4055
X10.024Y-4.0555
X10.024Y-4.1555
X10.024Y-4.2555
X10.024Y-4.3555
X10.024Y-4.4555
X10.024Y-4.5555
X10.024Y-4.6555
X10.024Y-4.7555
X10.024Y-4.8555
X10.024Y-4.9555
X10.324Y-4.0555
X10.324Y-4.1555
X10.324Y-4.2555
X10.324Y-4.3555
X10.324Y-4.4555
X10.324Y-4.5555
X10.324Y-4.6555
X10.324Y-4.7555
X10.324Y-4.8555
X10.324Y-4.9555
X10.774Y-5.1055
X10.774Y-5.4055
X10.874Y-5.1055
X10.874Y-5.4055
X10.674Y-4.9555
X10.774Y-4.9555
X10.874Y-4.9555
X10.974Y-4.9555
X11.074Y-4.9555
X10.574Y-5.1055
X10.574Y-5.4055
X10.674Y-5.1055
X10.674Y-5.4055
X10.674Y-5.5555
X10.774Y-5.5555
X10.874Y-5.5555
X10.974Y-5.5555
X11.074Y-5.5555
X8.274Y-5.0555
X8.274Y-5.3555
X8.374Y-5.0555
X8.374Y-5.3555
X8.474Y-5.0555
X8.474Y-5.3555
X8.574Y-5.0555
X8.574Y-5.3555
X8.674Y-5.0555
X8.674Y-5.3555
X8.774Y-5.0555
X8.774Y-5.3555
X8.874Y-5.0555
X8.874Y-5.3555
X8.974Y-5.0555
X8.974Y-5.3555
X9.074Y-5.0555
X9.074Y-5.3555
X10.074Y-5.0555
X10.2709Y-5.0555
X8.174Y-5.0555
X8.174Y-5.2524
X10.849Y-4.4305
X10.849Y-4.5289
X10.524Y-3.7555
X10.524Y-3.9524
X8.724Y-4.4055
X8.724Y-4.7055
X8.824Y-4.4055
X8.824Y-4.7055
X8.924Y-4.4055
X8.924Y-4.7055
X9.024Y-4.4055
X9.024Y-4.7055
X9.124Y-4.4055
X9.124Y-4.7055
X9.224Y-4.4055
X9.224Y-4.7055
X9.324Y-4.4055
X9.324Y-4.7055
X9.424Y-4.4055
X9.424Y-4.7055
X9.774Y-5.1555
X9.774Y-5.3524
X8.724Y-4.8555
X8.824Y-4.8555
X8.924Y-4.8555
X9.024Y-4.8555
X9.124Y-4.8555
X10.374Y-5.1055
X10.374Y-5.4055
X10.474Y-5.1055
X10.474Y-5.4055
X8.174Y-4.6087
X8.174Y-4.8055
X8.274Y-4.5055
X8.274Y-4.8055
X8.374Y-4.5055
X8.374Y-4.8055
X8.474Y-4.5055
X8.474Y-4.8055
X8.574Y-4.5055
X8.574Y-4.8055
T6
X11.074Y-3.9055
X11.074Y-4.0055
X10.674Y-4.8055
X10.774Y-4.8055
X9.974Y-5.1555
X9.974Y-5.2555
X10.474Y-4.8055
X10.574Y-4.8055
X9.774Y-4.2055
X9.874Y-4.2055
X9.174Y-4.2055
X9.274Y-4.2055
X9.374Y-4.2055
X9.474Y-4.2055
X10.874Y-4.8055
X10.974Y-4.8055
X10.824Y-4.2055
X10.824Y-4.3055
X11.074Y-4.8055
X11.174Y-4.8055
X9.574Y-4.2055
X9.674Y-4.2055
T7
X8.774Y-4.1055
X8.8724Y-4.1055
X8.9709Y-4.1055
X10.624Y-4.1555
X10.624Y-4.2539
X10.624Y-4.3524
X10.624Y-4.4508
X9.624Y-4.4102
X9.624Y-4.5087
X9.624Y-4.6071
X9.624Y-4.7055
T8
X9.8256Y-5.5055
X9.924Y-5.5055
X9.374Y-4.9055
X9.374Y-5.0055
X9.374Y-5.1055
X9.374Y-5.2055
X9.474Y-4.9055
X9.474Y-5.0055
X9.474Y-5.1055
X9.474Y-5.2055
X8.2035Y-3.7886
X8.2035Y-3.8886
X8.3035Y-3.7886
X8.3035Y-3.8886
X8.4035Y-3.7886
X8.4035Y-3.8886
X8.5035Y-3.7886
X8.5035Y-3.8886
X8.6035Y-3.7886
X8.6035Y-3.8886
X8.7035Y-3.7886
X8.7035Y-3.8886
X8.8035Y-3.7886
X8.8035Y-3.8886
X8.9035Y-3.7886
X8.9035Y-3.8886
X9.0035Y-3.7886
X9.0035Y-3.8886
X9.1035Y-3.7886
X9.1035Y-3.8886
X9.2035Y-3.7886
X9.2035Y-3.8886
X9.3035Y-3.7886
X9.3035Y-3.8886
X9.4035Y-3.7886
X9.4035Y-3.8886
X9.5035Y-3.7886
X9.5035Y-3.8886
X9.6035Y-3.7886
X9.6035Y-3.8886
X9.7035Y-3.7886
X9.7035Y-3.8886
X9.8035Y-3.7886
X9.8035Y-3.8886
X9.9035Y-3.7886
X9.9035Y-3.8886
X10.0035Y-3.7886
X10.0035Y-3.8886
X10.1035Y-3.7886
X10.1035Y-3.8886
X9.374Y-5.3555
X9.374Y-5.4555
X9.374Y-5.5555
X9.374Y-5.6555
X9.474Y-5.3555
X9.474Y-5.4555
X9.474Y-5.5555
X9.474Y-5.6555
X8.274Y-5.5555
X8.274Y-5.6555
X8.374Y-5.5555
X8.374Y-5.6555
X8.474Y-5.5555
X8.474Y-5.6555
X8.574Y-5.5555
X8.574Y-5.6555
X8.674Y-5.5555
X8.674Y-5.6555
X8.774Y-5.5555
X8.774Y-5.6555
X8.874Y-5.5555
X8.874Y-5.6555
X8.974Y-5.5555
X8.974Y-5.6555
X9.074Y-5.5555
X9.074Y-5.6555
X9.174Y-5.5555
X9.174Y-5.6555
X11.049Y-4.4305
X11.049Y-4.5305
T9
X10.724Y-3.8555
X10.824Y-3.8555
X10.924Y-3.8555
T10
X8.0118Y-5.7677
X10.2953Y-3.8386
X10.2953Y-5.7677
X8.0118Y-3.8386
T0
M30
