G04 #@! TF.GenerationSoftware,KiCad,Pcbnew,(5.1.5)-3*
G04 #@! TF.CreationDate,2020-03-27T11:43:29+09:00*
G04 #@! TF.ProjectId,PiFA_8xy,50694641-5f38-4787-992e-6b696361645f,4*
G04 #@! TF.SameCoordinates,Original*
G04 #@! TF.FileFunction,Legend,Bot*
G04 #@! TF.FilePolarity,Positive*
%FSLAX46Y46*%
G04 Gerber Fmt 4.6, Leading zero omitted, Abs format (unit mm)*
G04 Created by KiCad (PCBNEW (5.1.5)-3) date 2020-03-27 11:43:29*
%MOMM*%
%LPD*%
G04 APERTURE LIST*
%ADD10C,0.300000*%
%ADD11C,0.381000*%
%ADD12C,0.120000*%
%ADD13C,0.150000*%
G04 APERTURE END LIST*
D10*
X257624285Y-148773571D02*
X257624285Y-147273571D01*
X257052857Y-147273571D01*
X256910000Y-147345000D01*
X256838571Y-147416428D01*
X256767142Y-147559285D01*
X256767142Y-147773571D01*
X256838571Y-147916428D01*
X256910000Y-147987857D01*
X257052857Y-148059285D01*
X257624285Y-148059285D01*
X256124285Y-148773571D02*
X256124285Y-147773571D01*
X256124285Y-147273571D02*
X256195714Y-147345000D01*
X256124285Y-147416428D01*
X256052857Y-147345000D01*
X256124285Y-147273571D01*
X256124285Y-147416428D01*
X254910000Y-147987857D02*
X255410000Y-147987857D01*
X255410000Y-148773571D02*
X255410000Y-147273571D01*
X254695714Y-147273571D01*
X254195714Y-148345000D02*
X253481428Y-148345000D01*
X254338571Y-148773571D02*
X253838571Y-147273571D01*
X253338571Y-148773571D01*
X252838571Y-148202142D02*
X251695714Y-148202142D01*
X250981428Y-148773571D02*
X250981428Y-147273571D01*
X250981428Y-147987857D02*
X250124285Y-147987857D01*
X250124285Y-148773571D02*
X250124285Y-147273571D01*
X249481428Y-148345000D02*
X248767142Y-148345000D01*
X249624285Y-148773571D02*
X249124285Y-147273571D01*
X248624285Y-148773571D01*
X248338571Y-147273571D02*
X247481428Y-147273571D01*
X247910000Y-148773571D02*
X247910000Y-147273571D01*
X245624285Y-147916428D02*
X245767142Y-147845000D01*
X245838571Y-147773571D01*
X245910000Y-147630714D01*
X245910000Y-147559285D01*
X245838571Y-147416428D01*
X245767142Y-147345000D01*
X245624285Y-147273571D01*
X245338571Y-147273571D01*
X245195714Y-147345000D01*
X245124285Y-147416428D01*
X245052857Y-147559285D01*
X245052857Y-147630714D01*
X245124285Y-147773571D01*
X245195714Y-147845000D01*
X245338571Y-147916428D01*
X245624285Y-147916428D01*
X245767142Y-147987857D01*
X245838571Y-148059285D01*
X245910000Y-148202142D01*
X245910000Y-148487857D01*
X245838571Y-148630714D01*
X245767142Y-148702142D01*
X245624285Y-148773571D01*
X245338571Y-148773571D01*
X245195714Y-148702142D01*
X245124285Y-148630714D01*
X245052857Y-148487857D01*
X245052857Y-148202142D01*
X245124285Y-148059285D01*
X245195714Y-147987857D01*
X245338571Y-147916428D01*
X244552857Y-147273571D02*
X243552857Y-148773571D01*
X243552857Y-147273571D02*
X244552857Y-148773571D01*
X242695714Y-148059285D02*
X242695714Y-148773571D01*
X243195714Y-147273571D02*
X242695714Y-148059285D01*
X242195714Y-147273571D01*
X239695714Y-148773571D02*
X240195714Y-148059285D01*
X240552857Y-148773571D02*
X240552857Y-147273571D01*
X239981428Y-147273571D01*
X239838571Y-147345000D01*
X239767142Y-147416428D01*
X239695714Y-147559285D01*
X239695714Y-147773571D01*
X239767142Y-147916428D01*
X239838571Y-147987857D01*
X239981428Y-148059285D01*
X240552857Y-148059285D01*
X238481428Y-148702142D02*
X238624285Y-148773571D01*
X238910000Y-148773571D01*
X239052857Y-148702142D01*
X239124285Y-148559285D01*
X239124285Y-147987857D01*
X239052857Y-147845000D01*
X238910000Y-147773571D01*
X238624285Y-147773571D01*
X238481428Y-147845000D01*
X238410000Y-147987857D01*
X238410000Y-148130714D01*
X239124285Y-148273571D01*
X237910000Y-147773571D02*
X237552857Y-148773571D01*
X237195714Y-147773571D01*
X236624285Y-148630714D02*
X236552857Y-148702142D01*
X236624285Y-148773571D01*
X236695714Y-148702142D01*
X236624285Y-148630714D01*
X236624285Y-148773571D01*
X235267142Y-147773571D02*
X235267142Y-148773571D01*
X235624285Y-147202142D02*
X235981428Y-148273571D01*
X235052857Y-148273571D01*
X233410000Y-147416428D02*
X233338571Y-147345000D01*
X233195714Y-147273571D01*
X232838571Y-147273571D01*
X232695714Y-147345000D01*
X232624285Y-147416428D01*
X232552857Y-147559285D01*
X232552857Y-147702142D01*
X232624285Y-147916428D01*
X233481428Y-148773571D01*
X232552857Y-148773571D01*
X231624285Y-147273571D02*
X231481428Y-147273571D01*
X231338571Y-147345000D01*
X231267142Y-147416428D01*
X231195714Y-147559285D01*
X231124285Y-147845000D01*
X231124285Y-148202142D01*
X231195714Y-148487857D01*
X231267142Y-148630714D01*
X231338571Y-148702142D01*
X231481428Y-148773571D01*
X231624285Y-148773571D01*
X231767142Y-148702142D01*
X231838571Y-148630714D01*
X231910000Y-148487857D01*
X231981428Y-148202142D01*
X231981428Y-147845000D01*
X231910000Y-147559285D01*
X231838571Y-147416428D01*
X231767142Y-147345000D01*
X231624285Y-147273571D01*
X230552857Y-147416428D02*
X230481428Y-147345000D01*
X230338571Y-147273571D01*
X229981428Y-147273571D01*
X229838571Y-147345000D01*
X229767142Y-147416428D01*
X229695714Y-147559285D01*
X229695714Y-147702142D01*
X229767142Y-147916428D01*
X230624285Y-148773571D01*
X229695714Y-148773571D01*
X228767142Y-147273571D02*
X228624285Y-147273571D01*
X228481428Y-147345000D01*
X228410000Y-147416428D01*
X228338571Y-147559285D01*
X228267142Y-147845000D01*
X228267142Y-148202142D01*
X228338571Y-148487857D01*
X228410000Y-148630714D01*
X228481428Y-148702142D01*
X228624285Y-148773571D01*
X228767142Y-148773571D01*
X228910000Y-148702142D01*
X228981428Y-148630714D01*
X229052857Y-148487857D01*
X229124285Y-148202142D01*
X229124285Y-147845000D01*
X229052857Y-147559285D01*
X228981428Y-147416428D01*
X228910000Y-147345000D01*
X228767142Y-147273571D01*
X227624285Y-148630714D02*
X227552857Y-148702142D01*
X227624285Y-148773571D01*
X227695714Y-148702142D01*
X227624285Y-148630714D01*
X227624285Y-148773571D01*
X227052857Y-147273571D02*
X226124285Y-147273571D01*
X226624285Y-147845000D01*
X226410000Y-147845000D01*
X226267142Y-147916428D01*
X226195714Y-147987857D01*
X226124285Y-148130714D01*
X226124285Y-148487857D01*
X226195714Y-148630714D01*
X226267142Y-148702142D01*
X226410000Y-148773571D01*
X226838571Y-148773571D01*
X226981428Y-148702142D01*
X227052857Y-148630714D01*
D11*
X268389360Y-135465180D02*
X267891520Y-134967340D01*
X272090140Y-132267320D02*
X272290800Y-132666100D01*
X267891520Y-131965060D02*
X268389360Y-131467220D01*
X269491720Y-133864980D02*
X269291060Y-134266300D01*
X271490700Y-133166480D02*
X271490700Y-133565260D01*
X267391140Y-133067420D02*
X267589260Y-132465440D01*
X270289280Y-132666100D02*
X270390880Y-132567040D01*
X271190980Y-134365360D02*
X270891260Y-134466960D01*
X270489940Y-134466960D02*
X270289280Y-134266300D01*
X269590780Y-135965560D02*
X268991340Y-135767440D01*
X268889740Y-131164960D02*
X269291060Y-131065900D01*
X269291060Y-131065900D02*
X269890500Y-130966840D01*
X269189460Y-132567040D02*
X269390120Y-132965820D01*
X268991340Y-135767440D02*
X268389360Y-135465180D01*
X268389360Y-132567040D02*
X268590020Y-132465440D01*
X268590020Y-132465440D02*
X268889740Y-132465440D01*
X272389860Y-133765920D02*
X272191740Y-134566020D01*
X267391140Y-133666860D02*
X267391140Y-133067420D01*
X268691620Y-134466960D02*
X268389360Y-134466960D01*
X268889740Y-134466960D02*
X268691620Y-134466960D01*
X271589760Y-135267060D02*
X271089380Y-135665840D01*
X270390880Y-132567040D02*
X270690600Y-132465440D01*
X269989560Y-130966840D02*
X270591540Y-131065900D01*
X268290300Y-132666100D02*
X268389360Y-132567040D01*
X271089380Y-135665840D02*
X270390880Y-135965560D01*
X270390880Y-135965560D02*
X269590780Y-135965560D01*
X269291060Y-134266300D02*
X268889740Y-134466960D01*
X272389860Y-133166480D02*
X272389860Y-133765920D01*
X271391640Y-134065640D02*
X271190980Y-134365360D01*
X271089380Y-131266560D02*
X271589760Y-131665340D01*
X267891520Y-134967340D02*
X267490200Y-134266300D01*
X271089380Y-132567040D02*
X271391640Y-132765160D01*
X270591540Y-131065900D02*
X271089380Y-131266560D01*
X270690600Y-132465440D02*
X271089380Y-132567040D01*
X272290800Y-132666100D02*
X272389860Y-133166480D01*
X268389360Y-134466960D02*
X268290300Y-134266300D01*
X271490700Y-133565260D02*
X271391640Y-134065640D01*
X267490200Y-134266300D02*
X267391140Y-133666860D01*
X267589260Y-132465440D02*
X267891520Y-131965060D01*
X271589760Y-131665340D02*
X272090140Y-132267320D01*
X270891260Y-134466960D02*
X270489940Y-134466960D01*
X269890500Y-130966840D02*
X269989560Y-130966840D01*
X268389360Y-131467220D02*
X268889740Y-131164960D01*
X272191740Y-134566020D02*
X271589760Y-135267060D01*
X269390120Y-132965820D02*
X269491720Y-133466200D01*
X269491720Y-133466200D02*
X269491720Y-133864980D01*
X268889740Y-132465440D02*
X269189460Y-132567040D01*
X271391640Y-132765160D02*
X271490700Y-133166480D01*
X258793380Y-131963460D02*
X259293760Y-132164120D01*
X259992260Y-131663740D02*
X260492640Y-132265720D01*
X256692800Y-133863380D02*
X256692800Y-133464600D01*
X256992520Y-134363760D02*
X256692800Y-133863380D01*
X256692800Y-133464600D02*
X256791860Y-132964220D01*
X256791860Y-132964220D02*
X257094120Y-132463840D01*
X257094120Y-132463840D02*
X257393840Y-132164120D01*
X257393840Y-132164120D02*
X257993280Y-131864400D01*
X257393840Y-134765080D02*
X256992520Y-134363760D01*
X257993280Y-131864400D02*
X258392060Y-131864400D01*
X258293000Y-130965240D02*
X258392060Y-130965240D01*
X257894220Y-134965740D02*
X257393840Y-134765080D01*
X259491880Y-131264960D02*
X259992260Y-131663740D01*
X258392060Y-135064800D02*
X257894220Y-134965740D01*
X258392060Y-131864400D02*
X258793380Y-131963460D01*
X258994040Y-131064300D02*
X259491880Y-131264960D01*
X260492640Y-132265720D02*
X260693300Y-132664500D01*
X258392060Y-130965240D02*
X258994040Y-131064300D01*
X260693300Y-132664500D02*
X260792360Y-133164880D01*
X260792360Y-133164880D02*
X260792360Y-133764320D01*
X259392820Y-134663480D02*
X258892440Y-134965740D01*
X258892440Y-134965740D02*
X258392060Y-135064800D01*
X260792360Y-133764320D02*
X260594240Y-134564420D01*
X260594240Y-134564420D02*
X259992260Y-135265460D01*
X259992260Y-135265460D02*
X259491880Y-135664240D01*
X255793640Y-133065820D02*
X255991760Y-132463840D01*
X257993280Y-135963960D02*
X257393840Y-135765840D01*
X256791860Y-135463580D02*
X256294020Y-134965740D01*
X256791860Y-131465620D02*
X257292240Y-131163360D01*
X256294020Y-131963460D02*
X256791860Y-131465620D01*
X255793640Y-133665260D02*
X255793640Y-133065820D01*
X257693560Y-131064300D02*
X258293000Y-130965240D01*
X258793380Y-135963960D02*
X257993280Y-135963960D01*
X255991760Y-132463840D02*
X256294020Y-131963460D01*
X257292240Y-131163360D02*
X257693560Y-131064300D01*
X259491880Y-135664240D02*
X258793380Y-135963960D01*
X255892700Y-134264700D02*
X255793640Y-133665260D01*
X257393840Y-135765840D02*
X256791860Y-135463580D01*
X256294020Y-134965740D02*
X255892700Y-134264700D01*
X262435740Y-135283240D02*
X262936120Y-135682020D01*
X263334900Y-132481620D02*
X264836040Y-132481620D01*
X264836040Y-132481620D02*
X264836040Y-133683040D01*
X264450666Y-131783120D02*
G75*
G03X264450666Y-131783120I-315666J0D01*
G01*
X264434720Y-135981740D02*
X265034160Y-135783620D01*
X264035940Y-130983020D02*
X263433960Y-131082080D01*
X263835280Y-135283240D02*
X264335660Y-135283240D01*
X263835280Y-133782100D02*
X263835280Y-135283240D01*
X261734700Y-132682280D02*
X261635640Y-133182660D01*
X261833760Y-134582200D02*
X262435740Y-135283240D01*
X266133980Y-134983520D02*
X266535300Y-134282480D01*
X264434720Y-135283240D02*
X264434720Y-133683040D01*
X261635640Y-133782100D02*
X261833760Y-134582200D01*
X263634620Y-135981740D02*
X264434720Y-135981740D01*
X266634360Y-133683040D02*
X266634360Y-133083600D01*
X265636140Y-131483400D02*
X265135760Y-131181140D01*
X263433960Y-131082080D02*
X262936120Y-131282740D01*
X265135760Y-131181140D02*
X264734440Y-131082080D01*
X264734440Y-131082080D02*
X264135000Y-130983020D01*
X262435740Y-131681520D02*
X261935360Y-132283500D01*
X264135000Y-133782100D02*
X264135000Y-135082580D01*
X264635380Y-133083600D02*
X263433960Y-133083600D01*
X263433960Y-132781340D02*
X264734440Y-132781340D01*
X264234060Y-135283240D02*
X264434720Y-135283240D01*
X264836040Y-133683040D02*
X263334900Y-133683040D01*
X263334900Y-133683040D02*
X263334900Y-132481620D01*
X261935360Y-132283500D02*
X261734700Y-132682280D01*
X265636140Y-135481360D02*
X266133980Y-134983520D01*
X266634360Y-133083600D02*
X266436240Y-132481620D01*
X266436240Y-132481620D02*
X266133980Y-131981240D01*
X263334900Y-133383320D02*
X264635380Y-133383320D01*
X265034160Y-135783620D02*
X265636140Y-135481360D01*
X264135000Y-130983020D02*
X264035940Y-130983020D01*
X266535300Y-134282480D02*
X266634360Y-133683040D01*
X262936120Y-135682020D02*
X263634620Y-135981740D01*
X266133980Y-131981240D02*
X265636140Y-131483400D01*
X262936120Y-131282740D02*
X262435740Y-131681520D01*
X261635640Y-133182660D02*
X261635640Y-133782100D01*
X264135000Y-131582460D02*
X264135000Y-131981240D01*
D12*
X207040000Y-94900000D02*
X207040000Y-97500000D01*
X207040000Y-94900000D02*
X257960000Y-94900000D01*
X257960000Y-94900000D02*
X257960000Y-100100000D01*
X209640000Y-100100000D02*
X257960000Y-100100000D01*
X209640000Y-97500000D02*
X209640000Y-100100000D01*
X207040000Y-97500000D02*
X209640000Y-97500000D01*
X207040000Y-100100000D02*
X208370000Y-100100000D01*
X207040000Y-98770000D02*
X207040000Y-100100000D01*
D13*
X207596095Y-101430380D02*
X207596095Y-100430380D01*
X207215142Y-100430380D01*
X207119904Y-100478000D01*
X207072285Y-100525619D01*
X207024666Y-100620857D01*
X207024666Y-100763714D01*
X207072285Y-100858952D01*
X207119904Y-100906571D01*
X207215142Y-100954190D01*
X207596095Y-100954190D01*
X206072285Y-101430380D02*
X206643714Y-101430380D01*
X206358000Y-101430380D02*
X206358000Y-100430380D01*
X206453238Y-100573238D01*
X206548476Y-100668476D01*
X206643714Y-100716095D01*
M02*
