G04 #@! TF.GenerationSoftware,KiCad,Pcbnew,(5.1.5)-3*
G04 #@! TF.CreationDate,2020-03-27T11:43:29+09:00*
G04 #@! TF.ProjectId,PiFA_8xy,50694641-5f38-4787-992e-6b696361645f,4*
G04 #@! TF.SameCoordinates,Original*
G04 #@! TF.FileFunction,Legend,Top*
G04 #@! TF.FilePolarity,Positive*
%FSLAX46Y46*%
G04 Gerber Fmt 4.6, Leading zero omitted, Abs format (unit mm)*
G04 Created by KiCad (PCBNEW (5.1.5)-3) date 2020-03-27 11:43:29*
%MOMM*%
%LPD*%
G04 APERTURE LIST*
%ADD10C,0.150000*%
%ADD11C,0.120000*%
%ADD12C,0.250000*%
%ADD13C,0.100000*%
%ADD14C,0.200000*%
%ADD15C,0.300000*%
%ADD16C,0.010000*%
G04 APERTURE END LIST*
D10*
X230123095Y-138498571D02*
X229789761Y-138498571D01*
X229789761Y-139022380D02*
X229789761Y-138022380D01*
X230265952Y-138022380D01*
X230599285Y-138736666D02*
X231075476Y-138736666D01*
X230504047Y-139022380D02*
X230837380Y-138022380D01*
X231170714Y-139022380D01*
X232265952Y-139022380D02*
X232265952Y-138022380D01*
X232646904Y-138022380D01*
X232742142Y-138070000D01*
X232789761Y-138117619D01*
X232837380Y-138212857D01*
X232837380Y-138355714D01*
X232789761Y-138450952D01*
X232742142Y-138498571D01*
X232646904Y-138546190D01*
X232265952Y-138546190D01*
X233456428Y-138022380D02*
X233646904Y-138022380D01*
X233742142Y-138070000D01*
X233837380Y-138165238D01*
X233885000Y-138355714D01*
X233885000Y-138689047D01*
X233837380Y-138879523D01*
X233742142Y-138974761D01*
X233646904Y-139022380D01*
X233456428Y-139022380D01*
X233361190Y-138974761D01*
X233265952Y-138879523D01*
X233218333Y-138689047D01*
X233218333Y-138355714D01*
X233265952Y-138165238D01*
X233361190Y-138070000D01*
X233456428Y-138022380D01*
X234218333Y-138022380D02*
X234456428Y-139022380D01*
X234646904Y-138308095D01*
X234837380Y-139022380D01*
X235075476Y-138022380D01*
D11*
X282550000Y-115075000D02*
X283820000Y-115075000D01*
X283185000Y-112535000D02*
X283820000Y-111900000D01*
X282550000Y-112535000D02*
X283185000Y-112535000D01*
D10*
X254625904Y-130100666D02*
X255102095Y-130100666D01*
X254530666Y-130386380D02*
X254864000Y-129386380D01*
X255197333Y-130386380D01*
D11*
X216510000Y-126505000D02*
X211430000Y-126505000D01*
X216510000Y-124600000D02*
X216510000Y-126505000D01*
X211430000Y-124600000D02*
X216510000Y-124600000D01*
X219050000Y-137935000D02*
X219050000Y-139840000D01*
X229210000Y-139840000D02*
X229210000Y-137935000D01*
X229210000Y-144920000D02*
X229210000Y-145500000D01*
X219050000Y-144920000D02*
X219050000Y-145500000D01*
D10*
X225114285Y-138117619D02*
X225161904Y-138070000D01*
X225257142Y-138022380D01*
X225495238Y-138022380D01*
X225590476Y-138070000D01*
X225638095Y-138117619D01*
X225685714Y-138212857D01*
X225685714Y-138308095D01*
X225638095Y-138450952D01*
X225066666Y-139022380D01*
X225685714Y-139022380D01*
X227606666Y-138022380D02*
X228225714Y-138022380D01*
X227892380Y-138403333D01*
X228035238Y-138403333D01*
X228130476Y-138450952D01*
X228178095Y-138498571D01*
X228225714Y-138593809D01*
X228225714Y-138831904D01*
X228178095Y-138927142D01*
X228130476Y-138974761D01*
X228035238Y-139022380D01*
X227749523Y-139022380D01*
X227654285Y-138974761D01*
X227606666Y-138927142D01*
X223145714Y-139022380D02*
X222574285Y-139022380D01*
X222860000Y-139022380D02*
X222860000Y-138022380D01*
X222764761Y-138165238D01*
X222669523Y-138260476D01*
X222574285Y-138308095D01*
D11*
X213208000Y-94628000D02*
X213716000Y-94628000D01*
X218288000Y-100216000D02*
X218796000Y-100216000D01*
X223368000Y-94628000D02*
X223876000Y-94628000D01*
X230988000Y-94628000D02*
X231496000Y-94628000D01*
X238608000Y-100216000D02*
X239116000Y-100216000D01*
X243688000Y-94628000D02*
X244196000Y-94628000D01*
X248768000Y-94628000D02*
X249276000Y-94628000D01*
X256388000Y-100216000D02*
X256896000Y-100216000D01*
D10*
X246886857Y-95163714D02*
X246958285Y-95235142D01*
X246886857Y-95306571D01*
X246815428Y-95235142D01*
X246886857Y-95163714D01*
X246886857Y-95306571D01*
X247601142Y-95163714D02*
X247672571Y-95235142D01*
X247601142Y-95306571D01*
X247529714Y-95235142D01*
X247601142Y-95163714D01*
X247601142Y-95306571D01*
X226416000Y-94834285D02*
X226511238Y-94929523D01*
X226416000Y-95024761D01*
X226320761Y-94929523D01*
X226416000Y-94834285D01*
X226416000Y-95024761D01*
X228956000Y-94834285D02*
X229051238Y-94929523D01*
X228956000Y-95024761D01*
X228860761Y-94929523D01*
X228956000Y-94834285D01*
X228956000Y-95024761D01*
X234036000Y-94834285D02*
X234131238Y-94929523D01*
X234036000Y-95024761D01*
X233940761Y-94929523D01*
X234036000Y-94834285D01*
X234036000Y-95024761D01*
X252324000Y-94834285D02*
X252419238Y-94929523D01*
X252324000Y-95024761D01*
X252228761Y-94929523D01*
X252324000Y-94834285D01*
X252324000Y-95024761D01*
X254864000Y-94834285D02*
X254959238Y-94929523D01*
X254864000Y-95024761D01*
X254768761Y-94929523D01*
X254864000Y-94834285D01*
X254864000Y-95024761D01*
X257404000Y-94834285D02*
X257499238Y-94929523D01*
X257404000Y-95024761D01*
X257308761Y-94929523D01*
X257404000Y-94834285D01*
X257404000Y-95024761D01*
X254864000Y-99914285D02*
X254959238Y-100009523D01*
X254864000Y-100104761D01*
X254768761Y-100009523D01*
X254864000Y-99914285D01*
X254864000Y-100104761D01*
X252324000Y-99914285D02*
X252419238Y-100009523D01*
X252324000Y-100104761D01*
X252228761Y-100009523D01*
X252324000Y-99914285D01*
X252324000Y-100104761D01*
X249426857Y-99735714D02*
X249498285Y-99807142D01*
X249426857Y-99878571D01*
X249355428Y-99807142D01*
X249426857Y-99735714D01*
X249426857Y-99878571D01*
X250141142Y-99735714D02*
X250212571Y-99807142D01*
X250141142Y-99878571D01*
X250069714Y-99807142D01*
X250141142Y-99735714D01*
X250141142Y-99878571D01*
X247244000Y-99914285D02*
X247339238Y-100009523D01*
X247244000Y-100104761D01*
X247148761Y-100009523D01*
X247244000Y-99914285D01*
X247244000Y-100104761D01*
X244196000Y-99914285D02*
X244291238Y-100009523D01*
X244196000Y-100104761D01*
X244100761Y-100009523D01*
X244196000Y-99914285D01*
X244196000Y-100104761D01*
X236576000Y-99914285D02*
X236671238Y-100009523D01*
X236576000Y-100104761D01*
X236480761Y-100009523D01*
X236576000Y-99914285D01*
X236576000Y-100104761D01*
X234036000Y-99914285D02*
X234131238Y-100009523D01*
X234036000Y-100104761D01*
X233940761Y-100009523D01*
X234036000Y-99914285D01*
X234036000Y-100104761D01*
X231496000Y-99914285D02*
X231591238Y-100009523D01*
X231496000Y-100104761D01*
X231400761Y-100009523D01*
X231496000Y-99914285D01*
X231496000Y-100104761D01*
X226416000Y-99914285D02*
X226511238Y-100009523D01*
X226416000Y-100104761D01*
X226320761Y-100009523D01*
X226416000Y-99914285D01*
X226416000Y-100104761D01*
X223876000Y-99914285D02*
X223971238Y-100009523D01*
X223876000Y-100104761D01*
X223780761Y-100009523D01*
X223876000Y-99914285D01*
X223876000Y-100104761D01*
X221336000Y-99914285D02*
X221431238Y-100009523D01*
X221336000Y-100104761D01*
X221240761Y-100009523D01*
X221336000Y-99914285D01*
X221336000Y-100104761D01*
X221336000Y-94834285D02*
X221431238Y-94929523D01*
X221336000Y-95024761D01*
X221240761Y-94929523D01*
X221336000Y-94834285D01*
X221336000Y-95024761D01*
X258134285Y-94921714D02*
X258134285Y-95588380D01*
X257896190Y-94540761D02*
X257658095Y-95255047D01*
X258277142Y-95255047D01*
X258848571Y-94588380D02*
X258943809Y-94588380D01*
X259039047Y-94636000D01*
X259086666Y-94683619D01*
X259134285Y-94778857D01*
X259181904Y-94969333D01*
X259181904Y-95207428D01*
X259134285Y-95397904D01*
X259086666Y-95493142D01*
X259039047Y-95540761D01*
X258943809Y-95588380D01*
X258848571Y-95588380D01*
X258753333Y-95540761D01*
X258705714Y-95493142D01*
X258658095Y-95397904D01*
X258610476Y-95207428D01*
X258610476Y-94969333D01*
X258658095Y-94778857D01*
X258705714Y-94683619D01*
X258753333Y-94636000D01*
X258848571Y-94588380D01*
X206064285Y-95064619D02*
X206111904Y-95017000D01*
X206207142Y-94969380D01*
X206445238Y-94969380D01*
X206540476Y-95017000D01*
X206588095Y-95064619D01*
X206635714Y-95159857D01*
X206635714Y-95255095D01*
X206588095Y-95397952D01*
X206016666Y-95969380D01*
X206635714Y-95969380D01*
D12*
X277470000Y-134760000D02*
X277470000Y-132220000D01*
X272390000Y-134760000D02*
X272390000Y-132220000D01*
X267310000Y-134760000D02*
X267310000Y-132220000D01*
D10*
X258348571Y-124487619D02*
X258396190Y-124344761D01*
X258443809Y-124297142D01*
X258539047Y-124249523D01*
X258681904Y-124249523D01*
X258777142Y-124297142D01*
X258824761Y-124344761D01*
X258872380Y-124440000D01*
X258872380Y-124820952D01*
X257872380Y-124820952D01*
X257872380Y-124487619D01*
X257920000Y-124392380D01*
X257967619Y-124344761D01*
X258062857Y-124297142D01*
X258158095Y-124297142D01*
X258253333Y-124344761D01*
X258300952Y-124392380D01*
X258348571Y-124487619D01*
X258348571Y-124820952D01*
X257872380Y-123820952D02*
X258681904Y-123820952D01*
X258777142Y-123773333D01*
X258824761Y-123725714D01*
X258872380Y-123630476D01*
X258872380Y-123440000D01*
X258824761Y-123344761D01*
X258777142Y-123297142D01*
X258681904Y-123249523D01*
X257872380Y-123249523D01*
X258348571Y-122440000D02*
X258348571Y-122773333D01*
X258872380Y-122773333D02*
X257872380Y-122773333D01*
X257872380Y-122297142D01*
X258348571Y-121582857D02*
X258348571Y-121916190D01*
X258872380Y-121916190D02*
X257872380Y-121916190D01*
X257872380Y-121440000D01*
X258348571Y-121059047D02*
X258348571Y-120725714D01*
X258872380Y-120582857D02*
X258872380Y-121059047D01*
X257872380Y-121059047D01*
X257872380Y-120582857D01*
X258872380Y-119582857D02*
X258396190Y-119916190D01*
X258872380Y-120154285D02*
X257872380Y-120154285D01*
X257872380Y-119773333D01*
X257920000Y-119678095D01*
X257967619Y-119630476D01*
X258062857Y-119582857D01*
X258205714Y-119582857D01*
X258300952Y-119630476D01*
X258348571Y-119678095D01*
X258396190Y-119773333D01*
X258396190Y-120154285D01*
X258824761Y-119201904D02*
X258872380Y-119059047D01*
X258872380Y-118820952D01*
X258824761Y-118725714D01*
X258777142Y-118678095D01*
X258681904Y-118630476D01*
X258586666Y-118630476D01*
X258491428Y-118678095D01*
X258443809Y-118725714D01*
X258396190Y-118820952D01*
X258348571Y-119011428D01*
X258300952Y-119106666D01*
X258253333Y-119154285D01*
X258158095Y-119201904D01*
X258062857Y-119201904D01*
X257967619Y-119154285D01*
X257920000Y-119106666D01*
X257872380Y-119011428D01*
X257872380Y-118773333D01*
X257920000Y-118630476D01*
X258586666Y-117487619D02*
X258586666Y-117011428D01*
X258872380Y-117582857D02*
X257872380Y-117249523D01*
X258872380Y-116916190D01*
X258872380Y-116582857D02*
X257872380Y-116582857D01*
X258872380Y-116011428D01*
X257872380Y-116011428D01*
X258872380Y-115535238D02*
X257872380Y-115535238D01*
X257872380Y-115297142D01*
X257920000Y-115154285D01*
X258015238Y-115059047D01*
X258110476Y-115011428D01*
X258300952Y-114963809D01*
X258443809Y-114963809D01*
X258634285Y-115011428D01*
X258729523Y-115059047D01*
X258824761Y-115154285D01*
X258872380Y-115297142D01*
X258872380Y-115535238D01*
X258872380Y-113297142D02*
X258872380Y-113773333D01*
X257872380Y-113773333D01*
X258872380Y-112963809D02*
X257872380Y-112963809D01*
X258872380Y-112487619D02*
X257872380Y-112487619D01*
X258872380Y-111916190D01*
X257872380Y-111916190D01*
X258348571Y-111440000D02*
X258348571Y-111106666D01*
X258872380Y-110963809D02*
X258872380Y-111440000D01*
X257872380Y-111440000D01*
X257872380Y-110963809D01*
X258872380Y-109773333D02*
X257872380Y-109773333D01*
X257872380Y-109535238D01*
X257920000Y-109392380D01*
X258015238Y-109297142D01*
X258110476Y-109249523D01*
X258300952Y-109201904D01*
X258443809Y-109201904D01*
X258634285Y-109249523D01*
X258729523Y-109297142D01*
X258824761Y-109392380D01*
X258872380Y-109535238D01*
X258872380Y-109773333D01*
X258872380Y-108201904D02*
X258396190Y-108535238D01*
X258872380Y-108773333D02*
X257872380Y-108773333D01*
X257872380Y-108392380D01*
X257920000Y-108297142D01*
X257967619Y-108249523D01*
X258062857Y-108201904D01*
X258205714Y-108201904D01*
X258300952Y-108249523D01*
X258348571Y-108297142D01*
X258396190Y-108392380D01*
X258396190Y-108773333D01*
X258872380Y-107773333D02*
X257872380Y-107773333D01*
X257872380Y-107440000D02*
X258872380Y-107106666D01*
X257872380Y-106773333D01*
X258348571Y-106440000D02*
X258348571Y-106106666D01*
X258872380Y-105963809D02*
X258872380Y-106440000D01*
X257872380Y-106440000D01*
X257872380Y-105963809D01*
X258872380Y-104963809D02*
X258396190Y-105297142D01*
X258872380Y-105535238D02*
X257872380Y-105535238D01*
X257872380Y-105154285D01*
X257920000Y-105059047D01*
X257967619Y-105011428D01*
X258062857Y-104963809D01*
X258205714Y-104963809D01*
X258300952Y-105011428D01*
X258348571Y-105059047D01*
X258396190Y-105154285D01*
X258396190Y-105535238D01*
X258824761Y-104582857D02*
X258872380Y-104440000D01*
X258872380Y-104201904D01*
X258824761Y-104106666D01*
X258777142Y-104059047D01*
X258681904Y-104011428D01*
X258586666Y-104011428D01*
X258491428Y-104059047D01*
X258443809Y-104106666D01*
X258396190Y-104201904D01*
X258348571Y-104392380D01*
X258300952Y-104487619D01*
X258253333Y-104535238D01*
X258158095Y-104582857D01*
X258062857Y-104582857D01*
X257967619Y-104535238D01*
X257920000Y-104487619D01*
X257872380Y-104392380D01*
X257872380Y-104154285D01*
X257920000Y-104011428D01*
X211493809Y-108542380D02*
X211017619Y-108542380D01*
X211017619Y-107542380D01*
X211684285Y-107542380D02*
X212017619Y-108542380D01*
X212350952Y-107542380D01*
X214017619Y-108447142D02*
X213970000Y-108494761D01*
X213827142Y-108542380D01*
X213731904Y-108542380D01*
X213589047Y-108494761D01*
X213493809Y-108399523D01*
X213446190Y-108304285D01*
X213398571Y-108113809D01*
X213398571Y-107970952D01*
X213446190Y-107780476D01*
X213493809Y-107685238D01*
X213589047Y-107590000D01*
X213731904Y-107542380D01*
X213827142Y-107542380D01*
X213970000Y-107590000D01*
X214017619Y-107637619D01*
X214636666Y-107542380D02*
X214827142Y-107542380D01*
X214922380Y-107590000D01*
X215017619Y-107685238D01*
X215065238Y-107875714D01*
X215065238Y-108209047D01*
X215017619Y-108399523D01*
X214922380Y-108494761D01*
X214827142Y-108542380D01*
X214636666Y-108542380D01*
X214541428Y-108494761D01*
X214446190Y-108399523D01*
X214398571Y-108209047D01*
X214398571Y-107875714D01*
X214446190Y-107685238D01*
X214541428Y-107590000D01*
X214636666Y-107542380D01*
X215493809Y-108542380D02*
X215493809Y-107542380D01*
X216065238Y-108542380D01*
X216065238Y-107542380D01*
X216398571Y-107542380D02*
X216731904Y-108542380D01*
X217065238Y-107542380D01*
X213398571Y-118702380D02*
X213065238Y-118226190D01*
X212827142Y-118702380D02*
X212827142Y-117702380D01*
X213208095Y-117702380D01*
X213303333Y-117750000D01*
X213350952Y-117797619D01*
X213398571Y-117892857D01*
X213398571Y-118035714D01*
X213350952Y-118130952D01*
X213303333Y-118178571D01*
X213208095Y-118226190D01*
X212827142Y-118226190D01*
X213684285Y-117702380D02*
X214255714Y-117702380D01*
X213970000Y-118702380D02*
X213970000Y-117702380D01*
X215160476Y-118607142D02*
X215112857Y-118654761D01*
X214970000Y-118702380D01*
X214874761Y-118702380D01*
X214731904Y-118654761D01*
X214636666Y-118559523D01*
X214589047Y-118464285D01*
X214541428Y-118273809D01*
X214541428Y-118130952D01*
X214589047Y-117940476D01*
X214636666Y-117845238D01*
X214731904Y-117750000D01*
X214874761Y-117702380D01*
X214970000Y-117702380D01*
X215112857Y-117750000D01*
X215160476Y-117797619D01*
X217502619Y-131672380D02*
X218074047Y-131672380D01*
X217788333Y-132672380D02*
X217788333Y-131672380D01*
X218978809Y-132672380D02*
X218645476Y-132196190D01*
X218407380Y-132672380D02*
X218407380Y-131672380D01*
X218788333Y-131672380D01*
X218883571Y-131720000D01*
X218931190Y-131767619D01*
X218978809Y-131862857D01*
X218978809Y-132005714D01*
X218931190Y-132100952D01*
X218883571Y-132148571D01*
X218788333Y-132196190D01*
X218407380Y-132196190D01*
X220121666Y-132386666D02*
X220597857Y-132386666D01*
X220026428Y-132672380D02*
X220359761Y-131672380D01*
X220693095Y-132672380D01*
X221597857Y-132672380D02*
X221264523Y-132196190D01*
X221026428Y-132672380D02*
X221026428Y-131672380D01*
X221407380Y-131672380D01*
X221502619Y-131720000D01*
X221550238Y-131767619D01*
X221597857Y-131862857D01*
X221597857Y-132005714D01*
X221550238Y-132100952D01*
X221502619Y-132148571D01*
X221407380Y-132196190D01*
X221026428Y-132196190D01*
X222597857Y-132672380D02*
X222264523Y-132196190D01*
X222026428Y-132672380D02*
X222026428Y-131672380D01*
X222407380Y-131672380D01*
X222502619Y-131720000D01*
X222550238Y-131767619D01*
X222597857Y-131862857D01*
X222597857Y-132005714D01*
X222550238Y-132100952D01*
X222502619Y-132148571D01*
X222407380Y-132196190D01*
X222026428Y-132196190D01*
X222978809Y-132386666D02*
X223455000Y-132386666D01*
X222883571Y-132672380D02*
X223216904Y-131672380D01*
X223550238Y-132672380D01*
X224074047Y-132196190D02*
X224074047Y-132672380D01*
X223740714Y-131672380D02*
X224074047Y-132196190D01*
X224407380Y-131672380D01*
X252466904Y-106351666D02*
X252943095Y-106351666D01*
X252371666Y-106637380D02*
X252705000Y-105637380D01*
X253038333Y-106637380D01*
X284851904Y-120321666D02*
X285328095Y-120321666D01*
X284756666Y-120607380D02*
X285090000Y-119607380D01*
X285423333Y-120607380D01*
X206199285Y-144007142D02*
X206151666Y-144054761D01*
X206008809Y-144102380D01*
X205913571Y-144102380D01*
X205770714Y-144054761D01*
X205675476Y-143959523D01*
X205627857Y-143864285D01*
X205580238Y-143673809D01*
X205580238Y-143530952D01*
X205627857Y-143340476D01*
X205675476Y-143245238D01*
X205770714Y-143150000D01*
X205913571Y-143102380D01*
X206008809Y-143102380D01*
X206151666Y-143150000D01*
X206199285Y-143197619D01*
X206818333Y-143102380D02*
X207008809Y-143102380D01*
X207104047Y-143150000D01*
X207199285Y-143245238D01*
X207246904Y-143435714D01*
X207246904Y-143769047D01*
X207199285Y-143959523D01*
X207104047Y-144054761D01*
X207008809Y-144102380D01*
X206818333Y-144102380D01*
X206723095Y-144054761D01*
X206627857Y-143959523D01*
X206580238Y-143769047D01*
X206580238Y-143435714D01*
X206627857Y-143245238D01*
X206723095Y-143150000D01*
X206818333Y-143102380D01*
X207675476Y-144102380D02*
X207675476Y-143102380D01*
X208008809Y-143816666D01*
X208342142Y-143102380D01*
X208342142Y-144102380D01*
X284590000Y-111638095D02*
X284542380Y-111733333D01*
X284542380Y-111876190D01*
X284590000Y-112019047D01*
X284685238Y-112114285D01*
X284780476Y-112161904D01*
X284970952Y-112209523D01*
X285113809Y-112209523D01*
X285304285Y-112161904D01*
X285399523Y-112114285D01*
X285494761Y-112019047D01*
X285542380Y-111876190D01*
X285542380Y-111780952D01*
X285494761Y-111638095D01*
X285447142Y-111590476D01*
X285113809Y-111590476D01*
X285113809Y-111780952D01*
X284542380Y-117186190D02*
X284542380Y-116567142D01*
X284923333Y-116900476D01*
X284923333Y-116757619D01*
X284970952Y-116662380D01*
X285018571Y-116614761D01*
X285113809Y-116567142D01*
X285351904Y-116567142D01*
X285447142Y-116614761D01*
X285494761Y-116662380D01*
X285542380Y-116757619D01*
X285542380Y-117043333D01*
X285494761Y-117138571D01*
X285447142Y-117186190D01*
X285447142Y-116138571D02*
X285494761Y-116090952D01*
X285542380Y-116138571D01*
X285494761Y-116186190D01*
X285447142Y-116138571D01*
X285542380Y-116138571D01*
X284542380Y-115757619D02*
X284542380Y-115138571D01*
X284923333Y-115471904D01*
X284923333Y-115329047D01*
X284970952Y-115233809D01*
X285018571Y-115186190D01*
X285113809Y-115138571D01*
X285351904Y-115138571D01*
X285447142Y-115186190D01*
X285494761Y-115233809D01*
X285542380Y-115329047D01*
X285542380Y-115614761D01*
X285494761Y-115710000D01*
X285447142Y-115757619D01*
X284542380Y-114852857D02*
X285542380Y-114519523D01*
X284542380Y-114186190D01*
X201333904Y-102256000D02*
X201238666Y-102208380D01*
X201095809Y-102208380D01*
X200952952Y-102256000D01*
X200857714Y-102351238D01*
X200810095Y-102446476D01*
X200762476Y-102636952D01*
X200762476Y-102779809D01*
X200810095Y-102970285D01*
X200857714Y-103065523D01*
X200952952Y-103160761D01*
X201095809Y-103208380D01*
X201191047Y-103208380D01*
X201333904Y-103160761D01*
X201381523Y-103113142D01*
X201381523Y-102779809D01*
X201191047Y-102779809D01*
X202381523Y-103208380D02*
X202048190Y-102732190D01*
X201810095Y-103208380D02*
X201810095Y-102208380D01*
X202191047Y-102208380D01*
X202286285Y-102256000D01*
X202333904Y-102303619D01*
X202381523Y-102398857D01*
X202381523Y-102541714D01*
X202333904Y-102636952D01*
X202286285Y-102684571D01*
X202191047Y-102732190D01*
X201810095Y-102732190D01*
X203000571Y-102208380D02*
X203191047Y-102208380D01*
X203286285Y-102256000D01*
X203381523Y-102351238D01*
X203429142Y-102541714D01*
X203429142Y-102875047D01*
X203381523Y-103065523D01*
X203286285Y-103160761D01*
X203191047Y-103208380D01*
X203000571Y-103208380D01*
X202905333Y-103160761D01*
X202810095Y-103065523D01*
X202762476Y-102875047D01*
X202762476Y-102541714D01*
X202810095Y-102351238D01*
X202905333Y-102256000D01*
X203000571Y-102208380D01*
X203714857Y-102208380D02*
X204048190Y-103208380D01*
X204381523Y-102208380D01*
X204714857Y-102684571D02*
X205048190Y-102684571D01*
X205191047Y-103208380D02*
X204714857Y-103208380D01*
X204714857Y-102208380D01*
X205191047Y-102208380D01*
X206381523Y-103208380D02*
X206381523Y-102208380D01*
X206810095Y-102303619D02*
X206857714Y-102256000D01*
X206952952Y-102208380D01*
X207191047Y-102208380D01*
X207286285Y-102256000D01*
X207333904Y-102303619D01*
X207381523Y-102398857D01*
X207381523Y-102494095D01*
X207333904Y-102636952D01*
X206762476Y-103208380D01*
X207381523Y-103208380D01*
X208381523Y-103113142D02*
X208333904Y-103160761D01*
X208191047Y-103208380D01*
X208095809Y-103208380D01*
X207952952Y-103160761D01*
X207857714Y-103065523D01*
X207810095Y-102970285D01*
X207762476Y-102779809D01*
X207762476Y-102636952D01*
X207810095Y-102446476D01*
X207857714Y-102351238D01*
X207952952Y-102256000D01*
X208095809Y-102208380D01*
X208191047Y-102208380D01*
X208333904Y-102256000D01*
X208381523Y-102303619D01*
X224709523Y-109177380D02*
X224709523Y-108177380D01*
X224947619Y-108177380D01*
X225090476Y-108225000D01*
X225185714Y-108320238D01*
X225233333Y-108415476D01*
X225280952Y-108605952D01*
X225280952Y-108748809D01*
X225233333Y-108939285D01*
X225185714Y-109034523D01*
X225090476Y-109129761D01*
X224947619Y-109177380D01*
X224709523Y-109177380D01*
X225661904Y-108891666D02*
X226138095Y-108891666D01*
X225566666Y-109177380D02*
X225900000Y-108177380D01*
X226233333Y-109177380D01*
X222764761Y-109082142D02*
X222717142Y-109129761D01*
X222574285Y-109177380D01*
X222479047Y-109177380D01*
X222336190Y-109129761D01*
X222240952Y-109034523D01*
X222193333Y-108939285D01*
X222145714Y-108748809D01*
X222145714Y-108605952D01*
X222193333Y-108415476D01*
X222240952Y-108320238D01*
X222336190Y-108225000D01*
X222479047Y-108177380D01*
X222574285Y-108177380D01*
X222717142Y-108225000D01*
X222764761Y-108272619D01*
X223669523Y-109177380D02*
X223193333Y-109177380D01*
X223193333Y-108177380D01*
X227566904Y-108225000D02*
X227471666Y-108177380D01*
X227328809Y-108177380D01*
X227185952Y-108225000D01*
X227090714Y-108320238D01*
X227043095Y-108415476D01*
X226995476Y-108605952D01*
X226995476Y-108748809D01*
X227043095Y-108939285D01*
X227090714Y-109034523D01*
X227185952Y-109129761D01*
X227328809Y-109177380D01*
X227424047Y-109177380D01*
X227566904Y-109129761D01*
X227614523Y-109082142D01*
X227614523Y-108748809D01*
X227424047Y-108748809D01*
X257610476Y-99668380D02*
X258229523Y-99668380D01*
X257896190Y-100049333D01*
X258039047Y-100049333D01*
X258134285Y-100096952D01*
X258181904Y-100144571D01*
X258229523Y-100239809D01*
X258229523Y-100477904D01*
X258181904Y-100573142D01*
X258134285Y-100620761D01*
X258039047Y-100668380D01*
X257753333Y-100668380D01*
X257658095Y-100620761D01*
X257610476Y-100573142D01*
X258705714Y-100668380D02*
X258896190Y-100668380D01*
X258991428Y-100620761D01*
X259039047Y-100573142D01*
X259134285Y-100430285D01*
X259181904Y-100239809D01*
X259181904Y-99858857D01*
X259134285Y-99763619D01*
X259086666Y-99716000D01*
X258991428Y-99668380D01*
X258800952Y-99668380D01*
X258705714Y-99716000D01*
X258658095Y-99763619D01*
X258610476Y-99858857D01*
X258610476Y-100096952D01*
X258658095Y-100192190D01*
X258705714Y-100239809D01*
X258800952Y-100287428D01*
X258991428Y-100287428D01*
X259086666Y-100239809D01*
X259134285Y-100192190D01*
X259181904Y-100096952D01*
X209175714Y-101557380D02*
X208604285Y-101557380D01*
X208890000Y-101557380D02*
X208890000Y-100557380D01*
X208794761Y-100700238D01*
X208699523Y-100795476D01*
X208604285Y-100843095D01*
D13*
G36*
X255880000Y-142996000D02*
G01*
X255372000Y-142996000D01*
X255372000Y-138678000D01*
X255880000Y-138678000D01*
X255880000Y-142996000D01*
G37*
D11*
X255372000Y-142996000D02*
X267310000Y-142996000D01*
D10*
X234544047Y-141181428D02*
X235305952Y-141181428D01*
X234925000Y-141562380D02*
X234925000Y-140800476D01*
X235186904Y-143150000D02*
X235091666Y-143102380D01*
X234948809Y-143102380D01*
X234805952Y-143150000D01*
X234710714Y-143245238D01*
X234663095Y-143340476D01*
X234615476Y-143530952D01*
X234615476Y-143673809D01*
X234663095Y-143864285D01*
X234710714Y-143959523D01*
X234805952Y-144054761D01*
X234948809Y-144102380D01*
X235044047Y-144102380D01*
X235186904Y-144054761D01*
X235234523Y-144007142D01*
X235234523Y-143673809D01*
X235044047Y-143673809D01*
X217446666Y-138022380D02*
X218065714Y-138022380D01*
X217732380Y-138403333D01*
X217875238Y-138403333D01*
X217970476Y-138450952D01*
X218018095Y-138498571D01*
X218065714Y-138593809D01*
X218065714Y-138831904D01*
X218018095Y-138927142D01*
X217970476Y-138974761D01*
X217875238Y-139022380D01*
X217589523Y-139022380D01*
X217494285Y-138974761D01*
X217446666Y-138927142D01*
X214954285Y-138117619D02*
X215001904Y-138070000D01*
X215097142Y-138022380D01*
X215335238Y-138022380D01*
X215430476Y-138070000D01*
X215478095Y-138117619D01*
X215525714Y-138212857D01*
X215525714Y-138308095D01*
X215478095Y-138450952D01*
X214906666Y-139022380D01*
X215525714Y-139022380D01*
D14*
X234290000Y-145960000D02*
X234290000Y-145325000D01*
X208890000Y-145960000D02*
X234290000Y-145960000D01*
X208890000Y-145325000D02*
X208890000Y-145960000D01*
D10*
X242924214Y-147071571D02*
X242590880Y-147071571D01*
X242590880Y-147595380D02*
X242590880Y-146595380D01*
X243067071Y-146595380D01*
X243400404Y-147309666D02*
X243876595Y-147309666D01*
X243305166Y-147595380D02*
X243638500Y-146595380D01*
X243971833Y-147595380D01*
X244971833Y-146595380D02*
X245638500Y-147595380D01*
X245638500Y-146595380D02*
X244971833Y-147595380D01*
X246209928Y-147119190D02*
X246209928Y-147595380D01*
X245876595Y-146595380D02*
X246209928Y-147119190D01*
X246543261Y-146595380D01*
X241400404Y-149245380D02*
X241400404Y-148245380D01*
X241781357Y-148245380D01*
X241876595Y-148293000D01*
X241924214Y-148340619D01*
X241971833Y-148435857D01*
X241971833Y-148578714D01*
X241924214Y-148673952D01*
X241876595Y-148721571D01*
X241781357Y-148769190D01*
X241400404Y-148769190D01*
X242590880Y-148245380D02*
X242781357Y-148245380D01*
X242876595Y-148293000D01*
X242971833Y-148388238D01*
X243019452Y-148578714D01*
X243019452Y-148912047D01*
X242971833Y-149102523D01*
X242876595Y-149197761D01*
X242781357Y-149245380D01*
X242590880Y-149245380D01*
X242495642Y-149197761D01*
X242400404Y-149102523D01*
X242352785Y-148912047D01*
X242352785Y-148578714D01*
X242400404Y-148388238D01*
X242495642Y-148293000D01*
X242590880Y-148245380D01*
X243352785Y-148245380D02*
X243590880Y-149245380D01*
X243781357Y-148531095D01*
X243971833Y-149245380D01*
X244209928Y-148245380D01*
X245352785Y-149245380D02*
X245352785Y-148245380D01*
X245828976Y-149245380D02*
X245828976Y-148245380D01*
X246400404Y-149245380D01*
X246400404Y-148245380D01*
X252331904Y-136800000D02*
X252236666Y-136752380D01*
X252093809Y-136752380D01*
X251950952Y-136800000D01*
X251855714Y-136895238D01*
X251808095Y-136990476D01*
X251760476Y-137180952D01*
X251760476Y-137323809D01*
X251808095Y-137514285D01*
X251855714Y-137609523D01*
X251950952Y-137704761D01*
X252093809Y-137752380D01*
X252189047Y-137752380D01*
X252331904Y-137704761D01*
X252379523Y-137657142D01*
X252379523Y-137323809D01*
X252189047Y-137323809D01*
X249784047Y-137371428D02*
X250545952Y-137371428D01*
X250165000Y-137752380D02*
X250165000Y-136990476D01*
X212985714Y-139022380D02*
X212414285Y-139022380D01*
X212700000Y-139022380D02*
X212700000Y-138022380D01*
X212604761Y-138165238D01*
X212509523Y-138260476D01*
X212414285Y-138308095D01*
X242410095Y-145372380D02*
X242410095Y-144372380D01*
X242791047Y-144372380D01*
X242886285Y-144420000D01*
X242933904Y-144467619D01*
X242981523Y-144562857D01*
X242981523Y-144705714D01*
X242933904Y-144800952D01*
X242886285Y-144848571D01*
X242791047Y-144896190D01*
X242410095Y-144896190D01*
X242259285Y-140546380D02*
X242259285Y-139546380D01*
X242830714Y-140546380D01*
X242830714Y-139546380D01*
X242410095Y-133942380D02*
X242410095Y-132942380D01*
X242791047Y-132942380D01*
X242886285Y-132990000D01*
X242933904Y-133037619D01*
X242981523Y-133132857D01*
X242981523Y-133275714D01*
X242933904Y-133370952D01*
X242886285Y-133418571D01*
X242791047Y-133466190D01*
X242410095Y-133466190D01*
X242259285Y-128354380D02*
X242259285Y-127354380D01*
X242830714Y-128354380D01*
X242830714Y-127354380D01*
X209350476Y-138022380D02*
X210017142Y-139022380D01*
X210017142Y-138022380D02*
X209350476Y-139022380D01*
X210588571Y-138022380D02*
X210683809Y-138022380D01*
X210779047Y-138070000D01*
X210826666Y-138117619D01*
X210874285Y-138212857D01*
X210921904Y-138403333D01*
X210921904Y-138641428D01*
X210874285Y-138831904D01*
X210826666Y-138927142D01*
X210779047Y-138974761D01*
X210683809Y-139022380D01*
X210588571Y-139022380D01*
X210493333Y-138974761D01*
X210445714Y-138927142D01*
X210398095Y-138831904D01*
X210350476Y-138641428D01*
X210350476Y-138403333D01*
X210398095Y-138212857D01*
X210445714Y-138117619D01*
X210493333Y-138070000D01*
X210588571Y-138022380D01*
X219843809Y-138546190D02*
X219843809Y-139022380D01*
X219510476Y-138022380D02*
X219843809Y-138546190D01*
X220177142Y-138022380D01*
X220700952Y-138022380D02*
X220796190Y-138022380D01*
X220891428Y-138070000D01*
X220939047Y-138117619D01*
X220986666Y-138212857D01*
X221034285Y-138403333D01*
X221034285Y-138641428D01*
X220986666Y-138831904D01*
X220939047Y-138927142D01*
X220891428Y-138974761D01*
X220796190Y-139022380D01*
X220700952Y-139022380D01*
X220605714Y-138974761D01*
X220558095Y-138927142D01*
X220510476Y-138831904D01*
X220462857Y-138641428D01*
X220462857Y-138403333D01*
X220510476Y-138212857D01*
X220558095Y-138117619D01*
X220605714Y-138070000D01*
X220700952Y-138022380D01*
D11*
X243180000Y-143650000D02*
X242545000Y-143650000D01*
X243180000Y-141110000D02*
X243180000Y-143650000D01*
X242545000Y-141110000D02*
X243180000Y-141110000D01*
X243180000Y-139205000D02*
X242545000Y-139205000D01*
X243180000Y-136030000D02*
X243180000Y-139205000D01*
X242545000Y-136030000D02*
X243180000Y-136030000D01*
X243180000Y-132220000D02*
X242545000Y-132220000D01*
X243180000Y-129680000D02*
X243180000Y-132220000D01*
X242545000Y-129680000D02*
X243180000Y-129680000D01*
X243180000Y-127140000D02*
X242545000Y-127140000D01*
X243180000Y-124600000D02*
X243180000Y-127140000D01*
X242545000Y-124600000D02*
X243180000Y-124600000D01*
D10*
X243386476Y-122528380D02*
X244053142Y-123528380D01*
X244053142Y-122528380D02*
X243386476Y-123528380D01*
X244624571Y-122528380D02*
X244719809Y-122528380D01*
X244815047Y-122576000D01*
X244862666Y-122623619D01*
X244910285Y-122718857D01*
X244957904Y-122909333D01*
X244957904Y-123147428D01*
X244910285Y-123337904D01*
X244862666Y-123433142D01*
X244815047Y-123480761D01*
X244719809Y-123528380D01*
X244624571Y-123528380D01*
X244529333Y-123480761D01*
X244481714Y-123433142D01*
X244434095Y-123337904D01*
X244386476Y-123147428D01*
X244386476Y-122909333D01*
X244434095Y-122718857D01*
X244481714Y-122623619D01*
X244529333Y-122576000D01*
X244624571Y-122528380D01*
X267087809Y-102224190D02*
X267087809Y-102700380D01*
X266754476Y-101700380D02*
X267087809Y-102224190D01*
X267421142Y-101700380D01*
X267944952Y-101700380D02*
X268040190Y-101700380D01*
X268135428Y-101748000D01*
X268183047Y-101795619D01*
X268230666Y-101890857D01*
X268278285Y-102081333D01*
X268278285Y-102319428D01*
X268230666Y-102509904D01*
X268183047Y-102605142D01*
X268135428Y-102652761D01*
X268040190Y-102700380D01*
X267944952Y-102700380D01*
X267849714Y-102652761D01*
X267802095Y-102605142D01*
X267754476Y-102509904D01*
X267706857Y-102319428D01*
X267706857Y-102081333D01*
X267754476Y-101890857D01*
X267802095Y-101795619D01*
X267849714Y-101748000D01*
X267944952Y-101700380D01*
X264405000Y-142114952D02*
X264309761Y-142067333D01*
X264262142Y-142019714D01*
X264214523Y-141924476D01*
X264214523Y-141876857D01*
X264262142Y-141781619D01*
X264309761Y-141734000D01*
X264405000Y-141686380D01*
X264595476Y-141686380D01*
X264690714Y-141734000D01*
X264738333Y-141781619D01*
X264785952Y-141876857D01*
X264785952Y-141924476D01*
X264738333Y-142019714D01*
X264690714Y-142067333D01*
X264595476Y-142114952D01*
X264405000Y-142114952D01*
X264309761Y-142162571D01*
X264262142Y-142210190D01*
X264214523Y-142305428D01*
X264214523Y-142495904D01*
X264262142Y-142591142D01*
X264309761Y-142638761D01*
X264405000Y-142686380D01*
X264595476Y-142686380D01*
X264690714Y-142638761D01*
X264738333Y-142591142D01*
X264785952Y-142495904D01*
X264785952Y-142305428D01*
X264738333Y-142210190D01*
X264690714Y-142162571D01*
X264595476Y-142114952D01*
X265119285Y-141686380D02*
X265785952Y-142686380D01*
X265785952Y-141686380D02*
X265119285Y-142686380D01*
X266357380Y-142210190D02*
X266357380Y-142686380D01*
X266024047Y-141686380D02*
X266357380Y-142210190D01*
X266690714Y-141686380D01*
D11*
X255372000Y-138678000D02*
X255372000Y-142996000D01*
X267310000Y-138678000D02*
X255372000Y-138678000D01*
X267310000Y-142996000D02*
X267310000Y-138678000D01*
X255372000Y-141472000D02*
X267310000Y-141472000D01*
D10*
X225540000Y-101548666D02*
X225540000Y-100848666D01*
X225840000Y-100915333D02*
X225873333Y-100882000D01*
X225940000Y-100848666D01*
X226106666Y-100848666D01*
X226173333Y-100882000D01*
X226206666Y-100915333D01*
X226240000Y-100982000D01*
X226240000Y-101048666D01*
X226206666Y-101148666D01*
X225806666Y-101548666D01*
X226240000Y-101548666D01*
X226940000Y-101482000D02*
X226906666Y-101515333D01*
X226806666Y-101548666D01*
X226740000Y-101548666D01*
X226640000Y-101515333D01*
X226573333Y-101448666D01*
X226540000Y-101382000D01*
X226506666Y-101248666D01*
X226506666Y-101148666D01*
X226540000Y-101015333D01*
X226573333Y-100948666D01*
X226640000Y-100882000D01*
X226740000Y-100848666D01*
X226806666Y-100848666D01*
X226906666Y-100882000D01*
X226940000Y-100915333D01*
X228173333Y-101482000D02*
X228140000Y-101515333D01*
X228040000Y-101548666D01*
X227973333Y-101548666D01*
X227873333Y-101515333D01*
X227806666Y-101448666D01*
X227773333Y-101382000D01*
X227740000Y-101248666D01*
X227740000Y-101148666D01*
X227773333Y-101015333D01*
X227806666Y-100948666D01*
X227873333Y-100882000D01*
X227973333Y-100848666D01*
X228040000Y-100848666D01*
X228140000Y-100882000D01*
X228173333Y-100915333D01*
X228606666Y-100848666D02*
X228740000Y-100848666D01*
X228806666Y-100882000D01*
X228873333Y-100948666D01*
X228906666Y-101082000D01*
X228906666Y-101315333D01*
X228873333Y-101448666D01*
X228806666Y-101515333D01*
X228740000Y-101548666D01*
X228606666Y-101548666D01*
X228540000Y-101515333D01*
X228473333Y-101448666D01*
X228440000Y-101315333D01*
X228440000Y-101082000D01*
X228473333Y-100948666D01*
X228540000Y-100882000D01*
X228606666Y-100848666D01*
X229206666Y-101548666D02*
X229206666Y-100848666D01*
X229606666Y-101548666D01*
X229606666Y-100848666D01*
X229940000Y-101548666D02*
X229940000Y-100848666D01*
X230340000Y-101548666D01*
X230340000Y-100848666D01*
X269040571Y-102192380D02*
X269040571Y-101192380D01*
X269707238Y-101192380D02*
X269897714Y-101192380D01*
X269992952Y-101240000D01*
X270088190Y-101335238D01*
X270135809Y-101525714D01*
X270135809Y-101859047D01*
X270088190Y-102049523D01*
X269992952Y-102144761D01*
X269897714Y-102192380D01*
X269707238Y-102192380D01*
X269612000Y-102144761D01*
X269516761Y-102049523D01*
X269469142Y-101859047D01*
X269469142Y-101525714D01*
X269516761Y-101335238D01*
X269612000Y-101240000D01*
X269707238Y-101192380D01*
X270564380Y-101811428D02*
X271326285Y-101811428D01*
X271992952Y-101716190D02*
X271992952Y-102192380D01*
X271659619Y-101192380D02*
X271992952Y-101716190D01*
X272326285Y-101192380D01*
X246640952Y-123528380D02*
X246640952Y-122528380D01*
X247307619Y-122528380D02*
X247498095Y-122528380D01*
X247593333Y-122576000D01*
X247688571Y-122671238D01*
X247736190Y-122861714D01*
X247736190Y-123195047D01*
X247688571Y-123385523D01*
X247593333Y-123480761D01*
X247498095Y-123528380D01*
X247307619Y-123528380D01*
X247212380Y-123480761D01*
X247117142Y-123385523D01*
X247069523Y-123195047D01*
X247069523Y-122861714D01*
X247117142Y-122671238D01*
X247212380Y-122576000D01*
X247307619Y-122528380D01*
X248164761Y-123147428D02*
X248926666Y-123147428D01*
X249307619Y-122528380D02*
X249974285Y-123528380D01*
X249974285Y-122528380D02*
X249307619Y-123528380D01*
X233716595Y-131799761D02*
X233859452Y-131847380D01*
X234097547Y-131847380D01*
X234192785Y-131799761D01*
X234240404Y-131752142D01*
X234288023Y-131656904D01*
X234288023Y-131561666D01*
X234240404Y-131466428D01*
X234192785Y-131418809D01*
X234097547Y-131371190D01*
X233907071Y-131323571D01*
X233811833Y-131275952D01*
X233764214Y-131228333D01*
X233716595Y-131133095D01*
X233716595Y-131037857D01*
X233764214Y-130942619D01*
X233811833Y-130895000D01*
X233907071Y-130847380D01*
X234145166Y-130847380D01*
X234288023Y-130895000D01*
X235430880Y-130799761D02*
X234573738Y-132085476D01*
X235716595Y-131799761D02*
X235859452Y-131847380D01*
X236097547Y-131847380D01*
X236192785Y-131799761D01*
X236240404Y-131752142D01*
X236288023Y-131656904D01*
X236288023Y-131561666D01*
X236240404Y-131466428D01*
X236192785Y-131418809D01*
X236097547Y-131371190D01*
X235907071Y-131323571D01*
X235811833Y-131275952D01*
X235764214Y-131228333D01*
X235716595Y-131133095D01*
X235716595Y-131037857D01*
X235764214Y-130942619D01*
X235811833Y-130895000D01*
X235907071Y-130847380D01*
X236145166Y-130847380D01*
X236288023Y-130895000D01*
X236049928Y-133021190D02*
X236049928Y-133497380D01*
X235716595Y-132497380D02*
X236049928Y-133021190D01*
X236383261Y-132497380D01*
X233716595Y-135863761D02*
X233859452Y-135911380D01*
X234097547Y-135911380D01*
X234192785Y-135863761D01*
X234240404Y-135816142D01*
X234288023Y-135720904D01*
X234288023Y-135625666D01*
X234240404Y-135530428D01*
X234192785Y-135482809D01*
X234097547Y-135435190D01*
X233907071Y-135387571D01*
X233811833Y-135339952D01*
X233764214Y-135292333D01*
X233716595Y-135197095D01*
X233716595Y-135101857D01*
X233764214Y-135006619D01*
X233811833Y-134959000D01*
X233907071Y-134911380D01*
X234145166Y-134911380D01*
X234288023Y-134959000D01*
X235430880Y-134863761D02*
X234573738Y-136149476D01*
X235716595Y-135863761D02*
X235859452Y-135911380D01*
X236097547Y-135911380D01*
X236192785Y-135863761D01*
X236240404Y-135816142D01*
X236288023Y-135720904D01*
X236288023Y-135625666D01*
X236240404Y-135530428D01*
X236192785Y-135482809D01*
X236097547Y-135435190D01*
X235907071Y-135387571D01*
X235811833Y-135339952D01*
X235764214Y-135292333D01*
X235716595Y-135197095D01*
X235716595Y-135101857D01*
X235764214Y-135006619D01*
X235811833Y-134959000D01*
X235907071Y-134911380D01*
X236145166Y-134911380D01*
X236288023Y-134959000D01*
X235668976Y-136561380D02*
X236335642Y-137561380D01*
X236335642Y-136561380D02*
X235668976Y-137561380D01*
X208041190Y-148023571D02*
X207707857Y-148023571D01*
X207707857Y-148547380D02*
X207707857Y-147547380D01*
X208184047Y-147547380D01*
X208517380Y-148261666D02*
X208993571Y-148261666D01*
X208422142Y-148547380D02*
X208755476Y-147547380D01*
X209088809Y-148547380D01*
X210088809Y-147547380D02*
X210755476Y-148547380D01*
X210755476Y-147547380D02*
X210088809Y-148547380D01*
X211326904Y-148071190D02*
X211326904Y-148547380D01*
X210993571Y-147547380D02*
X211326904Y-148071190D01*
X211660238Y-147547380D01*
X213326904Y-148452142D02*
X213279285Y-148499761D01*
X213136428Y-148547380D01*
X213041190Y-148547380D01*
X212898333Y-148499761D01*
X212803095Y-148404523D01*
X212755476Y-148309285D01*
X212707857Y-148118809D01*
X212707857Y-147975952D01*
X212755476Y-147785476D01*
X212803095Y-147690238D01*
X212898333Y-147595000D01*
X213041190Y-147547380D01*
X213136428Y-147547380D01*
X213279285Y-147595000D01*
X213326904Y-147642619D01*
X213945952Y-147547380D02*
X214136428Y-147547380D01*
X214231666Y-147595000D01*
X214326904Y-147690238D01*
X214374523Y-147880714D01*
X214374523Y-148214047D01*
X214326904Y-148404523D01*
X214231666Y-148499761D01*
X214136428Y-148547380D01*
X213945952Y-148547380D01*
X213850714Y-148499761D01*
X213755476Y-148404523D01*
X213707857Y-148214047D01*
X213707857Y-147880714D01*
X213755476Y-147690238D01*
X213850714Y-147595000D01*
X213945952Y-147547380D01*
X214803095Y-148547380D02*
X214803095Y-147547380D01*
X215374523Y-148547380D01*
X215374523Y-147547380D01*
X215850714Y-148547380D02*
X215850714Y-147547380D01*
X216422142Y-148547380D01*
X216422142Y-147547380D01*
D15*
X256630714Y-141106761D02*
X256630714Y-139106761D01*
X257202142Y-139106761D01*
X257345000Y-139202000D01*
X257416428Y-139297238D01*
X257487857Y-139487714D01*
X257487857Y-139773428D01*
X257416428Y-139963904D01*
X257345000Y-140059142D01*
X257202142Y-140154380D01*
X256630714Y-140154380D01*
X258130714Y-141106761D02*
X258130714Y-139773428D01*
X258130714Y-139106761D02*
X258059285Y-139202000D01*
X258130714Y-139297238D01*
X258202142Y-139202000D01*
X258130714Y-139106761D01*
X258130714Y-139297238D01*
X259345000Y-140059142D02*
X258845000Y-140059142D01*
X258845000Y-141106761D02*
X258845000Y-139106761D01*
X259559285Y-139106761D01*
X260059285Y-140535333D02*
X260773571Y-140535333D01*
X259916428Y-141106761D02*
X260416428Y-139106761D01*
X260916428Y-141106761D01*
X261416428Y-140344857D02*
X262559285Y-140344857D01*
X263273571Y-141106761D02*
X263273571Y-139106761D01*
X263273571Y-140059142D02*
X264130714Y-140059142D01*
X264130714Y-141106761D02*
X264130714Y-139106761D01*
X264773571Y-140535333D02*
X265487857Y-140535333D01*
X264630714Y-141106761D02*
X265130714Y-139106761D01*
X265630714Y-141106761D01*
X265916428Y-139106761D02*
X266773571Y-139106761D01*
X266345000Y-141106761D02*
X266345000Y-139106761D01*
D11*
X248060000Y-107900000D02*
X248060000Y-108080000D01*
X248060000Y-105560000D02*
X248060000Y-105740000D01*
X247940000Y-107900000D02*
X247940000Y-108080000D01*
X247940000Y-105560000D02*
X247940000Y-105740000D01*
X251240000Y-107915000D02*
X251240000Y-108080000D01*
X251240000Y-105560000D02*
X251240000Y-105725000D01*
X247820000Y-107900000D02*
X247820000Y-108080000D01*
X247820000Y-105560000D02*
X247820000Y-105740000D01*
X247820000Y-108080000D02*
X251240000Y-108080000D01*
X247820000Y-105560000D02*
X251240000Y-105560000D01*
X235910000Y-103010000D02*
X235290000Y-103010000D01*
X237750000Y-103010000D02*
G75*
G03X237750000Y-103010000I-920000J0D01*
G01*
X240990000Y-103010000D02*
X240370000Y-103010000D01*
X242830000Y-103010000D02*
G75*
G03X242830000Y-103010000I-920000J0D01*
G01*
X208830000Y-144980000D02*
X208830000Y-143650000D01*
X210160000Y-144980000D02*
X208830000Y-144980000D01*
X208830000Y-142380000D02*
X208830000Y-139780000D01*
X211430000Y-142380000D02*
X208830000Y-142380000D01*
X211430000Y-144980000D02*
X211430000Y-142380000D01*
X208830000Y-139780000D02*
X234350000Y-139780000D01*
X211430000Y-144980000D02*
X234350000Y-144980000D01*
X234350000Y-144980000D02*
X234350000Y-139780000D01*
X219110000Y-110740000D02*
X219110000Y-109090000D01*
X208830000Y-110740000D02*
X219110000Y-110740000D01*
X208830000Y-105440000D02*
X208830000Y-110740000D01*
X219110000Y-105440000D02*
X208830000Y-105440000D01*
X219110000Y-107090000D02*
X219110000Y-105440000D01*
X219110000Y-109090000D02*
G75*
G02X219110000Y-107090000I0J1000000D01*
G01*
X272600000Y-102700000D02*
X271350000Y-102700000D01*
X272600000Y-103950000D02*
X272600000Y-102700000D01*
X267100000Y-114850000D02*
X267100000Y-109300000D01*
X270050000Y-114850000D02*
X267100000Y-114850000D01*
X270050000Y-115600000D02*
X270050000Y-114850000D01*
X267100000Y-103750000D02*
X267100000Y-109300000D01*
X270050000Y-103750000D02*
X267100000Y-103750000D01*
X270050000Y-103000000D02*
X270050000Y-103750000D01*
X272300000Y-115600000D02*
X272300000Y-113800000D01*
X271550000Y-115600000D02*
X272300000Y-115600000D01*
X271550000Y-113800000D02*
X271550000Y-115600000D01*
X272300000Y-113800000D02*
X271550000Y-113800000D01*
X272300000Y-104800000D02*
X272300000Y-103000000D01*
X271550000Y-104800000D02*
X272300000Y-104800000D01*
X271550000Y-103000000D02*
X271550000Y-104800000D01*
X272300000Y-103000000D02*
X271550000Y-103000000D01*
X272300000Y-112300000D02*
X272300000Y-106300000D01*
X271550000Y-112300000D02*
X272300000Y-112300000D01*
X271550000Y-106300000D02*
X271550000Y-112300000D01*
X272300000Y-106300000D02*
X271550000Y-106300000D01*
X272310000Y-115610000D02*
X272310000Y-102990000D01*
X266340000Y-115610000D02*
X272310000Y-115610000D01*
X266340000Y-102990000D02*
X266340000Y-115610000D01*
X272310000Y-102990000D02*
X266340000Y-102990000D01*
X266170000Y-101570000D02*
X263370000Y-101570000D01*
X263370000Y-101570000D02*
X263370000Y-114610000D01*
X263370000Y-114610000D02*
X266170000Y-114610000D01*
X266170000Y-114610000D02*
X266170000Y-101570000D01*
X266170000Y-104280000D02*
X263370000Y-104280000D01*
X249870000Y-137740000D02*
X249570000Y-138340000D01*
X249270000Y-137740000D02*
X249870000Y-137740000D01*
X249570000Y-138340000D02*
X249270000Y-137740000D01*
X252320000Y-143040000D02*
X251820000Y-143040000D01*
X252320000Y-148540000D02*
X252320000Y-143040000D01*
X251820000Y-148540000D02*
X252320000Y-148540000D01*
X251820000Y-143040000D02*
X251820000Y-148540000D01*
X249820000Y-143040000D02*
X249320000Y-143040000D01*
X249820000Y-148540000D02*
X249820000Y-143040000D01*
X249320000Y-148540000D02*
X249820000Y-148540000D01*
X249320000Y-143040000D02*
X249320000Y-148540000D01*
X253210000Y-141930000D02*
X250820000Y-141930000D01*
X253210000Y-137430000D02*
X253210000Y-141930000D01*
X254630000Y-137430000D02*
X253210000Y-137430000D01*
X254630000Y-149150000D02*
X254630000Y-137430000D01*
X250820000Y-149150000D02*
X254630000Y-149150000D01*
X248430000Y-141930000D02*
X250820000Y-141930000D01*
X248430000Y-137430000D02*
X248430000Y-141930000D01*
X247010000Y-137430000D02*
X248430000Y-137430000D01*
X247010000Y-149150000D02*
X247010000Y-137430000D01*
X250820000Y-149150000D02*
X247010000Y-149150000D01*
X220010000Y-101530000D02*
X220010000Y-102780000D01*
X221260000Y-101530000D02*
X220010000Y-101530000D01*
X229660000Y-107030000D02*
X225360000Y-107030000D01*
X229660000Y-104080000D02*
X229660000Y-107030000D01*
X230410000Y-104080000D02*
X229660000Y-104080000D01*
X221060000Y-107030000D02*
X225360000Y-107030000D01*
X221060000Y-104080000D02*
X221060000Y-107030000D01*
X220310000Y-104080000D02*
X221060000Y-104080000D01*
X230410000Y-101830000D02*
X228610000Y-101830000D01*
X230410000Y-102580000D02*
X230410000Y-101830000D01*
X228610000Y-102580000D02*
X230410000Y-102580000D01*
X228610000Y-101830000D02*
X228610000Y-102580000D01*
X222110000Y-101830000D02*
X220310000Y-101830000D01*
X222110000Y-102580000D02*
X222110000Y-101830000D01*
X220310000Y-102580000D02*
X222110000Y-102580000D01*
X220310000Y-101830000D02*
X220310000Y-102580000D01*
X227110000Y-101830000D02*
X223610000Y-101830000D01*
X227110000Y-102580000D02*
X227110000Y-101830000D01*
X223610000Y-102580000D02*
X227110000Y-102580000D01*
X223610000Y-101830000D02*
X223610000Y-102580000D01*
X230420000Y-101820000D02*
X220300000Y-101820000D01*
X230420000Y-107790000D02*
X230420000Y-101820000D01*
X220300000Y-107790000D02*
X230420000Y-107790000D01*
X220300000Y-101820000D02*
X220300000Y-107790000D01*
X241700000Y-122370000D02*
X242950000Y-122370000D01*
X241700000Y-121120000D02*
X241700000Y-122370000D01*
X247200000Y-110220000D02*
X247200000Y-115770000D01*
X244250000Y-110220000D02*
X247200000Y-110220000D01*
X244250000Y-109470000D02*
X244250000Y-110220000D01*
X247200000Y-121320000D02*
X247200000Y-115770000D01*
X244250000Y-121320000D02*
X247200000Y-121320000D01*
X244250000Y-122070000D02*
X244250000Y-121320000D01*
X242000000Y-109470000D02*
X242000000Y-111270000D01*
X242750000Y-109470000D02*
X242000000Y-109470000D01*
X242750000Y-111270000D02*
X242750000Y-109470000D01*
X242000000Y-111270000D02*
X242750000Y-111270000D01*
X242000000Y-120270000D02*
X242000000Y-122070000D01*
X242750000Y-120270000D02*
X242000000Y-120270000D01*
X242750000Y-122070000D02*
X242750000Y-120270000D01*
X242000000Y-122070000D02*
X242750000Y-122070000D01*
X242000000Y-112770000D02*
X242000000Y-118770000D01*
X242750000Y-112770000D02*
X242000000Y-112770000D01*
X242750000Y-118770000D02*
X242750000Y-112770000D01*
X242000000Y-118770000D02*
X242750000Y-118770000D01*
X241990000Y-109460000D02*
X241990000Y-122080000D01*
X247960000Y-109460000D02*
X241990000Y-109460000D01*
X247960000Y-122080000D02*
X247960000Y-109460000D01*
X241990000Y-122080000D02*
X247960000Y-122080000D01*
X240700000Y-116710000D02*
G75*
G02X240700000Y-114710000I0J1000000D01*
G01*
X240700000Y-114710000D02*
X240700000Y-113060000D01*
X240700000Y-113060000D02*
X220260000Y-113060000D01*
X220260000Y-113060000D02*
X220260000Y-118360000D01*
X220260000Y-118360000D02*
X240700000Y-118360000D01*
X240700000Y-118360000D02*
X240700000Y-116710000D01*
X281975000Y-113805000D02*
X279315000Y-113805000D01*
X281975000Y-113805000D02*
X281975000Y-111205000D01*
X281975000Y-111205000D02*
X279315000Y-111205000D01*
X279315000Y-113805000D02*
X279315000Y-111205000D01*
X279315000Y-116405000D02*
X279315000Y-115075000D01*
X280645000Y-116405000D02*
X279315000Y-116405000D01*
X231810000Y-133220000D02*
G75*
G02X231810000Y-131220000I0J1000000D01*
G01*
X231810000Y-131220000D02*
X231810000Y-129570000D01*
X231810000Y-129570000D02*
X208830000Y-129570000D01*
X208830000Y-129570000D02*
X208830000Y-134870000D01*
X208830000Y-134870000D02*
X231810000Y-134870000D01*
X231810000Y-134870000D02*
X231810000Y-133220000D01*
D10*
X206280000Y-118080000D02*
X200480000Y-118080000D01*
X200480000Y-118080000D02*
X200480000Y-141280000D01*
X200480000Y-141280000D02*
X206280000Y-141280000D01*
X206280000Y-141280000D02*
X206280000Y-118080000D01*
D11*
X206810000Y-103820000D02*
X206810000Y-106820000D01*
X203810000Y-103820000D02*
X206810000Y-103820000D01*
X200510000Y-111820000D02*
X200510000Y-112420000D01*
X200510000Y-107220000D02*
X200510000Y-107820000D01*
X206360000Y-104320000D02*
X206360000Y-115370000D01*
X200510000Y-104320000D02*
X206360000Y-104320000D01*
X200510000Y-108070000D02*
X200510000Y-111570000D01*
X200510000Y-115370000D02*
X206360000Y-115370000D01*
X200510000Y-104320000D02*
X200510000Y-106970000D01*
X200510000Y-112720000D02*
X200510000Y-115370000D01*
D16*
G36*
X256511241Y-136229184D02*
G01*
X256537753Y-136242282D01*
X256570447Y-136265106D01*
X256594275Y-136289996D01*
X256610594Y-136321249D01*
X256620760Y-136363166D01*
X256626128Y-136420044D01*
X256628056Y-136496184D01*
X256628169Y-136528917D01*
X256627839Y-136600656D01*
X256626473Y-136651927D01*
X256623500Y-136687404D01*
X256618351Y-136711763D01*
X256610457Y-136729680D01*
X256602243Y-136741902D01*
X256549813Y-136793905D01*
X256488070Y-136825184D01*
X256421464Y-136834592D01*
X256354442Y-136820980D01*
X256333208Y-136811354D01*
X256282376Y-136784859D01*
X256282376Y-137200052D01*
X256319475Y-137180868D01*
X256368357Y-137166025D01*
X256428439Y-137162222D01*
X256488436Y-137169243D01*
X256533744Y-137185013D01*
X256571325Y-137215047D01*
X256603436Y-137258024D01*
X256605850Y-137262436D01*
X256616033Y-137283221D01*
X256623470Y-137304170D01*
X256628589Y-137329548D01*
X256631819Y-137363618D01*
X256633587Y-137410641D01*
X256634323Y-137474882D01*
X256634456Y-137547176D01*
X256634456Y-137777822D01*
X256496139Y-137777822D01*
X256496139Y-137352533D01*
X256457451Y-137319979D01*
X256417262Y-137293940D01*
X256379203Y-137289205D01*
X256340934Y-137301389D01*
X256320538Y-137313320D01*
X256305358Y-137330313D01*
X256294562Y-137355995D01*
X256287317Y-137393991D01*
X256282792Y-137447926D01*
X256280156Y-137521425D01*
X256279228Y-137570347D01*
X256276089Y-137771535D01*
X256210074Y-137775336D01*
X256144060Y-137779136D01*
X256144060Y-136530650D01*
X256282376Y-136530650D01*
X256285903Y-136600254D01*
X256297785Y-136648569D01*
X256319980Y-136678631D01*
X256354441Y-136693471D01*
X256389258Y-136696436D01*
X256428671Y-136693028D01*
X256454829Y-136679617D01*
X256471186Y-136661896D01*
X256484063Y-136642835D01*
X256491728Y-136621601D01*
X256495139Y-136591849D01*
X256495251Y-136547236D01*
X256494103Y-136509880D01*
X256491468Y-136453604D01*
X256487544Y-136416658D01*
X256480937Y-136393223D01*
X256470251Y-136377480D01*
X256460167Y-136368380D01*
X256418030Y-136348537D01*
X256368160Y-136345332D01*
X256339524Y-136352168D01*
X256311172Y-136376464D01*
X256292391Y-136423728D01*
X256283288Y-136493624D01*
X256282376Y-136530650D01*
X256144060Y-136530650D01*
X256144060Y-136218614D01*
X256213218Y-136218614D01*
X256254740Y-136220256D01*
X256276162Y-136226087D01*
X256282374Y-136237461D01*
X256282376Y-136237798D01*
X256285258Y-136248938D01*
X256297970Y-136247673D01*
X256323243Y-136235433D01*
X256382131Y-136216707D01*
X256448385Y-136214739D01*
X256511241Y-136229184D01*
G37*
X256511241Y-136229184D02*
X256537753Y-136242282D01*
X256570447Y-136265106D01*
X256594275Y-136289996D01*
X256610594Y-136321249D01*
X256620760Y-136363166D01*
X256626128Y-136420044D01*
X256628056Y-136496184D01*
X256628169Y-136528917D01*
X256627839Y-136600656D01*
X256626473Y-136651927D01*
X256623500Y-136687404D01*
X256618351Y-136711763D01*
X256610457Y-136729680D01*
X256602243Y-136741902D01*
X256549813Y-136793905D01*
X256488070Y-136825184D01*
X256421464Y-136834592D01*
X256354442Y-136820980D01*
X256333208Y-136811354D01*
X256282376Y-136784859D01*
X256282376Y-137200052D01*
X256319475Y-137180868D01*
X256368357Y-137166025D01*
X256428439Y-137162222D01*
X256488436Y-137169243D01*
X256533744Y-137185013D01*
X256571325Y-137215047D01*
X256603436Y-137258024D01*
X256605850Y-137262436D01*
X256616033Y-137283221D01*
X256623470Y-137304170D01*
X256628589Y-137329548D01*
X256631819Y-137363618D01*
X256633587Y-137410641D01*
X256634323Y-137474882D01*
X256634456Y-137547176D01*
X256634456Y-137777822D01*
X256496139Y-137777822D01*
X256496139Y-137352533D01*
X256457451Y-137319979D01*
X256417262Y-137293940D01*
X256379203Y-137289205D01*
X256340934Y-137301389D01*
X256320538Y-137313320D01*
X256305358Y-137330313D01*
X256294562Y-137355995D01*
X256287317Y-137393991D01*
X256282792Y-137447926D01*
X256280156Y-137521425D01*
X256279228Y-137570347D01*
X256276089Y-137771535D01*
X256210074Y-137775336D01*
X256144060Y-137779136D01*
X256144060Y-136530650D01*
X256282376Y-136530650D01*
X256285903Y-136600254D01*
X256297785Y-136648569D01*
X256319980Y-136678631D01*
X256354441Y-136693471D01*
X256389258Y-136696436D01*
X256428671Y-136693028D01*
X256454829Y-136679617D01*
X256471186Y-136661896D01*
X256484063Y-136642835D01*
X256491728Y-136621601D01*
X256495139Y-136591849D01*
X256495251Y-136547236D01*
X256494103Y-136509880D01*
X256491468Y-136453604D01*
X256487544Y-136416658D01*
X256480937Y-136393223D01*
X256470251Y-136377480D01*
X256460167Y-136368380D01*
X256418030Y-136348537D01*
X256368160Y-136345332D01*
X256339524Y-136352168D01*
X256311172Y-136376464D01*
X256292391Y-136423728D01*
X256283288Y-136493624D01*
X256282376Y-136530650D01*
X256144060Y-136530650D01*
X256144060Y-136218614D01*
X256213218Y-136218614D01*
X256254740Y-136220256D01*
X256276162Y-136226087D01*
X256282374Y-136237461D01*
X256282376Y-136237798D01*
X256285258Y-136248938D01*
X256297970Y-136247673D01*
X256323243Y-136235433D01*
X256382131Y-136216707D01*
X256448385Y-136214739D01*
X256511241Y-136229184D01*
G36*
X257035790Y-137166555D02*
G01*
X257094945Y-137182339D01*
X257139977Y-137210948D01*
X257171754Y-137248419D01*
X257181634Y-137264411D01*
X257188927Y-137281163D01*
X257194026Y-137302592D01*
X257197321Y-137332616D01*
X257199203Y-137375154D01*
X257200063Y-137434122D01*
X257200293Y-137513440D01*
X257200297Y-137534484D01*
X257200297Y-137777822D01*
X257139941Y-137777822D01*
X257101443Y-137775126D01*
X257072977Y-137768295D01*
X257065845Y-137764083D01*
X257046348Y-137756813D01*
X257026434Y-137764083D01*
X256993647Y-137773160D01*
X256946022Y-137776813D01*
X256893236Y-137775228D01*
X256844964Y-137768589D01*
X256816782Y-137760072D01*
X256762247Y-137725063D01*
X256728165Y-137676479D01*
X256712843Y-137611882D01*
X256712701Y-137610223D01*
X256714045Y-137581566D01*
X256835644Y-137581566D01*
X256846274Y-137614161D01*
X256863590Y-137632505D01*
X256898348Y-137646379D01*
X256944227Y-137651917D01*
X256991012Y-137649191D01*
X257028486Y-137638274D01*
X257038985Y-137631269D01*
X257057332Y-137598904D01*
X257061980Y-137562111D01*
X257061980Y-137513763D01*
X256992418Y-137513763D01*
X256926333Y-137518850D01*
X256876236Y-137533263D01*
X256845071Y-137555729D01*
X256835644Y-137581566D01*
X256714045Y-137581566D01*
X256716013Y-137539647D01*
X256739290Y-137483845D01*
X256783052Y-137441647D01*
X256789101Y-137437808D01*
X256815093Y-137425309D01*
X256847265Y-137417740D01*
X256892240Y-137414061D01*
X256945669Y-137413216D01*
X257061980Y-137413169D01*
X257061980Y-137364411D01*
X257057047Y-137326581D01*
X257044457Y-137301236D01*
X257042983Y-137299887D01*
X257014966Y-137288800D01*
X256972674Y-137284503D01*
X256925936Y-137286615D01*
X256884582Y-137294756D01*
X256860043Y-137306965D01*
X256846747Y-137316746D01*
X256832706Y-137318613D01*
X256813329Y-137310600D01*
X256784024Y-137290739D01*
X256740197Y-137257063D01*
X256736175Y-137253909D01*
X256738236Y-137242236D01*
X256755432Y-137222822D01*
X256781567Y-137201248D01*
X256810448Y-137183096D01*
X256819522Y-137178809D01*
X256852620Y-137170256D01*
X256901120Y-137164155D01*
X256955305Y-137161708D01*
X256957839Y-137161703D01*
X257035790Y-137166555D01*
G37*
X257035790Y-137166555D02*
X257094945Y-137182339D01*
X257139977Y-137210948D01*
X257171754Y-137248419D01*
X257181634Y-137264411D01*
X257188927Y-137281163D01*
X257194026Y-137302592D01*
X257197321Y-137332616D01*
X257199203Y-137375154D01*
X257200063Y-137434122D01*
X257200293Y-137513440D01*
X257200297Y-137534484D01*
X257200297Y-137777822D01*
X257139941Y-137777822D01*
X257101443Y-137775126D01*
X257072977Y-137768295D01*
X257065845Y-137764083D01*
X257046348Y-137756813D01*
X257026434Y-137764083D01*
X256993647Y-137773160D01*
X256946022Y-137776813D01*
X256893236Y-137775228D01*
X256844964Y-137768589D01*
X256816782Y-137760072D01*
X256762247Y-137725063D01*
X256728165Y-137676479D01*
X256712843Y-137611882D01*
X256712701Y-137610223D01*
X256714045Y-137581566D01*
X256835644Y-137581566D01*
X256846274Y-137614161D01*
X256863590Y-137632505D01*
X256898348Y-137646379D01*
X256944227Y-137651917D01*
X256991012Y-137649191D01*
X257028486Y-137638274D01*
X257038985Y-137631269D01*
X257057332Y-137598904D01*
X257061980Y-137562111D01*
X257061980Y-137513763D01*
X256992418Y-137513763D01*
X256926333Y-137518850D01*
X256876236Y-137533263D01*
X256845071Y-137555729D01*
X256835644Y-137581566D01*
X256714045Y-137581566D01*
X256716013Y-137539647D01*
X256739290Y-137483845D01*
X256783052Y-137441647D01*
X256789101Y-137437808D01*
X256815093Y-137425309D01*
X256847265Y-137417740D01*
X256892240Y-137414061D01*
X256945669Y-137413216D01*
X257061980Y-137413169D01*
X257061980Y-137364411D01*
X257057047Y-137326581D01*
X257044457Y-137301236D01*
X257042983Y-137299887D01*
X257014966Y-137288800D01*
X256972674Y-137284503D01*
X256925936Y-137286615D01*
X256884582Y-137294756D01*
X256860043Y-137306965D01*
X256846747Y-137316746D01*
X256832706Y-137318613D01*
X256813329Y-137310600D01*
X256784024Y-137290739D01*
X256740197Y-137257063D01*
X256736175Y-137253909D01*
X256738236Y-137242236D01*
X256755432Y-137222822D01*
X256781567Y-137201248D01*
X256810448Y-137183096D01*
X256819522Y-137178809D01*
X256852620Y-137170256D01*
X256901120Y-137164155D01*
X256955305Y-137161708D01*
X256957839Y-137161703D01*
X257035790Y-137166555D01*
G36*
X257426644Y-137163020D02*
G01*
X257445461Y-137168660D01*
X257451527Y-137181053D01*
X257451782Y-137186647D01*
X257452871Y-137202230D01*
X257460368Y-137204676D01*
X257480619Y-137193993D01*
X257492649Y-137186694D01*
X257530600Y-137171063D01*
X257575928Y-137163334D01*
X257623456Y-137162740D01*
X257668005Y-137168513D01*
X257704398Y-137179884D01*
X257727457Y-137196088D01*
X257732004Y-137216355D01*
X257729709Y-137221843D01*
X257712980Y-137244626D01*
X257687037Y-137272647D01*
X257682345Y-137277177D01*
X257657617Y-137298005D01*
X257636282Y-137304735D01*
X257606445Y-137300038D01*
X257594492Y-137296917D01*
X257557295Y-137289421D01*
X257531141Y-137292792D01*
X257509054Y-137304681D01*
X257488822Y-137320635D01*
X257473921Y-137340700D01*
X257463566Y-137368702D01*
X257456971Y-137408467D01*
X257453351Y-137463823D01*
X257451922Y-137538594D01*
X257451782Y-137583740D01*
X257451782Y-137777822D01*
X257326040Y-137777822D01*
X257326040Y-137161683D01*
X257388911Y-137161683D01*
X257426644Y-137163020D01*
G37*
X257426644Y-137163020D02*
X257445461Y-137168660D01*
X257451527Y-137181053D01*
X257451782Y-137186647D01*
X257452871Y-137202230D01*
X257460368Y-137204676D01*
X257480619Y-137193993D01*
X257492649Y-137186694D01*
X257530600Y-137171063D01*
X257575928Y-137163334D01*
X257623456Y-137162740D01*
X257668005Y-137168513D01*
X257704398Y-137179884D01*
X257727457Y-137196088D01*
X257732004Y-137216355D01*
X257729709Y-137221843D01*
X257712980Y-137244626D01*
X257687037Y-137272647D01*
X257682345Y-137277177D01*
X257657617Y-137298005D01*
X257636282Y-137304735D01*
X257606445Y-137300038D01*
X257594492Y-137296917D01*
X257557295Y-137289421D01*
X257531141Y-137292792D01*
X257509054Y-137304681D01*
X257488822Y-137320635D01*
X257473921Y-137340700D01*
X257463566Y-137368702D01*
X257456971Y-137408467D01*
X257453351Y-137463823D01*
X257451922Y-137538594D01*
X257451782Y-137583740D01*
X257451782Y-137777822D01*
X257326040Y-137777822D01*
X257326040Y-137161683D01*
X257388911Y-137161683D01*
X257426644Y-137163020D01*
G36*
X258218812Y-137777822D02*
G01*
X258149654Y-137777822D01*
X258109512Y-137776645D01*
X258088606Y-137771772D01*
X258081078Y-137761186D01*
X258080495Y-137754029D01*
X258079226Y-137739676D01*
X258071221Y-137736923D01*
X258050185Y-137745771D01*
X258033827Y-137754029D01*
X257971023Y-137773597D01*
X257902752Y-137774729D01*
X257847248Y-137760135D01*
X257795562Y-137724877D01*
X257756162Y-137672835D01*
X257734587Y-137611450D01*
X257734038Y-137608018D01*
X257730833Y-137570571D01*
X257729239Y-137516813D01*
X257729367Y-137476155D01*
X257866721Y-137476155D01*
X257869903Y-137530194D01*
X257877141Y-137574735D01*
X257886940Y-137599888D01*
X257924011Y-137634260D01*
X257968026Y-137646582D01*
X258013416Y-137636618D01*
X258052203Y-137606895D01*
X258066892Y-137586905D01*
X258075481Y-137563050D01*
X258079504Y-137528230D01*
X258080495Y-137475930D01*
X258078722Y-137424139D01*
X258074037Y-137378634D01*
X258067397Y-137348181D01*
X258066290Y-137345452D01*
X258039509Y-137313000D01*
X258000421Y-137295183D01*
X257956685Y-137292306D01*
X257915962Y-137304674D01*
X257885913Y-137332593D01*
X257882796Y-137338148D01*
X257873039Y-137372022D01*
X257867723Y-137420728D01*
X257866721Y-137476155D01*
X257729367Y-137476155D01*
X257729432Y-137455540D01*
X257730336Y-137422563D01*
X257736486Y-137340981D01*
X257749267Y-137279730D01*
X257770529Y-137234449D01*
X257802122Y-137200779D01*
X257832793Y-137181014D01*
X257875646Y-137167120D01*
X257928944Y-137162354D01*
X257983520Y-137166236D01*
X258030208Y-137178282D01*
X258054876Y-137192693D01*
X258080495Y-137215878D01*
X258080495Y-136922773D01*
X258218812Y-136922773D01*
X258218812Y-137777822D01*
G37*
X258218812Y-137777822D02*
X258149654Y-137777822D01*
X258109512Y-137776645D01*
X258088606Y-137771772D01*
X258081078Y-137761186D01*
X258080495Y-137754029D01*
X258079226Y-137739676D01*
X258071221Y-137736923D01*
X258050185Y-137745771D01*
X258033827Y-137754029D01*
X257971023Y-137773597D01*
X257902752Y-137774729D01*
X257847248Y-137760135D01*
X257795562Y-137724877D01*
X257756162Y-137672835D01*
X257734587Y-137611450D01*
X257734038Y-137608018D01*
X257730833Y-137570571D01*
X257729239Y-137516813D01*
X257729367Y-137476155D01*
X257866721Y-137476155D01*
X257869903Y-137530194D01*
X257877141Y-137574735D01*
X257886940Y-137599888D01*
X257924011Y-137634260D01*
X257968026Y-137646582D01*
X258013416Y-137636618D01*
X258052203Y-137606895D01*
X258066892Y-137586905D01*
X258075481Y-137563050D01*
X258079504Y-137528230D01*
X258080495Y-137475930D01*
X258078722Y-137424139D01*
X258074037Y-137378634D01*
X258067397Y-137348181D01*
X258066290Y-137345452D01*
X258039509Y-137313000D01*
X258000421Y-137295183D01*
X257956685Y-137292306D01*
X257915962Y-137304674D01*
X257885913Y-137332593D01*
X257882796Y-137338148D01*
X257873039Y-137372022D01*
X257867723Y-137420728D01*
X257866721Y-137476155D01*
X257729367Y-137476155D01*
X257729432Y-137455540D01*
X257730336Y-137422563D01*
X257736486Y-137340981D01*
X257749267Y-137279730D01*
X257770529Y-137234449D01*
X257802122Y-137200779D01*
X257832793Y-137181014D01*
X257875646Y-137167120D01*
X257928944Y-137162354D01*
X257983520Y-137166236D01*
X258030208Y-137178282D01*
X258054876Y-137192693D01*
X258080495Y-137215878D01*
X258080495Y-136922773D01*
X258218812Y-136922773D01*
X258218812Y-137777822D01*
G36*
X258701524Y-137164237D02*
G01*
X258751255Y-137167971D01*
X258881291Y-137557773D01*
X258901678Y-137488614D01*
X258913946Y-137445874D01*
X258930085Y-137388115D01*
X258947512Y-137324625D01*
X258956726Y-137290570D01*
X258991388Y-137161683D01*
X259134391Y-137161683D01*
X259091646Y-137296857D01*
X259070596Y-137363342D01*
X259045167Y-137443539D01*
X259018610Y-137527193D01*
X258994902Y-137601782D01*
X258940902Y-137771535D01*
X258882598Y-137775328D01*
X258824295Y-137779122D01*
X258792679Y-137674734D01*
X258773182Y-137609889D01*
X258751904Y-137538400D01*
X258733308Y-137475263D01*
X258732574Y-137472750D01*
X258718684Y-137429969D01*
X258706429Y-137400779D01*
X258697846Y-137389741D01*
X258696082Y-137391018D01*
X258689891Y-137408130D01*
X258678128Y-137444787D01*
X258662225Y-137496378D01*
X258643614Y-137558294D01*
X258633543Y-137592352D01*
X258579007Y-137777822D01*
X258463264Y-137777822D01*
X258370737Y-137485471D01*
X258344744Y-137403462D01*
X258321066Y-137328987D01*
X258300820Y-137265544D01*
X258285126Y-137216632D01*
X258275102Y-137185749D01*
X258272055Y-137176726D01*
X258274467Y-137167487D01*
X258293408Y-137163441D01*
X258332823Y-137163846D01*
X258338993Y-137164152D01*
X258412086Y-137167971D01*
X258459957Y-137344010D01*
X258477553Y-137408211D01*
X258493277Y-137464649D01*
X258505746Y-137508422D01*
X258513574Y-137534630D01*
X258515020Y-137538903D01*
X258521014Y-137533990D01*
X258533101Y-137508532D01*
X258549893Y-137465997D01*
X258570003Y-137409850D01*
X258587003Y-137359130D01*
X258651794Y-137160504D01*
X258701524Y-137164237D01*
G37*
X258701524Y-137164237D02*
X258751255Y-137167971D01*
X258881291Y-137557773D01*
X258901678Y-137488614D01*
X258913946Y-137445874D01*
X258930085Y-137388115D01*
X258947512Y-137324625D01*
X258956726Y-137290570D01*
X258991388Y-137161683D01*
X259134391Y-137161683D01*
X259091646Y-137296857D01*
X259070596Y-137363342D01*
X259045167Y-137443539D01*
X259018610Y-137527193D01*
X258994902Y-137601782D01*
X258940902Y-137771535D01*
X258882598Y-137775328D01*
X258824295Y-137779122D01*
X258792679Y-137674734D01*
X258773182Y-137609889D01*
X258751904Y-137538400D01*
X258733308Y-137475263D01*
X258732574Y-137472750D01*
X258718684Y-137429969D01*
X258706429Y-137400779D01*
X258697846Y-137389741D01*
X258696082Y-137391018D01*
X258689891Y-137408130D01*
X258678128Y-137444787D01*
X258662225Y-137496378D01*
X258643614Y-137558294D01*
X258633543Y-137592352D01*
X258579007Y-137777822D01*
X258463264Y-137777822D01*
X258370737Y-137485471D01*
X258344744Y-137403462D01*
X258321066Y-137328987D01*
X258300820Y-137265544D01*
X258285126Y-137216632D01*
X258275102Y-137185749D01*
X258272055Y-137176726D01*
X258274467Y-137167487D01*
X258293408Y-137163441D01*
X258332823Y-137163846D01*
X258338993Y-137164152D01*
X258412086Y-137167971D01*
X258459957Y-137344010D01*
X258477553Y-137408211D01*
X258493277Y-137464649D01*
X258505746Y-137508422D01*
X258513574Y-137534630D01*
X258515020Y-137538903D01*
X258521014Y-137533990D01*
X258533101Y-137508532D01*
X258549893Y-137465997D01*
X258570003Y-137409850D01*
X258587003Y-137359130D01*
X258651794Y-137160504D01*
X258701524Y-137164237D01*
G36*
X259458411Y-137165417D02*
G01*
X259511411Y-137178290D01*
X259526731Y-137185110D01*
X259556428Y-137202974D01*
X259579220Y-137223093D01*
X259596083Y-137248962D01*
X259607998Y-137284073D01*
X259615942Y-137331920D01*
X259620894Y-137395996D01*
X259623831Y-137479794D01*
X259624947Y-137535768D01*
X259629052Y-137777822D01*
X259558932Y-137777822D01*
X259516393Y-137776038D01*
X259494476Y-137769942D01*
X259488812Y-137759706D01*
X259485821Y-137748637D01*
X259472451Y-137750754D01*
X259454233Y-137759629D01*
X259408624Y-137773233D01*
X259350007Y-137776899D01*
X259288354Y-137770903D01*
X259233638Y-137755521D01*
X259228730Y-137753386D01*
X259178723Y-137718255D01*
X259145756Y-137669419D01*
X259130587Y-137612333D01*
X259131746Y-137591824D01*
X259255508Y-137591824D01*
X259266413Y-137619425D01*
X259298745Y-137639204D01*
X259350910Y-137649819D01*
X259378787Y-137651228D01*
X259425247Y-137647620D01*
X259456129Y-137633597D01*
X259463664Y-137626931D01*
X259484076Y-137590666D01*
X259488812Y-137557773D01*
X259488812Y-137513763D01*
X259427513Y-137513763D01*
X259356256Y-137517395D01*
X259306276Y-137528818D01*
X259274696Y-137548824D01*
X259267626Y-137557743D01*
X259255508Y-137591824D01*
X259131746Y-137591824D01*
X259133971Y-137552456D01*
X259156663Y-137495244D01*
X259187624Y-137456580D01*
X259206376Y-137439864D01*
X259224733Y-137428878D01*
X259248619Y-137422180D01*
X259283957Y-137418326D01*
X259336669Y-137415873D01*
X259357577Y-137415168D01*
X259488812Y-137410879D01*
X259488620Y-137371158D01*
X259483537Y-137329405D01*
X259465162Y-137304158D01*
X259428039Y-137288030D01*
X259427043Y-137287742D01*
X259374410Y-137281400D01*
X259322906Y-137289684D01*
X259284630Y-137309827D01*
X259269272Y-137319773D01*
X259252730Y-137318397D01*
X259227275Y-137303987D01*
X259212328Y-137293817D01*
X259183091Y-137272088D01*
X259164980Y-137255800D01*
X259162074Y-137251137D01*
X259174040Y-137227005D01*
X259209396Y-137198185D01*
X259224753Y-137188461D01*
X259268901Y-137171714D01*
X259328398Y-137162227D01*
X259394487Y-137160095D01*
X259458411Y-137165417D01*
G37*
X259458411Y-137165417D02*
X259511411Y-137178290D01*
X259526731Y-137185110D01*
X259556428Y-137202974D01*
X259579220Y-137223093D01*
X259596083Y-137248962D01*
X259607998Y-137284073D01*
X259615942Y-137331920D01*
X259620894Y-137395996D01*
X259623831Y-137479794D01*
X259624947Y-137535768D01*
X259629052Y-137777822D01*
X259558932Y-137777822D01*
X259516393Y-137776038D01*
X259494476Y-137769942D01*
X259488812Y-137759706D01*
X259485821Y-137748637D01*
X259472451Y-137750754D01*
X259454233Y-137759629D01*
X259408624Y-137773233D01*
X259350007Y-137776899D01*
X259288354Y-137770903D01*
X259233638Y-137755521D01*
X259228730Y-137753386D01*
X259178723Y-137718255D01*
X259145756Y-137669419D01*
X259130587Y-137612333D01*
X259131746Y-137591824D01*
X259255508Y-137591824D01*
X259266413Y-137619425D01*
X259298745Y-137639204D01*
X259350910Y-137649819D01*
X259378787Y-137651228D01*
X259425247Y-137647620D01*
X259456129Y-137633597D01*
X259463664Y-137626931D01*
X259484076Y-137590666D01*
X259488812Y-137557773D01*
X259488812Y-137513763D01*
X259427513Y-137513763D01*
X259356256Y-137517395D01*
X259306276Y-137528818D01*
X259274696Y-137548824D01*
X259267626Y-137557743D01*
X259255508Y-137591824D01*
X259131746Y-137591824D01*
X259133971Y-137552456D01*
X259156663Y-137495244D01*
X259187624Y-137456580D01*
X259206376Y-137439864D01*
X259224733Y-137428878D01*
X259248619Y-137422180D01*
X259283957Y-137418326D01*
X259336669Y-137415873D01*
X259357577Y-137415168D01*
X259488812Y-137410879D01*
X259488620Y-137371158D01*
X259483537Y-137329405D01*
X259465162Y-137304158D01*
X259428039Y-137288030D01*
X259427043Y-137287742D01*
X259374410Y-137281400D01*
X259322906Y-137289684D01*
X259284630Y-137309827D01*
X259269272Y-137319773D01*
X259252730Y-137318397D01*
X259227275Y-137303987D01*
X259212328Y-137293817D01*
X259183091Y-137272088D01*
X259164980Y-137255800D01*
X259162074Y-137251137D01*
X259174040Y-137227005D01*
X259209396Y-137198185D01*
X259224753Y-137188461D01*
X259268901Y-137171714D01*
X259328398Y-137162227D01*
X259394487Y-137160095D01*
X259458411Y-137165417D01*
G36*
X260055255Y-137161486D02*
G01*
X260103595Y-137171015D01*
X260131114Y-137185125D01*
X260160064Y-137208568D01*
X260118876Y-137260571D01*
X260093482Y-137292064D01*
X260076238Y-137307428D01*
X260059102Y-137309776D01*
X260034027Y-137302217D01*
X260022257Y-137297941D01*
X259974270Y-137291631D01*
X259930324Y-137305156D01*
X259898060Y-137335710D01*
X259892819Y-137345452D01*
X259887112Y-137371258D01*
X259882706Y-137418817D01*
X259879811Y-137484758D01*
X259878631Y-137565710D01*
X259878614Y-137577226D01*
X259878614Y-137777822D01*
X259740297Y-137777822D01*
X259740297Y-137161683D01*
X259809456Y-137161683D01*
X259849333Y-137162725D01*
X259870107Y-137167358D01*
X259877789Y-137177849D01*
X259878614Y-137187745D01*
X259878614Y-137213806D01*
X259911745Y-137187745D01*
X259949735Y-137169965D01*
X260000770Y-137161174D01*
X260055255Y-137161486D01*
G37*
X260055255Y-137161486D02*
X260103595Y-137171015D01*
X260131114Y-137185125D01*
X260160064Y-137208568D01*
X260118876Y-137260571D01*
X260093482Y-137292064D01*
X260076238Y-137307428D01*
X260059102Y-137309776D01*
X260034027Y-137302217D01*
X260022257Y-137297941D01*
X259974270Y-137291631D01*
X259930324Y-137305156D01*
X259898060Y-137335710D01*
X259892819Y-137345452D01*
X259887112Y-137371258D01*
X259882706Y-137418817D01*
X259879811Y-137484758D01*
X259878631Y-137565710D01*
X259878614Y-137577226D01*
X259878614Y-137777822D01*
X259740297Y-137777822D01*
X259740297Y-137161683D01*
X259809456Y-137161683D01*
X259849333Y-137162725D01*
X259870107Y-137167358D01*
X259877789Y-137177849D01*
X259878614Y-137187745D01*
X259878614Y-137213806D01*
X259911745Y-137187745D01*
X259949735Y-137169965D01*
X260000770Y-137161174D01*
X260055255Y-137161486D01*
G36*
X260452581Y-137164970D02*
G01*
X260512685Y-137180597D01*
X260563021Y-137212848D01*
X260587393Y-137236940D01*
X260627345Y-137293895D01*
X260650242Y-137359965D01*
X260658108Y-137441182D01*
X260658148Y-137447748D01*
X260658218Y-137513763D01*
X260278264Y-137513763D01*
X260286363Y-137548342D01*
X260300987Y-137579659D01*
X260326581Y-137612291D01*
X260331935Y-137617500D01*
X260377943Y-137645694D01*
X260430410Y-137650475D01*
X260490803Y-137631926D01*
X260501040Y-137626931D01*
X260532439Y-137611745D01*
X260553470Y-137603094D01*
X260557139Y-137602293D01*
X260569948Y-137610063D01*
X260594378Y-137629072D01*
X260606779Y-137639460D01*
X260632476Y-137663321D01*
X260640915Y-137679077D01*
X260635058Y-137693571D01*
X260631928Y-137697534D01*
X260610725Y-137714879D01*
X260575738Y-137735959D01*
X260551337Y-137748265D01*
X260482072Y-137769946D01*
X260405388Y-137776971D01*
X260332765Y-137768647D01*
X260312426Y-137762686D01*
X260249476Y-137728952D01*
X260202815Y-137677045D01*
X260172173Y-137606459D01*
X260157282Y-137516692D01*
X260155647Y-137469753D01*
X260160421Y-137401413D01*
X260280990Y-137401413D01*
X260292652Y-137406465D01*
X260323998Y-137410429D01*
X260369571Y-137412768D01*
X260400446Y-137413169D01*
X260455981Y-137412783D01*
X260491033Y-137410975D01*
X260510262Y-137406773D01*
X260518330Y-137399203D01*
X260519901Y-137388218D01*
X260509121Y-137354381D01*
X260481980Y-137320940D01*
X260446277Y-137295272D01*
X260410560Y-137284772D01*
X260362048Y-137294086D01*
X260320053Y-137321013D01*
X260290936Y-137359827D01*
X260280990Y-137401413D01*
X260160421Y-137401413D01*
X260162599Y-137370236D01*
X260184055Y-137290949D01*
X260220470Y-137231263D01*
X260272297Y-137190549D01*
X260339990Y-137168179D01*
X260376662Y-137163871D01*
X260452581Y-137164970D01*
G37*
X260452581Y-137164970D02*
X260512685Y-137180597D01*
X260563021Y-137212848D01*
X260587393Y-137236940D01*
X260627345Y-137293895D01*
X260650242Y-137359965D01*
X260658108Y-137441182D01*
X260658148Y-137447748D01*
X260658218Y-137513763D01*
X260278264Y-137513763D01*
X260286363Y-137548342D01*
X260300987Y-137579659D01*
X260326581Y-137612291D01*
X260331935Y-137617500D01*
X260377943Y-137645694D01*
X260430410Y-137650475D01*
X260490803Y-137631926D01*
X260501040Y-137626931D01*
X260532439Y-137611745D01*
X260553470Y-137603094D01*
X260557139Y-137602293D01*
X260569948Y-137610063D01*
X260594378Y-137629072D01*
X260606779Y-137639460D01*
X260632476Y-137663321D01*
X260640915Y-137679077D01*
X260635058Y-137693571D01*
X260631928Y-137697534D01*
X260610725Y-137714879D01*
X260575738Y-137735959D01*
X260551337Y-137748265D01*
X260482072Y-137769946D01*
X260405388Y-137776971D01*
X260332765Y-137768647D01*
X260312426Y-137762686D01*
X260249476Y-137728952D01*
X260202815Y-137677045D01*
X260172173Y-137606459D01*
X260157282Y-137516692D01*
X260155647Y-137469753D01*
X260160421Y-137401413D01*
X260280990Y-137401413D01*
X260292652Y-137406465D01*
X260323998Y-137410429D01*
X260369571Y-137412768D01*
X260400446Y-137413169D01*
X260455981Y-137412783D01*
X260491033Y-137410975D01*
X260510262Y-137406773D01*
X260518330Y-137399203D01*
X260519901Y-137388218D01*
X260509121Y-137354381D01*
X260481980Y-137320940D01*
X260446277Y-137295272D01*
X260410560Y-137284772D01*
X260362048Y-137294086D01*
X260320053Y-137321013D01*
X260290936Y-137359827D01*
X260280990Y-137401413D01*
X260160421Y-137401413D01*
X260162599Y-137370236D01*
X260184055Y-137290949D01*
X260220470Y-137231263D01*
X260272297Y-137190549D01*
X260339990Y-137168179D01*
X260376662Y-137163871D01*
X260452581Y-137164970D01*
G36*
X255881739Y-136225148D02*
G01*
X255947521Y-136254231D01*
X255997460Y-136302793D01*
X256031626Y-136370908D01*
X256050093Y-136458651D01*
X256051417Y-136472351D01*
X256052454Y-136568939D01*
X256039007Y-136653602D01*
X256011892Y-136722221D01*
X255997373Y-136744294D01*
X255946799Y-136791011D01*
X255882391Y-136821268D01*
X255810334Y-136833824D01*
X255736815Y-136827439D01*
X255680928Y-136807772D01*
X255632868Y-136774629D01*
X255593588Y-136731175D01*
X255592908Y-136730158D01*
X255576956Y-136703338D01*
X255566590Y-136676368D01*
X255560312Y-136642332D01*
X255556627Y-136594310D01*
X255555003Y-136554931D01*
X255554328Y-136519219D01*
X255680045Y-136519219D01*
X255681274Y-136554770D01*
X255685734Y-136602094D01*
X255693603Y-136632465D01*
X255707793Y-136654072D01*
X255721083Y-136666694D01*
X255768198Y-136693122D01*
X255817495Y-136696653D01*
X255863407Y-136677639D01*
X255886362Y-136656331D01*
X255902904Y-136634859D01*
X255912579Y-136614313D01*
X255916826Y-136587574D01*
X255917080Y-136547523D01*
X255915772Y-136510638D01*
X255912957Y-136457947D01*
X255908495Y-136423772D01*
X255900452Y-136401480D01*
X255886897Y-136384442D01*
X255876155Y-136374703D01*
X255831223Y-136349123D01*
X255782751Y-136347847D01*
X255742106Y-136362999D01*
X255707433Y-136394642D01*
X255686776Y-136446620D01*
X255680045Y-136519219D01*
X255554328Y-136519219D01*
X255553521Y-136476621D01*
X255556052Y-136418056D01*
X255563638Y-136374007D01*
X255577319Y-136339248D01*
X255598135Y-136308551D01*
X255605853Y-136299436D01*
X255654111Y-136254021D01*
X255705872Y-136227493D01*
X255769172Y-136216379D01*
X255800039Y-136215471D01*
X255881739Y-136225148D01*
G37*
X255881739Y-136225148D02*
X255947521Y-136254231D01*
X255997460Y-136302793D01*
X256031626Y-136370908D01*
X256050093Y-136458651D01*
X256051417Y-136472351D01*
X256052454Y-136568939D01*
X256039007Y-136653602D01*
X256011892Y-136722221D01*
X255997373Y-136744294D01*
X255946799Y-136791011D01*
X255882391Y-136821268D01*
X255810334Y-136833824D01*
X255736815Y-136827439D01*
X255680928Y-136807772D01*
X255632868Y-136774629D01*
X255593588Y-136731175D01*
X255592908Y-136730158D01*
X255576956Y-136703338D01*
X255566590Y-136676368D01*
X255560312Y-136642332D01*
X255556627Y-136594310D01*
X255555003Y-136554931D01*
X255554328Y-136519219D01*
X255680045Y-136519219D01*
X255681274Y-136554770D01*
X255685734Y-136602094D01*
X255693603Y-136632465D01*
X255707793Y-136654072D01*
X255721083Y-136666694D01*
X255768198Y-136693122D01*
X255817495Y-136696653D01*
X255863407Y-136677639D01*
X255886362Y-136656331D01*
X255902904Y-136634859D01*
X255912579Y-136614313D01*
X255916826Y-136587574D01*
X255917080Y-136547523D01*
X255915772Y-136510638D01*
X255912957Y-136457947D01*
X255908495Y-136423772D01*
X255900452Y-136401480D01*
X255886897Y-136384442D01*
X255876155Y-136374703D01*
X255831223Y-136349123D01*
X255782751Y-136347847D01*
X255742106Y-136362999D01*
X255707433Y-136394642D01*
X255686776Y-136446620D01*
X255680045Y-136519219D01*
X255554328Y-136519219D01*
X255553521Y-136476621D01*
X255556052Y-136418056D01*
X255563638Y-136374007D01*
X255577319Y-136339248D01*
X255598135Y-136308551D01*
X255605853Y-136299436D01*
X255654111Y-136254021D01*
X255705872Y-136227493D01*
X255769172Y-136216379D01*
X255800039Y-136215471D01*
X255881739Y-136225148D01*
G36*
X257063301Y-136232614D02*
G01*
X257075832Y-136238514D01*
X257119201Y-136270283D01*
X257160210Y-136316646D01*
X257190832Y-136367696D01*
X257199541Y-136391166D01*
X257207488Y-136433091D01*
X257212226Y-136483757D01*
X257212801Y-136504679D01*
X257212871Y-136570693D01*
X256832917Y-136570693D01*
X256841017Y-136605273D01*
X256860896Y-136646170D01*
X256895653Y-136681514D01*
X256937002Y-136704282D01*
X256963351Y-136709010D01*
X256999084Y-136703273D01*
X257041718Y-136688882D01*
X257056201Y-136682262D01*
X257109760Y-136655513D01*
X257155467Y-136690376D01*
X257181842Y-136713955D01*
X257195876Y-136733417D01*
X257196586Y-136739129D01*
X257184049Y-136752973D01*
X257156572Y-136774012D01*
X257131634Y-136790425D01*
X257064336Y-136819930D01*
X256988890Y-136833284D01*
X256914112Y-136829812D01*
X256854505Y-136811663D01*
X256793059Y-136772784D01*
X256749392Y-136721595D01*
X256722074Y-136655367D01*
X256709678Y-136571371D01*
X256708579Y-136532936D01*
X256712978Y-136444861D01*
X256713518Y-136442299D01*
X256839418Y-136442299D01*
X256842885Y-136450558D01*
X256857137Y-136455113D01*
X256886530Y-136457065D01*
X256935425Y-136457517D01*
X256954252Y-136457525D01*
X257011533Y-136456843D01*
X257047859Y-136454364D01*
X257067396Y-136449443D01*
X257074310Y-136441434D01*
X257074555Y-136438862D01*
X257066664Y-136418423D01*
X257046915Y-136389789D01*
X257038425Y-136379763D01*
X257006906Y-136351408D01*
X256974051Y-136340259D01*
X256956349Y-136339327D01*
X256908461Y-136350981D01*
X256868301Y-136382285D01*
X256842827Y-136427752D01*
X256842375Y-136429233D01*
X256839418Y-136442299D01*
X256713518Y-136442299D01*
X256727608Y-136375510D01*
X256753962Y-136320025D01*
X256786193Y-136280639D01*
X256845783Y-136237931D01*
X256915832Y-136215109D01*
X256990339Y-136213046D01*
X257063301Y-136232614D01*
G37*
X257063301Y-136232614D02*
X257075832Y-136238514D01*
X257119201Y-136270283D01*
X257160210Y-136316646D01*
X257190832Y-136367696D01*
X257199541Y-136391166D01*
X257207488Y-136433091D01*
X257212226Y-136483757D01*
X257212801Y-136504679D01*
X257212871Y-136570693D01*
X256832917Y-136570693D01*
X256841017Y-136605273D01*
X256860896Y-136646170D01*
X256895653Y-136681514D01*
X256937002Y-136704282D01*
X256963351Y-136709010D01*
X256999084Y-136703273D01*
X257041718Y-136688882D01*
X257056201Y-136682262D01*
X257109760Y-136655513D01*
X257155467Y-136690376D01*
X257181842Y-136713955D01*
X257195876Y-136733417D01*
X257196586Y-136739129D01*
X257184049Y-136752973D01*
X257156572Y-136774012D01*
X257131634Y-136790425D01*
X257064336Y-136819930D01*
X256988890Y-136833284D01*
X256914112Y-136829812D01*
X256854505Y-136811663D01*
X256793059Y-136772784D01*
X256749392Y-136721595D01*
X256722074Y-136655367D01*
X256709678Y-136571371D01*
X256708579Y-136532936D01*
X256712978Y-136444861D01*
X256713518Y-136442299D01*
X256839418Y-136442299D01*
X256842885Y-136450558D01*
X256857137Y-136455113D01*
X256886530Y-136457065D01*
X256935425Y-136457517D01*
X256954252Y-136457525D01*
X257011533Y-136456843D01*
X257047859Y-136454364D01*
X257067396Y-136449443D01*
X257074310Y-136441434D01*
X257074555Y-136438862D01*
X257066664Y-136418423D01*
X257046915Y-136389789D01*
X257038425Y-136379763D01*
X257006906Y-136351408D01*
X256974051Y-136340259D01*
X256956349Y-136339327D01*
X256908461Y-136350981D01*
X256868301Y-136382285D01*
X256842827Y-136427752D01*
X256842375Y-136429233D01*
X256839418Y-136442299D01*
X256713518Y-136442299D01*
X256727608Y-136375510D01*
X256753962Y-136320025D01*
X256786193Y-136280639D01*
X256845783Y-136237931D01*
X256915832Y-136215109D01*
X256990339Y-136213046D01*
X257063301Y-136232614D01*
G36*
X258434017Y-136216452D02*
G01*
X258481634Y-136225482D01*
X258531034Y-136244370D01*
X258536312Y-136246777D01*
X258573774Y-136266476D01*
X258599717Y-136284781D01*
X258608103Y-136296508D01*
X258600117Y-136315632D01*
X258580720Y-136343850D01*
X258572110Y-136354384D01*
X258536628Y-136395847D01*
X258490885Y-136368858D01*
X258447350Y-136350878D01*
X258397050Y-136341267D01*
X258348812Y-136340660D01*
X258311467Y-136349691D01*
X258302505Y-136355327D01*
X258285437Y-136381171D01*
X258283363Y-136410941D01*
X258296134Y-136434197D01*
X258303688Y-136438708D01*
X258326325Y-136444309D01*
X258366115Y-136450892D01*
X258415166Y-136457183D01*
X258424215Y-136458170D01*
X258502996Y-136471798D01*
X258560136Y-136494946D01*
X258598030Y-136529752D01*
X258619079Y-136578354D01*
X258625635Y-136637718D01*
X258616577Y-136705198D01*
X258587164Y-136758188D01*
X258537278Y-136796783D01*
X258466800Y-136821081D01*
X258388565Y-136830667D01*
X258324766Y-136830552D01*
X258273016Y-136821845D01*
X258237673Y-136809825D01*
X258193017Y-136788880D01*
X258151747Y-136764574D01*
X258137079Y-136753876D01*
X258099357Y-136723084D01*
X258144852Y-136677049D01*
X258190347Y-136631013D01*
X258242072Y-136665243D01*
X258293952Y-136690952D01*
X258349351Y-136704399D01*
X258402605Y-136705818D01*
X258448049Y-136695443D01*
X258480016Y-136673507D01*
X258490338Y-136654998D01*
X258488789Y-136625314D01*
X258463140Y-136602615D01*
X258413460Y-136586940D01*
X258359031Y-136579695D01*
X258275264Y-136565873D01*
X258213033Y-136539796D01*
X258171507Y-136500699D01*
X258149853Y-136447820D01*
X258146853Y-136385126D01*
X258161671Y-136319642D01*
X258195454Y-136270144D01*
X258248505Y-136236408D01*
X258321126Y-136218207D01*
X258374928Y-136214639D01*
X258434017Y-136216452D01*
G37*
X258434017Y-136216452D02*
X258481634Y-136225482D01*
X258531034Y-136244370D01*
X258536312Y-136246777D01*
X258573774Y-136266476D01*
X258599717Y-136284781D01*
X258608103Y-136296508D01*
X258600117Y-136315632D01*
X258580720Y-136343850D01*
X258572110Y-136354384D01*
X258536628Y-136395847D01*
X258490885Y-136368858D01*
X258447350Y-136350878D01*
X258397050Y-136341267D01*
X258348812Y-136340660D01*
X258311467Y-136349691D01*
X258302505Y-136355327D01*
X258285437Y-136381171D01*
X258283363Y-136410941D01*
X258296134Y-136434197D01*
X258303688Y-136438708D01*
X258326325Y-136444309D01*
X258366115Y-136450892D01*
X258415166Y-136457183D01*
X258424215Y-136458170D01*
X258502996Y-136471798D01*
X258560136Y-136494946D01*
X258598030Y-136529752D01*
X258619079Y-136578354D01*
X258625635Y-136637718D01*
X258616577Y-136705198D01*
X258587164Y-136758188D01*
X258537278Y-136796783D01*
X258466800Y-136821081D01*
X258388565Y-136830667D01*
X258324766Y-136830552D01*
X258273016Y-136821845D01*
X258237673Y-136809825D01*
X258193017Y-136788880D01*
X258151747Y-136764574D01*
X258137079Y-136753876D01*
X258099357Y-136723084D01*
X258144852Y-136677049D01*
X258190347Y-136631013D01*
X258242072Y-136665243D01*
X258293952Y-136690952D01*
X258349351Y-136704399D01*
X258402605Y-136705818D01*
X258448049Y-136695443D01*
X258480016Y-136673507D01*
X258490338Y-136654998D01*
X258488789Y-136625314D01*
X258463140Y-136602615D01*
X258413460Y-136586940D01*
X258359031Y-136579695D01*
X258275264Y-136565873D01*
X258213033Y-136539796D01*
X258171507Y-136500699D01*
X258149853Y-136447820D01*
X258146853Y-136385126D01*
X258161671Y-136319642D01*
X258195454Y-136270144D01*
X258248505Y-136236408D01*
X258321126Y-136218207D01*
X258374928Y-136214639D01*
X258434017Y-136216452D01*
G36*
X259030762Y-136226055D02*
G01*
X259094363Y-136260692D01*
X259144123Y-136315372D01*
X259167568Y-136359842D01*
X259177634Y-136399121D01*
X259184156Y-136455116D01*
X259186951Y-136519621D01*
X259185836Y-136584429D01*
X259180626Y-136641334D01*
X259174541Y-136671727D01*
X259154014Y-136713306D01*
X259118463Y-136757468D01*
X259075619Y-136796087D01*
X259033211Y-136821034D01*
X259032177Y-136821430D01*
X258979553Y-136832331D01*
X258917188Y-136832601D01*
X258857924Y-136822676D01*
X258835040Y-136814722D01*
X258776102Y-136781300D01*
X258733890Y-136737511D01*
X258706156Y-136679538D01*
X258690651Y-136603565D01*
X258687143Y-136563771D01*
X258687590Y-136513766D01*
X258822376Y-136513766D01*
X258826917Y-136586732D01*
X258839986Y-136642334D01*
X258860756Y-136677861D01*
X258875552Y-136688020D01*
X258913464Y-136695104D01*
X258958527Y-136693007D01*
X258997487Y-136682812D01*
X259007704Y-136677204D01*
X259034659Y-136644538D01*
X259052451Y-136594545D01*
X259060024Y-136533705D01*
X259056325Y-136468497D01*
X259048057Y-136429253D01*
X259024320Y-136383805D01*
X258986849Y-136355396D01*
X258941720Y-136345573D01*
X258895011Y-136355887D01*
X258859132Y-136381112D01*
X258840277Y-136401925D01*
X258829272Y-136422439D01*
X258824026Y-136450203D01*
X258822449Y-136492762D01*
X258822376Y-136513766D01*
X258687590Y-136513766D01*
X258688094Y-136457580D01*
X258705388Y-136370501D01*
X258739029Y-136302530D01*
X258789018Y-136253664D01*
X258855356Y-136223899D01*
X258869601Y-136220448D01*
X258955210Y-136212345D01*
X259030762Y-136226055D01*
G37*
X259030762Y-136226055D02*
X259094363Y-136260692D01*
X259144123Y-136315372D01*
X259167568Y-136359842D01*
X259177634Y-136399121D01*
X259184156Y-136455116D01*
X259186951Y-136519621D01*
X259185836Y-136584429D01*
X259180626Y-136641334D01*
X259174541Y-136671727D01*
X259154014Y-136713306D01*
X259118463Y-136757468D01*
X259075619Y-136796087D01*
X259033211Y-136821034D01*
X259032177Y-136821430D01*
X258979553Y-136832331D01*
X258917188Y-136832601D01*
X258857924Y-136822676D01*
X258835040Y-136814722D01*
X258776102Y-136781300D01*
X258733890Y-136737511D01*
X258706156Y-136679538D01*
X258690651Y-136603565D01*
X258687143Y-136563771D01*
X258687590Y-136513766D01*
X258822376Y-136513766D01*
X258826917Y-136586732D01*
X258839986Y-136642334D01*
X258860756Y-136677861D01*
X258875552Y-136688020D01*
X258913464Y-136695104D01*
X258958527Y-136693007D01*
X258997487Y-136682812D01*
X259007704Y-136677204D01*
X259034659Y-136644538D01*
X259052451Y-136594545D01*
X259060024Y-136533705D01*
X259056325Y-136468497D01*
X259048057Y-136429253D01*
X259024320Y-136383805D01*
X258986849Y-136355396D01*
X258941720Y-136345573D01*
X258895011Y-136355887D01*
X258859132Y-136381112D01*
X258840277Y-136401925D01*
X258829272Y-136422439D01*
X258824026Y-136450203D01*
X258822449Y-136492762D01*
X258822376Y-136513766D01*
X258687590Y-136513766D01*
X258688094Y-136457580D01*
X258705388Y-136370501D01*
X258739029Y-136302530D01*
X258789018Y-136253664D01*
X258855356Y-136223899D01*
X258869601Y-136220448D01*
X258955210Y-136212345D01*
X259030762Y-136226055D01*
G36*
X259413367Y-136414342D02*
G01*
X259414555Y-136506563D01*
X259418897Y-136576610D01*
X259427558Y-136627381D01*
X259441704Y-136661772D01*
X259462500Y-136682679D01*
X259491110Y-136693000D01*
X259526535Y-136695636D01*
X259563636Y-136692682D01*
X259591818Y-136681889D01*
X259612243Y-136660360D01*
X259626079Y-136625199D01*
X259634491Y-136573510D01*
X259638643Y-136502394D01*
X259639703Y-136414342D01*
X259639703Y-136218614D01*
X259778020Y-136218614D01*
X259778020Y-136822179D01*
X259708862Y-136822179D01*
X259667170Y-136820489D01*
X259645701Y-136814556D01*
X259639703Y-136803293D01*
X259636091Y-136793261D01*
X259621714Y-136795383D01*
X259592736Y-136809580D01*
X259526319Y-136831480D01*
X259455875Y-136829928D01*
X259388377Y-136806147D01*
X259356233Y-136787362D01*
X259331715Y-136767022D01*
X259313804Y-136741573D01*
X259301479Y-136707458D01*
X259293723Y-136661121D01*
X259289516Y-136599007D01*
X259287840Y-136517561D01*
X259287624Y-136454578D01*
X259287624Y-136218614D01*
X259413367Y-136218614D01*
X259413367Y-136414342D01*
G37*
X259413367Y-136414342D02*
X259414555Y-136506563D01*
X259418897Y-136576610D01*
X259427558Y-136627381D01*
X259441704Y-136661772D01*
X259462500Y-136682679D01*
X259491110Y-136693000D01*
X259526535Y-136695636D01*
X259563636Y-136692682D01*
X259591818Y-136681889D01*
X259612243Y-136660360D01*
X259626079Y-136625199D01*
X259634491Y-136573510D01*
X259638643Y-136502394D01*
X259639703Y-136414342D01*
X259639703Y-136218614D01*
X259778020Y-136218614D01*
X259778020Y-136822179D01*
X259708862Y-136822179D01*
X259667170Y-136820489D01*
X259645701Y-136814556D01*
X259639703Y-136803293D01*
X259636091Y-136793261D01*
X259621714Y-136795383D01*
X259592736Y-136809580D01*
X259526319Y-136831480D01*
X259455875Y-136829928D01*
X259388377Y-136806147D01*
X259356233Y-136787362D01*
X259331715Y-136767022D01*
X259313804Y-136741573D01*
X259301479Y-136707458D01*
X259293723Y-136661121D01*
X259289516Y-136599007D01*
X259287840Y-136517561D01*
X259287624Y-136454578D01*
X259287624Y-136218614D01*
X259413367Y-136218614D01*
X259413367Y-136414342D01*
G36*
X260637226Y-136223880D02*
G01*
X260710080Y-136254830D01*
X260733027Y-136269895D01*
X260762354Y-136293048D01*
X260780764Y-136311253D01*
X260783961Y-136317183D01*
X260774935Y-136330340D01*
X260751837Y-136352667D01*
X260733344Y-136368250D01*
X260682728Y-136408926D01*
X260642760Y-136375295D01*
X260611874Y-136353584D01*
X260581759Y-136346090D01*
X260547292Y-136347920D01*
X260492561Y-136361528D01*
X260454886Y-136389772D01*
X260431991Y-136435433D01*
X260421597Y-136501289D01*
X260421595Y-136501331D01*
X260422494Y-136574939D01*
X260436463Y-136628946D01*
X260464328Y-136665716D01*
X260483325Y-136678168D01*
X260533776Y-136693673D01*
X260587663Y-136693683D01*
X260634546Y-136678638D01*
X260645644Y-136671287D01*
X260673476Y-136652511D01*
X260695236Y-136649434D01*
X260718704Y-136663409D01*
X260744649Y-136688510D01*
X260785716Y-136730880D01*
X260740121Y-136768464D01*
X260669674Y-136810882D01*
X260590233Y-136831785D01*
X260507215Y-136830272D01*
X260452694Y-136816411D01*
X260388970Y-136782135D01*
X260338005Y-136728212D01*
X260314851Y-136690149D01*
X260296099Y-136635536D01*
X260286715Y-136566369D01*
X260286643Y-136491407D01*
X260295824Y-136419409D01*
X260314199Y-136359137D01*
X260317093Y-136352958D01*
X260359952Y-136292351D01*
X260417979Y-136248224D01*
X260486591Y-136221493D01*
X260561201Y-136213073D01*
X260637226Y-136223880D01*
G37*
X260637226Y-136223880D02*
X260710080Y-136254830D01*
X260733027Y-136269895D01*
X260762354Y-136293048D01*
X260780764Y-136311253D01*
X260783961Y-136317183D01*
X260774935Y-136330340D01*
X260751837Y-136352667D01*
X260733344Y-136368250D01*
X260682728Y-136408926D01*
X260642760Y-136375295D01*
X260611874Y-136353584D01*
X260581759Y-136346090D01*
X260547292Y-136347920D01*
X260492561Y-136361528D01*
X260454886Y-136389772D01*
X260431991Y-136435433D01*
X260421597Y-136501289D01*
X260421595Y-136501331D01*
X260422494Y-136574939D01*
X260436463Y-136628946D01*
X260464328Y-136665716D01*
X260483325Y-136678168D01*
X260533776Y-136693673D01*
X260587663Y-136693683D01*
X260634546Y-136678638D01*
X260645644Y-136671287D01*
X260673476Y-136652511D01*
X260695236Y-136649434D01*
X260718704Y-136663409D01*
X260744649Y-136688510D01*
X260785716Y-136730880D01*
X260740121Y-136768464D01*
X260669674Y-136810882D01*
X260590233Y-136831785D01*
X260507215Y-136830272D01*
X260452694Y-136816411D01*
X260388970Y-136782135D01*
X260338005Y-136728212D01*
X260314851Y-136690149D01*
X260296099Y-136635536D01*
X260286715Y-136566369D01*
X260286643Y-136491407D01*
X260295824Y-136419409D01*
X260314199Y-136359137D01*
X260317093Y-136352958D01*
X260359952Y-136292351D01*
X260417979Y-136248224D01*
X260486591Y-136221493D01*
X260561201Y-136213073D01*
X260637226Y-136223880D01*
G36*
X261097898Y-136216457D02*
G01*
X261130096Y-136224279D01*
X261191825Y-136252921D01*
X261244610Y-136296667D01*
X261281141Y-136349117D01*
X261286160Y-136360893D01*
X261293045Y-136391740D01*
X261297864Y-136437371D01*
X261299505Y-136483492D01*
X261299505Y-136570693D01*
X261117178Y-136570693D01*
X261041979Y-136570978D01*
X260989003Y-136572704D01*
X260955325Y-136577181D01*
X260938020Y-136585720D01*
X260934163Y-136599630D01*
X260940829Y-136620222D01*
X260952770Y-136644315D01*
X260986080Y-136684525D01*
X261032368Y-136704558D01*
X261088944Y-136703905D01*
X261153031Y-136682101D01*
X261208417Y-136655193D01*
X261254375Y-136691532D01*
X261300333Y-136727872D01*
X261257096Y-136767819D01*
X261199374Y-136805563D01*
X261128386Y-136828320D01*
X261052029Y-136834688D01*
X260978199Y-136823268D01*
X260966287Y-136819393D01*
X260901399Y-136785506D01*
X260853130Y-136734986D01*
X260820465Y-136666325D01*
X260802385Y-136578014D01*
X260802175Y-136576121D01*
X260800556Y-136479878D01*
X260807100Y-136445542D01*
X260934852Y-136445542D01*
X260946584Y-136450822D01*
X260978438Y-136454867D01*
X261025397Y-136457176D01*
X261055154Y-136457525D01*
X261110648Y-136457306D01*
X261145346Y-136455916D01*
X261163601Y-136452251D01*
X261169766Y-136445210D01*
X261168195Y-136433690D01*
X261166878Y-136429233D01*
X261144382Y-136387355D01*
X261109003Y-136353604D01*
X261077780Y-136338773D01*
X261036301Y-136339668D01*
X260994269Y-136358164D01*
X260959012Y-136388786D01*
X260937854Y-136426062D01*
X260934852Y-136445542D01*
X260807100Y-136445542D01*
X260816690Y-136395229D01*
X260848698Y-136324191D01*
X260894701Y-136268779D01*
X260952821Y-136231009D01*
X261021180Y-136212896D01*
X261097898Y-136216457D01*
G37*
X261097898Y-136216457D02*
X261130096Y-136224279D01*
X261191825Y-136252921D01*
X261244610Y-136296667D01*
X261281141Y-136349117D01*
X261286160Y-136360893D01*
X261293045Y-136391740D01*
X261297864Y-136437371D01*
X261299505Y-136483492D01*
X261299505Y-136570693D01*
X261117178Y-136570693D01*
X261041979Y-136570978D01*
X260989003Y-136572704D01*
X260955325Y-136577181D01*
X260938020Y-136585720D01*
X260934163Y-136599630D01*
X260940829Y-136620222D01*
X260952770Y-136644315D01*
X260986080Y-136684525D01*
X261032368Y-136704558D01*
X261088944Y-136703905D01*
X261153031Y-136682101D01*
X261208417Y-136655193D01*
X261254375Y-136691532D01*
X261300333Y-136727872D01*
X261257096Y-136767819D01*
X261199374Y-136805563D01*
X261128386Y-136828320D01*
X261052029Y-136834688D01*
X260978199Y-136823268D01*
X260966287Y-136819393D01*
X260901399Y-136785506D01*
X260853130Y-136734986D01*
X260820465Y-136666325D01*
X260802385Y-136578014D01*
X260802175Y-136576121D01*
X260800556Y-136479878D01*
X260807100Y-136445542D01*
X260934852Y-136445542D01*
X260946584Y-136450822D01*
X260978438Y-136454867D01*
X261025397Y-136457176D01*
X261055154Y-136457525D01*
X261110648Y-136457306D01*
X261145346Y-136455916D01*
X261163601Y-136452251D01*
X261169766Y-136445210D01*
X261168195Y-136433690D01*
X261166878Y-136429233D01*
X261144382Y-136387355D01*
X261109003Y-136353604D01*
X261077780Y-136338773D01*
X261036301Y-136339668D01*
X260994269Y-136358164D01*
X260959012Y-136388786D01*
X260937854Y-136426062D01*
X260934852Y-136445542D01*
X260807100Y-136445542D01*
X260816690Y-136395229D01*
X260848698Y-136324191D01*
X260894701Y-136268779D01*
X260952821Y-136231009D01*
X261021180Y-136212896D01*
X261097898Y-136216457D01*
G36*
X257665988Y-136229002D02*
G01*
X257697283Y-136243950D01*
X257727591Y-136265541D01*
X257750682Y-136290391D01*
X257767500Y-136322087D01*
X257778994Y-136364214D01*
X257786109Y-136420358D01*
X257789793Y-136494106D01*
X257790992Y-136589044D01*
X257791011Y-136598985D01*
X257791287Y-136822179D01*
X257652970Y-136822179D01*
X257652970Y-136616418D01*
X257652872Y-136540189D01*
X257652191Y-136484939D01*
X257650349Y-136446501D01*
X257646767Y-136420706D01*
X257640868Y-136403384D01*
X257632073Y-136390368D01*
X257619820Y-136377507D01*
X257576953Y-136349873D01*
X257530157Y-136344745D01*
X257485576Y-136362217D01*
X257470072Y-136375221D01*
X257458690Y-136387447D01*
X257450519Y-136400540D01*
X257445026Y-136418615D01*
X257441680Y-136445787D01*
X257439949Y-136486170D01*
X257439303Y-136543879D01*
X257439208Y-136614132D01*
X257439208Y-136822179D01*
X257300891Y-136822179D01*
X257300891Y-136218614D01*
X257370050Y-136218614D01*
X257411572Y-136220256D01*
X257432994Y-136226087D01*
X257439205Y-136237461D01*
X257439208Y-136237798D01*
X257442090Y-136248938D01*
X257454801Y-136247674D01*
X257480074Y-136235434D01*
X257537395Y-136217424D01*
X257602963Y-136215421D01*
X257665988Y-136229002D01*
G37*
X257665988Y-136229002D02*
X257697283Y-136243950D01*
X257727591Y-136265541D01*
X257750682Y-136290391D01*
X257767500Y-136322087D01*
X257778994Y-136364214D01*
X257786109Y-136420358D01*
X257789793Y-136494106D01*
X257790992Y-136589044D01*
X257791011Y-136598985D01*
X257791287Y-136822179D01*
X257652970Y-136822179D01*
X257652970Y-136616418D01*
X257652872Y-136540189D01*
X257652191Y-136484939D01*
X257650349Y-136446501D01*
X257646767Y-136420706D01*
X257640868Y-136403384D01*
X257632073Y-136390368D01*
X257619820Y-136377507D01*
X257576953Y-136349873D01*
X257530157Y-136344745D01*
X257485576Y-136362217D01*
X257470072Y-136375221D01*
X257458690Y-136387447D01*
X257450519Y-136400540D01*
X257445026Y-136418615D01*
X257441680Y-136445787D01*
X257439949Y-136486170D01*
X257439303Y-136543879D01*
X257439208Y-136614132D01*
X257439208Y-136822179D01*
X257300891Y-136822179D01*
X257300891Y-136218614D01*
X257370050Y-136218614D01*
X257411572Y-136220256D01*
X257432994Y-136226087D01*
X257439205Y-136237461D01*
X257439208Y-136237798D01*
X257442090Y-136248938D01*
X257454801Y-136247674D01*
X257480074Y-136235434D01*
X257537395Y-136217424D01*
X257602963Y-136215421D01*
X257665988Y-136229002D01*
G36*
X260219460Y-136218030D02*
G01*
X260262711Y-136231245D01*
X260290558Y-136247941D01*
X260299629Y-136261145D01*
X260297132Y-136276797D01*
X260280931Y-136301385D01*
X260267232Y-136318800D01*
X260238992Y-136350283D01*
X260217775Y-136363529D01*
X260199688Y-136362664D01*
X260146035Y-136349010D01*
X260106630Y-136349630D01*
X260074632Y-136365104D01*
X260063890Y-136374161D01*
X260029505Y-136406027D01*
X260029505Y-136822179D01*
X259891188Y-136822179D01*
X259891188Y-136218614D01*
X259960347Y-136218614D01*
X260001869Y-136220256D01*
X260023291Y-136226087D01*
X260029502Y-136237461D01*
X260029505Y-136237798D01*
X260032439Y-136249713D01*
X260045704Y-136248159D01*
X260064084Y-136239563D01*
X260102046Y-136223568D01*
X260132872Y-136213945D01*
X260172536Y-136211478D01*
X260219460Y-136218030D01*
G37*
X260219460Y-136218030D02*
X260262711Y-136231245D01*
X260290558Y-136247941D01*
X260299629Y-136261145D01*
X260297132Y-136276797D01*
X260280931Y-136301385D01*
X260267232Y-136318800D01*
X260238992Y-136350283D01*
X260217775Y-136363529D01*
X260199688Y-136362664D01*
X260146035Y-136349010D01*
X260106630Y-136349630D01*
X260074632Y-136365104D01*
X260063890Y-136374161D01*
X260029505Y-136406027D01*
X260029505Y-136822179D01*
X259891188Y-136822179D01*
X259891188Y-136218614D01*
X259960347Y-136218614D01*
X260001869Y-136220256D01*
X260023291Y-136226087D01*
X260029502Y-136237461D01*
X260029505Y-136237798D01*
X260032439Y-136249713D01*
X260045704Y-136248159D01*
X260064084Y-136239563D01*
X260102046Y-136223568D01*
X260132872Y-136213945D01*
X260172536Y-136211478D01*
X260219460Y-136218030D01*
G36*
X258796964Y-132050018D02*
G01*
X258853812Y-132351570D01*
X259273338Y-132524512D01*
X259524984Y-132353395D01*
X259595458Y-132305750D01*
X259659163Y-132263210D01*
X259713126Y-132227715D01*
X259754373Y-132201210D01*
X259779934Y-132185636D01*
X259786895Y-132182278D01*
X259799435Y-132190914D01*
X259826231Y-132214792D01*
X259864280Y-132250859D01*
X259910579Y-132296067D01*
X259962123Y-132347364D01*
X260015909Y-132401701D01*
X260068935Y-132456028D01*
X260118195Y-132507295D01*
X260160687Y-132552451D01*
X260193407Y-132588446D01*
X260213351Y-132612230D01*
X260218119Y-132620190D01*
X260211257Y-132634865D01*
X260192020Y-132667014D01*
X260162430Y-132713492D01*
X260124510Y-132771156D01*
X260080282Y-132836860D01*
X260054654Y-132874336D01*
X260007941Y-132942768D01*
X259966432Y-133004520D01*
X259932140Y-133056519D01*
X259907080Y-133095692D01*
X259893264Y-133118965D01*
X259891188Y-133123855D01*
X259895895Y-133137755D01*
X259908723Y-133170150D01*
X259927738Y-133216485D01*
X259951003Y-133272206D01*
X259976584Y-133332758D01*
X260002545Y-133393586D01*
X260026950Y-133450136D01*
X260047863Y-133497852D01*
X260063349Y-133532181D01*
X260071472Y-133548568D01*
X260071952Y-133549212D01*
X260084707Y-133552341D01*
X260118677Y-133559321D01*
X260170340Y-133569467D01*
X260236176Y-133582092D01*
X260312664Y-133596509D01*
X260357290Y-133604823D01*
X260439021Y-133620384D01*
X260512843Y-133635192D01*
X260575021Y-133648436D01*
X260621822Y-133659305D01*
X260649509Y-133666989D01*
X260655074Y-133669427D01*
X260660526Y-133685930D01*
X260664924Y-133723200D01*
X260668272Y-133776880D01*
X260670574Y-133842612D01*
X260671832Y-133916037D01*
X260672048Y-133992796D01*
X260671227Y-134068532D01*
X260669371Y-134138886D01*
X260666482Y-134199500D01*
X260662565Y-134246016D01*
X260657622Y-134274075D01*
X260654657Y-134279916D01*
X260636934Y-134286917D01*
X260599381Y-134296927D01*
X260546964Y-134308769D01*
X260484652Y-134321267D01*
X260462900Y-134325310D01*
X260358024Y-134344520D01*
X260275180Y-134359991D01*
X260211630Y-134372337D01*
X260164637Y-134382173D01*
X260131463Y-134390114D01*
X260109371Y-134396776D01*
X260095624Y-134402773D01*
X260087484Y-134408719D01*
X260086345Y-134409894D01*
X260074977Y-134428826D01*
X260057635Y-134465669D01*
X260036050Y-134515913D01*
X260011954Y-134575046D01*
X259987079Y-134638556D01*
X259963157Y-134701932D01*
X259941919Y-134760662D01*
X259925097Y-134810235D01*
X259914422Y-134846139D01*
X259911627Y-134863862D01*
X259911860Y-134864483D01*
X259921331Y-134878970D01*
X259942818Y-134910844D01*
X259974063Y-134956789D01*
X260012807Y-135013485D01*
X260056793Y-135077617D01*
X260069319Y-135095842D01*
X260113984Y-135161914D01*
X260153288Y-135222200D01*
X260185088Y-135273235D01*
X260207245Y-135311560D01*
X260217617Y-135333711D01*
X260218119Y-135336432D01*
X260209405Y-135350736D01*
X260185325Y-135379072D01*
X260148976Y-135418396D01*
X260103453Y-135465661D01*
X260051852Y-135517823D01*
X259997267Y-135571835D01*
X259942794Y-135624653D01*
X259891529Y-135673231D01*
X259846567Y-135714523D01*
X259811004Y-135745485D01*
X259787935Y-135763070D01*
X259781554Y-135765941D01*
X259766699Y-135759178D01*
X259736286Y-135740939D01*
X259695268Y-135714297D01*
X259663709Y-135692852D01*
X259606525Y-135653503D01*
X259538806Y-135607171D01*
X259470880Y-135560913D01*
X259434361Y-135536155D01*
X259310752Y-135452547D01*
X259206991Y-135508650D01*
X259159720Y-135533228D01*
X259119523Y-135552331D01*
X259092326Y-135563227D01*
X259085402Y-135564743D01*
X259077077Y-135553549D01*
X259060654Y-135521917D01*
X259037357Y-135472765D01*
X259008414Y-135409010D01*
X258975050Y-135333571D01*
X258938491Y-135249364D01*
X258899964Y-135159308D01*
X258860694Y-135066321D01*
X258821908Y-134973320D01*
X258784830Y-134883223D01*
X258750689Y-134798948D01*
X258720708Y-134723413D01*
X258696116Y-134659534D01*
X258678136Y-134610231D01*
X258667997Y-134578421D01*
X258666366Y-134567496D01*
X258679291Y-134553561D01*
X258707589Y-134530940D01*
X258745346Y-134504333D01*
X258748515Y-134502228D01*
X258846100Y-134424114D01*
X258924786Y-134332982D01*
X258983891Y-134231745D01*
X259022732Y-134123318D01*
X259040628Y-134010614D01*
X259036897Y-133896548D01*
X259010857Y-133784034D01*
X258961825Y-133675985D01*
X258947400Y-133652345D01*
X258872369Y-133556887D01*
X258783730Y-133480232D01*
X258684549Y-133422780D01*
X258577895Y-133384929D01*
X258466836Y-133367078D01*
X258354439Y-133369625D01*
X258243773Y-133392970D01*
X258137906Y-133437510D01*
X258039905Y-133503645D01*
X258009590Y-133530487D01*
X257932438Y-133614512D01*
X257876218Y-133702966D01*
X257837653Y-133802115D01*
X257816174Y-133900303D01*
X257810872Y-134010697D01*
X257828552Y-134121640D01*
X257867419Y-134229381D01*
X257925677Y-134330169D01*
X258001531Y-134420256D01*
X258093183Y-134495892D01*
X258105228Y-134503864D01*
X258143389Y-134529974D01*
X258172399Y-134552595D01*
X258186268Y-134567039D01*
X258186469Y-134567496D01*
X258183492Y-134583121D01*
X258171689Y-134618582D01*
X258152286Y-134670962D01*
X258126512Y-134737345D01*
X258095591Y-134814814D01*
X258060751Y-134900450D01*
X258023217Y-134991337D01*
X257984217Y-135084559D01*
X257944977Y-135177197D01*
X257906724Y-135266335D01*
X257870683Y-135349055D01*
X257838083Y-135422441D01*
X257810148Y-135483575D01*
X257788105Y-135529541D01*
X257773182Y-135557421D01*
X257767172Y-135564743D01*
X257748809Y-135559041D01*
X257714448Y-135543749D01*
X257670016Y-135521599D01*
X257645583Y-135508650D01*
X257541822Y-135452547D01*
X257418213Y-135536155D01*
X257355114Y-135578987D01*
X257286030Y-135626122D01*
X257221293Y-135670503D01*
X257188866Y-135692852D01*
X257143259Y-135723477D01*
X257104640Y-135747747D01*
X257078048Y-135762587D01*
X257069410Y-135765724D01*
X257056839Y-135757261D01*
X257029016Y-135733636D01*
X256988639Y-135697302D01*
X256938405Y-135650711D01*
X256881012Y-135596317D01*
X256844714Y-135561392D01*
X256781210Y-135498996D01*
X256726327Y-135443188D01*
X256682286Y-135396354D01*
X256651305Y-135360882D01*
X256635602Y-135339161D01*
X256634095Y-135334752D01*
X256641086Y-135317985D01*
X256660406Y-135284082D01*
X256689909Y-135236476D01*
X256727455Y-135178599D01*
X256770900Y-135113884D01*
X256783255Y-135095842D01*
X256828273Y-135030267D01*
X256868660Y-134971228D01*
X256902160Y-134922042D01*
X256926514Y-134886028D01*
X256939464Y-134866502D01*
X256940715Y-134864483D01*
X256938844Y-134848922D01*
X256928913Y-134814709D01*
X256912653Y-134766355D01*
X256891795Y-134708371D01*
X256868073Y-134645270D01*
X256843216Y-134581563D01*
X256818958Y-134521761D01*
X256797029Y-134470376D01*
X256779162Y-134431919D01*
X256767087Y-134410902D01*
X256766229Y-134409894D01*
X256758846Y-134403888D01*
X256746375Y-134397948D01*
X256726080Y-134391460D01*
X256695222Y-134383809D01*
X256651066Y-134374380D01*
X256590874Y-134362559D01*
X256511907Y-134347729D01*
X256411430Y-134329277D01*
X256389675Y-134325310D01*
X256325198Y-134312853D01*
X256268989Y-134300666D01*
X256226013Y-134289926D01*
X256201240Y-134281809D01*
X256197918Y-134279916D01*
X256192444Y-134263138D01*
X256187994Y-134225645D01*
X256184572Y-134171794D01*
X256182181Y-134105944D01*
X256180823Y-134032453D01*
X256180501Y-133955680D01*
X256181219Y-133879983D01*
X256182979Y-133809720D01*
X256185784Y-133749250D01*
X256189638Y-133702930D01*
X256194543Y-133675119D01*
X256197500Y-133669427D01*
X256213963Y-133663686D01*
X256251449Y-133654345D01*
X256306225Y-133642215D01*
X256374555Y-133628107D01*
X256452706Y-133612830D01*
X256495284Y-133604823D01*
X256576071Y-133589721D01*
X256648113Y-133576040D01*
X256707889Y-133564467D01*
X256751879Y-133555687D01*
X256776561Y-133550387D01*
X256780623Y-133549212D01*
X256787489Y-133535965D01*
X256802002Y-133504057D01*
X256822229Y-133458047D01*
X256846234Y-133402492D01*
X256872082Y-133341953D01*
X256897840Y-133280986D01*
X256921573Y-133224151D01*
X256941346Y-133176006D01*
X256955224Y-133141110D01*
X256961274Y-133124021D01*
X256961386Y-133123274D01*
X256954528Y-133109793D01*
X256935302Y-133078770D01*
X256905728Y-133033289D01*
X256867827Y-132976432D01*
X256823620Y-132911283D01*
X256797921Y-132873862D01*
X256751093Y-132805247D01*
X256709501Y-132742952D01*
X256675175Y-132690129D01*
X256650143Y-132649927D01*
X256636435Y-132625500D01*
X256634456Y-132620024D01*
X256642966Y-132607278D01*
X256666493Y-132580063D01*
X256702032Y-132541428D01*
X256746577Y-132494423D01*
X256797123Y-132442095D01*
X256850664Y-132387495D01*
X256904195Y-132333670D01*
X256954711Y-132283670D01*
X256999206Y-132240543D01*
X257034675Y-132207339D01*
X257058113Y-132187106D01*
X257065954Y-132182278D01*
X257078720Y-132189067D01*
X257109256Y-132208142D01*
X257154590Y-132237561D01*
X257211756Y-132275381D01*
X257277784Y-132319661D01*
X257327590Y-132353395D01*
X257579236Y-132524512D01*
X257788999Y-132438041D01*
X257998763Y-132351570D01*
X258055611Y-132050018D01*
X258112460Y-131748466D01*
X258740115Y-131748466D01*
X258796964Y-132050018D01*
G37*
X258796964Y-132050018D02*
X258853812Y-132351570D01*
X259273338Y-132524512D01*
X259524984Y-132353395D01*
X259595458Y-132305750D01*
X259659163Y-132263210D01*
X259713126Y-132227715D01*
X259754373Y-132201210D01*
X259779934Y-132185636D01*
X259786895Y-132182278D01*
X259799435Y-132190914D01*
X259826231Y-132214792D01*
X259864280Y-132250859D01*
X259910579Y-132296067D01*
X259962123Y-132347364D01*
X260015909Y-132401701D01*
X260068935Y-132456028D01*
X260118195Y-132507295D01*
X260160687Y-132552451D01*
X260193407Y-132588446D01*
X260213351Y-132612230D01*
X260218119Y-132620190D01*
X260211257Y-132634865D01*
X260192020Y-132667014D01*
X260162430Y-132713492D01*
X260124510Y-132771156D01*
X260080282Y-132836860D01*
X260054654Y-132874336D01*
X260007941Y-132942768D01*
X259966432Y-133004520D01*
X259932140Y-133056519D01*
X259907080Y-133095692D01*
X259893264Y-133118965D01*
X259891188Y-133123855D01*
X259895895Y-133137755D01*
X259908723Y-133170150D01*
X259927738Y-133216485D01*
X259951003Y-133272206D01*
X259976584Y-133332758D01*
X260002545Y-133393586D01*
X260026950Y-133450136D01*
X260047863Y-133497852D01*
X260063349Y-133532181D01*
X260071472Y-133548568D01*
X260071952Y-133549212D01*
X260084707Y-133552341D01*
X260118677Y-133559321D01*
X260170340Y-133569467D01*
X260236176Y-133582092D01*
X260312664Y-133596509D01*
X260357290Y-133604823D01*
X260439021Y-133620384D01*
X260512843Y-133635192D01*
X260575021Y-133648436D01*
X260621822Y-133659305D01*
X260649509Y-133666989D01*
X260655074Y-133669427D01*
X260660526Y-133685930D01*
X260664924Y-133723200D01*
X260668272Y-133776880D01*
X260670574Y-133842612D01*
X260671832Y-133916037D01*
X260672048Y-133992796D01*
X260671227Y-134068532D01*
X260669371Y-134138886D01*
X260666482Y-134199500D01*
X260662565Y-134246016D01*
X260657622Y-134274075D01*
X260654657Y-134279916D01*
X260636934Y-134286917D01*
X260599381Y-134296927D01*
X260546964Y-134308769D01*
X260484652Y-134321267D01*
X260462900Y-134325310D01*
X260358024Y-134344520D01*
X260275180Y-134359991D01*
X260211630Y-134372337D01*
X260164637Y-134382173D01*
X260131463Y-134390114D01*
X260109371Y-134396776D01*
X260095624Y-134402773D01*
X260087484Y-134408719D01*
X260086345Y-134409894D01*
X260074977Y-134428826D01*
X260057635Y-134465669D01*
X260036050Y-134515913D01*
X260011954Y-134575046D01*
X259987079Y-134638556D01*
X259963157Y-134701932D01*
X259941919Y-134760662D01*
X259925097Y-134810235D01*
X259914422Y-134846139D01*
X259911627Y-134863862D01*
X259911860Y-134864483D01*
X259921331Y-134878970D01*
X259942818Y-134910844D01*
X259974063Y-134956789D01*
X260012807Y-135013485D01*
X260056793Y-135077617D01*
X260069319Y-135095842D01*
X260113984Y-135161914D01*
X260153288Y-135222200D01*
X260185088Y-135273235D01*
X260207245Y-135311560D01*
X260217617Y-135333711D01*
X260218119Y-135336432D01*
X260209405Y-135350736D01*
X260185325Y-135379072D01*
X260148976Y-135418396D01*
X260103453Y-135465661D01*
X260051852Y-135517823D01*
X259997267Y-135571835D01*
X259942794Y-135624653D01*
X259891529Y-135673231D01*
X259846567Y-135714523D01*
X259811004Y-135745485D01*
X259787935Y-135763070D01*
X259781554Y-135765941D01*
X259766699Y-135759178D01*
X259736286Y-135740939D01*
X259695268Y-135714297D01*
X259663709Y-135692852D01*
X259606525Y-135653503D01*
X259538806Y-135607171D01*
X259470880Y-135560913D01*
X259434361Y-135536155D01*
X259310752Y-135452547D01*
X259206991Y-135508650D01*
X259159720Y-135533228D01*
X259119523Y-135552331D01*
X259092326Y-135563227D01*
X259085402Y-135564743D01*
X259077077Y-135553549D01*
X259060654Y-135521917D01*
X259037357Y-135472765D01*
X259008414Y-135409010D01*
X258975050Y-135333571D01*
X258938491Y-135249364D01*
X258899964Y-135159308D01*
X258860694Y-135066321D01*
X258821908Y-134973320D01*
X258784830Y-134883223D01*
X258750689Y-134798948D01*
X258720708Y-134723413D01*
X258696116Y-134659534D01*
X258678136Y-134610231D01*
X258667997Y-134578421D01*
X258666366Y-134567496D01*
X258679291Y-134553561D01*
X258707589Y-134530940D01*
X258745346Y-134504333D01*
X258748515Y-134502228D01*
X258846100Y-134424114D01*
X258924786Y-134332982D01*
X258983891Y-134231745D01*
X259022732Y-134123318D01*
X259040628Y-134010614D01*
X259036897Y-133896548D01*
X259010857Y-133784034D01*
X258961825Y-133675985D01*
X258947400Y-133652345D01*
X258872369Y-133556887D01*
X258783730Y-133480232D01*
X258684549Y-133422780D01*
X258577895Y-133384929D01*
X258466836Y-133367078D01*
X258354439Y-133369625D01*
X258243773Y-133392970D01*
X258137906Y-133437510D01*
X258039905Y-133503645D01*
X258009590Y-133530487D01*
X257932438Y-133614512D01*
X257876218Y-133702966D01*
X257837653Y-133802115D01*
X257816174Y-133900303D01*
X257810872Y-134010697D01*
X257828552Y-134121640D01*
X257867419Y-134229381D01*
X257925677Y-134330169D01*
X258001531Y-134420256D01*
X258093183Y-134495892D01*
X258105228Y-134503864D01*
X258143389Y-134529974D01*
X258172399Y-134552595D01*
X258186268Y-134567039D01*
X258186469Y-134567496D01*
X258183492Y-134583121D01*
X258171689Y-134618582D01*
X258152286Y-134670962D01*
X258126512Y-134737345D01*
X258095591Y-134814814D01*
X258060751Y-134900450D01*
X258023217Y-134991337D01*
X257984217Y-135084559D01*
X257944977Y-135177197D01*
X257906724Y-135266335D01*
X257870683Y-135349055D01*
X257838083Y-135422441D01*
X257810148Y-135483575D01*
X257788105Y-135529541D01*
X257773182Y-135557421D01*
X257767172Y-135564743D01*
X257748809Y-135559041D01*
X257714448Y-135543749D01*
X257670016Y-135521599D01*
X257645583Y-135508650D01*
X257541822Y-135452547D01*
X257418213Y-135536155D01*
X257355114Y-135578987D01*
X257286030Y-135626122D01*
X257221293Y-135670503D01*
X257188866Y-135692852D01*
X257143259Y-135723477D01*
X257104640Y-135747747D01*
X257078048Y-135762587D01*
X257069410Y-135765724D01*
X257056839Y-135757261D01*
X257029016Y-135733636D01*
X256988639Y-135697302D01*
X256938405Y-135650711D01*
X256881012Y-135596317D01*
X256844714Y-135561392D01*
X256781210Y-135498996D01*
X256726327Y-135443188D01*
X256682286Y-135396354D01*
X256651305Y-135360882D01*
X256635602Y-135339161D01*
X256634095Y-135334752D01*
X256641086Y-135317985D01*
X256660406Y-135284082D01*
X256689909Y-135236476D01*
X256727455Y-135178599D01*
X256770900Y-135113884D01*
X256783255Y-135095842D01*
X256828273Y-135030267D01*
X256868660Y-134971228D01*
X256902160Y-134922042D01*
X256926514Y-134886028D01*
X256939464Y-134866502D01*
X256940715Y-134864483D01*
X256938844Y-134848922D01*
X256928913Y-134814709D01*
X256912653Y-134766355D01*
X256891795Y-134708371D01*
X256868073Y-134645270D01*
X256843216Y-134581563D01*
X256818958Y-134521761D01*
X256797029Y-134470376D01*
X256779162Y-134431919D01*
X256767087Y-134410902D01*
X256766229Y-134409894D01*
X256758846Y-134403888D01*
X256746375Y-134397948D01*
X256726080Y-134391460D01*
X256695222Y-134383809D01*
X256651066Y-134374380D01*
X256590874Y-134362559D01*
X256511907Y-134347729D01*
X256411430Y-134329277D01*
X256389675Y-134325310D01*
X256325198Y-134312853D01*
X256268989Y-134300666D01*
X256226013Y-134289926D01*
X256201240Y-134281809D01*
X256197918Y-134279916D01*
X256192444Y-134263138D01*
X256187994Y-134225645D01*
X256184572Y-134171794D01*
X256182181Y-134105944D01*
X256180823Y-134032453D01*
X256180501Y-133955680D01*
X256181219Y-133879983D01*
X256182979Y-133809720D01*
X256185784Y-133749250D01*
X256189638Y-133702930D01*
X256194543Y-133675119D01*
X256197500Y-133669427D01*
X256213963Y-133663686D01*
X256251449Y-133654345D01*
X256306225Y-133642215D01*
X256374555Y-133628107D01*
X256452706Y-133612830D01*
X256495284Y-133604823D01*
X256576071Y-133589721D01*
X256648113Y-133576040D01*
X256707889Y-133564467D01*
X256751879Y-133555687D01*
X256776561Y-133550387D01*
X256780623Y-133549212D01*
X256787489Y-133535965D01*
X256802002Y-133504057D01*
X256822229Y-133458047D01*
X256846234Y-133402492D01*
X256872082Y-133341953D01*
X256897840Y-133280986D01*
X256921573Y-133224151D01*
X256941346Y-133176006D01*
X256955224Y-133141110D01*
X256961274Y-133124021D01*
X256961386Y-133123274D01*
X256954528Y-133109793D01*
X256935302Y-133078770D01*
X256905728Y-133033289D01*
X256867827Y-132976432D01*
X256823620Y-132911283D01*
X256797921Y-132873862D01*
X256751093Y-132805247D01*
X256709501Y-132742952D01*
X256675175Y-132690129D01*
X256650143Y-132649927D01*
X256636435Y-132625500D01*
X256634456Y-132620024D01*
X256642966Y-132607278D01*
X256666493Y-132580063D01*
X256702032Y-132541428D01*
X256746577Y-132494423D01*
X256797123Y-132442095D01*
X256850664Y-132387495D01*
X256904195Y-132333670D01*
X256954711Y-132283670D01*
X256999206Y-132240543D01*
X257034675Y-132207339D01*
X257058113Y-132187106D01*
X257065954Y-132182278D01*
X257078720Y-132189067D01*
X257109256Y-132208142D01*
X257154590Y-132237561D01*
X257211756Y-132275381D01*
X257277784Y-132319661D01*
X257327590Y-132353395D01*
X257579236Y-132524512D01*
X257788999Y-132438041D01*
X257998763Y-132351570D01*
X258055611Y-132050018D01*
X258112460Y-131748466D01*
X258740115Y-131748466D01*
X258796964Y-132050018D01*
D11*
X280930000Y-118250000D02*
X281550000Y-118250000D01*
X280930000Y-118250000D02*
G75*
G03X280930000Y-118250000I-920000J0D01*
G01*
X247205000Y-136070000D02*
X246890000Y-136070000D01*
X249630000Y-136070000D02*
X249315000Y-136070000D01*
X247205000Y-130830000D02*
X246890000Y-130830000D01*
X249630000Y-130830000D02*
X249315000Y-130830000D01*
X246890000Y-130830000D02*
X246890000Y-136070000D01*
X249630000Y-130830000D02*
X249630000Y-136070000D01*
X236770000Y-134700000D02*
X238100000Y-134700000D01*
X236770000Y-136030000D02*
X236770000Y-134700000D01*
X239370000Y-134700000D02*
X241970000Y-134700000D01*
X239370000Y-137300000D02*
X239370000Y-134700000D01*
X236770000Y-137300000D02*
X239370000Y-137300000D01*
X241970000Y-134700000D02*
X241970000Y-144980000D01*
X236770000Y-137300000D02*
X236770000Y-144980000D01*
X236770000Y-144980000D02*
X241970000Y-144980000D01*
X276415000Y-106510000D02*
X276400000Y-106510000D01*
X278540000Y-106510000D02*
X278525000Y-106510000D01*
X276415000Y-101970000D02*
X276400000Y-101970000D01*
X278540000Y-101970000D02*
X278525000Y-101970000D01*
X276400000Y-101970000D02*
X276400000Y-106510000D01*
X278540000Y-101970000D02*
X278540000Y-106510000D01*
X276010000Y-109560000D02*
X276190000Y-109560000D01*
X273670000Y-109560000D02*
X273850000Y-109560000D01*
X276010000Y-109680000D02*
X276190000Y-109680000D01*
X273670000Y-109680000D02*
X273850000Y-109680000D01*
X276025000Y-106380000D02*
X276190000Y-106380000D01*
X273670000Y-106380000D02*
X273835000Y-106380000D01*
X276010000Y-109800000D02*
X276190000Y-109800000D01*
X273670000Y-109800000D02*
X273850000Y-109800000D01*
X276190000Y-109800000D02*
X276190000Y-106380000D01*
X273670000Y-109800000D02*
X273670000Y-106380000D01*
X232820000Y-107900000D02*
X232820000Y-108080000D01*
X232820000Y-105560000D02*
X232820000Y-105740000D01*
X232700000Y-107900000D02*
X232700000Y-108080000D01*
X232700000Y-105560000D02*
X232700000Y-105740000D01*
X236000000Y-107915000D02*
X236000000Y-108080000D01*
X236000000Y-105560000D02*
X236000000Y-105725000D01*
X232580000Y-107900000D02*
X232580000Y-108080000D01*
X232580000Y-105560000D02*
X232580000Y-105740000D01*
X232580000Y-108080000D02*
X236000000Y-108080000D01*
X232580000Y-105560000D02*
X236000000Y-105560000D01*
X237900000Y-107900000D02*
X237900000Y-108080000D01*
X237900000Y-105560000D02*
X237900000Y-105740000D01*
X237780000Y-107900000D02*
X237780000Y-108080000D01*
X237780000Y-105560000D02*
X237780000Y-105740000D01*
X241080000Y-107915000D02*
X241080000Y-108080000D01*
X241080000Y-105560000D02*
X241080000Y-105725000D01*
X237660000Y-107900000D02*
X237660000Y-108080000D01*
X237660000Y-105560000D02*
X237660000Y-105740000D01*
X237660000Y-108080000D02*
X241080000Y-108080000D01*
X237660000Y-105560000D02*
X241080000Y-105560000D01*
X242980000Y-107900000D02*
X242980000Y-108080000D01*
X242980000Y-105560000D02*
X242980000Y-105740000D01*
X242860000Y-107900000D02*
X242860000Y-108080000D01*
X242860000Y-105560000D02*
X242860000Y-105740000D01*
X246160000Y-107915000D02*
X246160000Y-108080000D01*
X246160000Y-105560000D02*
X246160000Y-105725000D01*
X242740000Y-107900000D02*
X242740000Y-108080000D01*
X242740000Y-105560000D02*
X242740000Y-105740000D01*
X242740000Y-108080000D02*
X246160000Y-108080000D01*
X242740000Y-105560000D02*
X246160000Y-105560000D01*
X265840000Y-123140000D02*
X265840000Y-123320000D01*
X265840000Y-120800000D02*
X265840000Y-120980000D01*
X265720000Y-123140000D02*
X265720000Y-123320000D01*
X265720000Y-120800000D02*
X265720000Y-120980000D01*
X269020000Y-123155000D02*
X269020000Y-123320000D01*
X269020000Y-120800000D02*
X269020000Y-120965000D01*
X265600000Y-123140000D02*
X265600000Y-123320000D01*
X265600000Y-120800000D02*
X265600000Y-120980000D01*
X265600000Y-123320000D02*
X269020000Y-123320000D01*
X265600000Y-120800000D02*
X269020000Y-120800000D01*
X270920000Y-123140000D02*
X270920000Y-123320000D01*
X270920000Y-120800000D02*
X270920000Y-120980000D01*
X270800000Y-123140000D02*
X270800000Y-123320000D01*
X270800000Y-120800000D02*
X270800000Y-120980000D01*
X274100000Y-123155000D02*
X274100000Y-123320000D01*
X274100000Y-120800000D02*
X274100000Y-120965000D01*
X270680000Y-123140000D02*
X270680000Y-123320000D01*
X270680000Y-120800000D02*
X270680000Y-120980000D01*
X270680000Y-123320000D02*
X274100000Y-123320000D01*
X270680000Y-120800000D02*
X274100000Y-120800000D01*
X276000000Y-123140000D02*
X276000000Y-123320000D01*
X276000000Y-120800000D02*
X276000000Y-120980000D01*
X275880000Y-123140000D02*
X275880000Y-123320000D01*
X275880000Y-120800000D02*
X275880000Y-120980000D01*
X279180000Y-123155000D02*
X279180000Y-123320000D01*
X279180000Y-120800000D02*
X279180000Y-120965000D01*
X275760000Y-123140000D02*
X275760000Y-123320000D01*
X275760000Y-120800000D02*
X275760000Y-120980000D01*
X275760000Y-123320000D02*
X279180000Y-123320000D01*
X275760000Y-120800000D02*
X279180000Y-120800000D01*
X281080000Y-123140000D02*
X281080000Y-123320000D01*
X281080000Y-120800000D02*
X281080000Y-120980000D01*
X280960000Y-123140000D02*
X280960000Y-123320000D01*
X280960000Y-120800000D02*
X280960000Y-120980000D01*
X284260000Y-123155000D02*
X284260000Y-123320000D01*
X284260000Y-120800000D02*
X284260000Y-120965000D01*
X280840000Y-123140000D02*
X280840000Y-123320000D01*
X280840000Y-120800000D02*
X280840000Y-120980000D01*
X280840000Y-123320000D02*
X284260000Y-123320000D01*
X280840000Y-120800000D02*
X284260000Y-120800000D01*
X260650000Y-129465000D02*
X260650000Y-129480000D01*
X260650000Y-127340000D02*
X260650000Y-127355000D01*
X256110000Y-129465000D02*
X256110000Y-129480000D01*
X256110000Y-127340000D02*
X256110000Y-127355000D01*
X256110000Y-129480000D02*
X260650000Y-129480000D01*
X256110000Y-127340000D02*
X260650000Y-127340000D01*
X206565000Y-121830000D02*
X206550000Y-121830000D01*
X208690000Y-121830000D02*
X208675000Y-121830000D01*
X206565000Y-117290000D02*
X206550000Y-117290000D01*
X208690000Y-117290000D02*
X208675000Y-117290000D01*
X206550000Y-117290000D02*
X206550000Y-121830000D01*
X208690000Y-117290000D02*
X208690000Y-121830000D01*
X206565000Y-133180000D02*
X206550000Y-133180000D01*
X208690000Y-133180000D02*
X208675000Y-133180000D01*
X206565000Y-128640000D02*
X206550000Y-128640000D01*
X208690000Y-128640000D02*
X208675000Y-128640000D01*
X206550000Y-128640000D02*
X206550000Y-133180000D01*
X208690000Y-128640000D02*
X208690000Y-133180000D01*
X209427137Y-126500217D02*
G75*
G02X209426856Y-124600000I732863J950217D01*
G01*
X210892863Y-126500217D02*
G75*
G03X210893144Y-124600000I-732863J950217D01*
G01*
X276781000Y-94660000D02*
X276781000Y-96170000D01*
X273080000Y-94660000D02*
X273080000Y-96170000D01*
X269810000Y-96170000D02*
X280050000Y-96170000D01*
X280050000Y-94660000D02*
X280050000Y-99301000D01*
X269810000Y-94660000D02*
X269810000Y-99301000D01*
X269810000Y-99301000D02*
X280050000Y-99301000D01*
X269810000Y-94660000D02*
X280050000Y-94660000D01*
X208830000Y-115600000D02*
X208830000Y-117250000D01*
X219110000Y-115600000D02*
X208830000Y-115600000D01*
X219110000Y-120900000D02*
X219110000Y-115600000D01*
X208830000Y-120900000D02*
X219110000Y-120900000D01*
X208830000Y-119250000D02*
X208830000Y-120900000D01*
X208830000Y-117250000D02*
G75*
G02X208830000Y-119250000I0J-1000000D01*
G01*
X255770000Y-127200000D02*
X257420000Y-127200000D01*
X255770000Y-101680000D02*
X255770000Y-127200000D01*
X261070000Y-101680000D02*
X255770000Y-101680000D01*
X261070000Y-127200000D02*
X261070000Y-101680000D01*
X259420000Y-127200000D02*
X261070000Y-127200000D01*
X257420000Y-127200000D02*
G75*
G02X259420000Y-127200000I1000000J0D01*
G01*
X222860000Y-121930000D02*
X222860000Y-124730000D01*
X233190000Y-121930000D02*
X220150000Y-121930000D01*
X233190000Y-124730000D02*
X233190000Y-121930000D01*
X220150000Y-124730000D02*
X233190000Y-124730000D01*
X220150000Y-121930000D02*
X220150000Y-124730000D01*
X280010000Y-127270000D02*
X280010000Y-124470000D01*
X269680000Y-127270000D02*
X282720000Y-127270000D01*
X269680000Y-124470000D02*
X269680000Y-127270000D01*
X282720000Y-124470000D02*
X269680000Y-124470000D01*
X282720000Y-127270000D02*
X282720000Y-124470000D01*
X280010000Y-142510000D02*
X280010000Y-139710000D01*
X269680000Y-142510000D02*
X282720000Y-142510000D01*
X269680000Y-139710000D02*
X269680000Y-142510000D01*
X282720000Y-139710000D02*
X269680000Y-139710000D01*
X282720000Y-142510000D02*
X282720000Y-139710000D01*
X249180000Y-128410000D02*
X249800000Y-128410000D01*
X249180000Y-128410000D02*
G75*
G03X249180000Y-128410000I-920000J0D01*
G01*
X273660000Y-102660000D02*
X273660000Y-103280000D01*
X274580000Y-101740000D02*
G75*
G03X274580000Y-101740000I-920000J0D01*
G01*
X251150000Y-113170000D02*
X250530000Y-113170000D01*
X252990000Y-113170000D02*
G75*
G03X252990000Y-113170000I-920000J0D01*
G01*
X251150000Y-115710000D02*
X250530000Y-115710000D01*
X252990000Y-115710000D02*
G75*
G03X252990000Y-115710000I-920000J0D01*
G01*
X251150000Y-118250000D02*
X250530000Y-118250000D01*
X252990000Y-118250000D02*
G75*
G03X252990000Y-118250000I-920000J0D01*
G01*
X251150000Y-120790000D02*
X250530000Y-120790000D01*
X252990000Y-120790000D02*
G75*
G03X252990000Y-120790000I-920000J0D01*
G01*
X246070000Y-103010000D02*
X245450000Y-103010000D01*
X247910000Y-103010000D02*
G75*
G03X247910000Y-103010000I-920000J0D01*
G01*
X251150000Y-103010000D02*
X250530000Y-103010000D01*
X252990000Y-103010000D02*
G75*
G03X252990000Y-103010000I-920000J0D01*
G01*
X265690000Y-118250000D02*
X266310000Y-118250000D01*
X265690000Y-118250000D02*
G75*
G03X265690000Y-118250000I-920000J0D01*
G01*
X270770000Y-118250000D02*
X271390000Y-118250000D01*
X270770000Y-118250000D02*
G75*
G03X270770000Y-118250000I-920000J0D01*
G01*
X275850000Y-118250000D02*
X276470000Y-118250000D01*
X275850000Y-118250000D02*
G75*
G03X275850000Y-118250000I-920000J0D01*
G01*
X271120000Y-144570000D02*
X271120000Y-145190000D01*
X272040000Y-143650000D02*
G75*
G03X272040000Y-143650000I-920000J0D01*
G01*
X273660000Y-144570000D02*
X273660000Y-145190000D01*
X274580000Y-143650000D02*
G75*
G03X274580000Y-143650000I-920000J0D01*
G01*
X276200000Y-144570000D02*
X276200000Y-145190000D01*
X277120000Y-143650000D02*
G75*
G03X277120000Y-143650000I-920000J0D01*
G01*
X278740000Y-144570000D02*
X278740000Y-145190000D01*
X279660000Y-143650000D02*
G75*
G03X279660000Y-143650000I-920000J0D01*
G01*
X262170000Y-130840000D02*
X262170000Y-132490000D01*
X267370000Y-130840000D02*
X262170000Y-130840000D01*
X267370000Y-136140000D02*
X267370000Y-130840000D01*
X262170000Y-136140000D02*
X267370000Y-136140000D01*
X262170000Y-134490000D02*
X262170000Y-136140000D01*
X262170000Y-132490000D02*
G75*
G02X262170000Y-134490000I0J-1000000D01*
G01*
X267250000Y-130840000D02*
X267250000Y-132490000D01*
X272450000Y-130840000D02*
X267250000Y-130840000D01*
X272450000Y-136140000D02*
X272450000Y-130840000D01*
X267250000Y-136140000D02*
X272450000Y-136140000D01*
X267250000Y-134490000D02*
X267250000Y-136140000D01*
X267250000Y-132490000D02*
G75*
G02X267250000Y-134490000I0J-1000000D01*
G01*
X272330000Y-130840000D02*
X272330000Y-132490000D01*
X277530000Y-130840000D02*
X272330000Y-130840000D01*
X277530000Y-136140000D02*
X277530000Y-130840000D01*
X272330000Y-136140000D02*
X277530000Y-136140000D01*
X272330000Y-134490000D02*
X272330000Y-136140000D01*
X272330000Y-132490000D02*
G75*
G02X272330000Y-134490000I0J-1000000D01*
G01*
X277410000Y-130840000D02*
X277410000Y-132490000D01*
X282610000Y-130840000D02*
X277410000Y-130840000D01*
X282610000Y-136140000D02*
X282610000Y-130840000D01*
X277410000Y-136140000D02*
X282610000Y-136140000D01*
X277410000Y-134490000D02*
X277410000Y-136140000D01*
X277410000Y-132490000D02*
G75*
G02X277410000Y-134490000I0J-1000000D01*
G01*
X236770000Y-123270000D02*
X238100000Y-123270000D01*
X236770000Y-124600000D02*
X236770000Y-123270000D01*
X239370000Y-123270000D02*
X241970000Y-123270000D01*
X239370000Y-125870000D02*
X239370000Y-123270000D01*
X236770000Y-125870000D02*
X239370000Y-125870000D01*
X241970000Y-123270000D02*
X241970000Y-133550000D01*
X236770000Y-125870000D02*
X236770000Y-133550000D01*
X236770000Y-133550000D02*
X241970000Y-133550000D01*
X268365000Y-95270000D02*
X268680000Y-95270000D01*
X265940000Y-95270000D02*
X266255000Y-95270000D01*
X268365000Y-100510000D02*
X268680000Y-100510000D01*
X265940000Y-100510000D02*
X266255000Y-100510000D01*
X268680000Y-100510000D02*
X268680000Y-95270000D01*
X265940000Y-100510000D02*
X265940000Y-95270000D01*
X254420000Y-133780000D02*
X254576000Y-133780000D01*
X252104000Y-133780000D02*
X252260000Y-133780000D01*
X254419837Y-131178870D02*
G75*
G02X254420000Y-133260961I-1079837J-1041130D01*
G01*
X252260163Y-131178870D02*
G75*
G03X252260000Y-133260961I1079837J-1041130D01*
G01*
X254418608Y-130547665D02*
G75*
G02X254575516Y-133780000I-1078608J-1672335D01*
G01*
X252261392Y-130547665D02*
G75*
G03X252104484Y-133780000I1078608J-1672335D01*
G01*
X280311134Y-100686150D02*
G75*
G03X282180000Y-100626761I968866J-1053850D01*
G01*
X283005000Y-104245225D02*
X282505000Y-104245225D01*
X282755000Y-103995225D02*
X282755000Y-104495225D01*
X281564000Y-109401000D02*
X280996000Y-109401000D01*
X281798000Y-109361000D02*
X280762000Y-109361000D01*
X281957000Y-109321000D02*
X280603000Y-109321000D01*
X282085000Y-109281000D02*
X280475000Y-109281000D01*
X282195000Y-109241000D02*
X280365000Y-109241000D01*
X282291000Y-109201000D02*
X280269000Y-109201000D01*
X282378000Y-109161000D02*
X280182000Y-109161000D01*
X282458000Y-109121000D02*
X280102000Y-109121000D01*
X280240000Y-109081000D02*
X280029000Y-109081000D01*
X282531000Y-109081000D02*
X282320000Y-109081000D01*
X280240000Y-109041000D02*
X279961000Y-109041000D01*
X282599000Y-109041000D02*
X282320000Y-109041000D01*
X280240000Y-109001000D02*
X279897000Y-109001000D01*
X282663000Y-109001000D02*
X282320000Y-109001000D01*
X280240000Y-108961000D02*
X279837000Y-108961000D01*
X282723000Y-108961000D02*
X282320000Y-108961000D01*
X280240000Y-108921000D02*
X279780000Y-108921000D01*
X282780000Y-108921000D02*
X282320000Y-108921000D01*
X280240000Y-108881000D02*
X279726000Y-108881000D01*
X282834000Y-108881000D02*
X282320000Y-108881000D01*
X280240000Y-108841000D02*
X279675000Y-108841000D01*
X282885000Y-108841000D02*
X282320000Y-108841000D01*
X280240000Y-108801000D02*
X279627000Y-108801000D01*
X282933000Y-108801000D02*
X282320000Y-108801000D01*
X280240000Y-108761000D02*
X279581000Y-108761000D01*
X282979000Y-108761000D02*
X282320000Y-108761000D01*
X280240000Y-108721000D02*
X279537000Y-108721000D01*
X283023000Y-108721000D02*
X282320000Y-108721000D01*
X280240000Y-108681000D02*
X279495000Y-108681000D01*
X283065000Y-108681000D02*
X282320000Y-108681000D01*
X280240000Y-108641000D02*
X279454000Y-108641000D01*
X283106000Y-108641000D02*
X282320000Y-108641000D01*
X280240000Y-108601000D02*
X279416000Y-108601000D01*
X283144000Y-108601000D02*
X282320000Y-108601000D01*
X280240000Y-108561000D02*
X279379000Y-108561000D01*
X283181000Y-108561000D02*
X282320000Y-108561000D01*
X280240000Y-108521000D02*
X279343000Y-108521000D01*
X283217000Y-108521000D02*
X282320000Y-108521000D01*
X280240000Y-108481000D02*
X279309000Y-108481000D01*
X283251000Y-108481000D02*
X282320000Y-108481000D01*
X280240000Y-108441000D02*
X279276000Y-108441000D01*
X283284000Y-108441000D02*
X282320000Y-108441000D01*
X280240000Y-108401000D02*
X279245000Y-108401000D01*
X283315000Y-108401000D02*
X282320000Y-108401000D01*
X280240000Y-108361000D02*
X279215000Y-108361000D01*
X283345000Y-108361000D02*
X282320000Y-108361000D01*
X280240000Y-108321000D02*
X279185000Y-108321000D01*
X283375000Y-108321000D02*
X282320000Y-108321000D01*
X280240000Y-108281000D02*
X279158000Y-108281000D01*
X283402000Y-108281000D02*
X282320000Y-108281000D01*
X280240000Y-108241000D02*
X279131000Y-108241000D01*
X283429000Y-108241000D02*
X282320000Y-108241000D01*
X280240000Y-108201000D02*
X279105000Y-108201000D01*
X283455000Y-108201000D02*
X282320000Y-108201000D01*
X280240000Y-108161000D02*
X279080000Y-108161000D01*
X283480000Y-108161000D02*
X282320000Y-108161000D01*
X280240000Y-108121000D02*
X279056000Y-108121000D01*
X283504000Y-108121000D02*
X282320000Y-108121000D01*
X280240000Y-108081000D02*
X279033000Y-108081000D01*
X283527000Y-108081000D02*
X282320000Y-108081000D01*
X280240000Y-108041000D02*
X279012000Y-108041000D01*
X283548000Y-108041000D02*
X282320000Y-108041000D01*
X280240000Y-108001000D02*
X278990000Y-108001000D01*
X283570000Y-108001000D02*
X282320000Y-108001000D01*
X280240000Y-107961000D02*
X278970000Y-107961000D01*
X283590000Y-107961000D02*
X282320000Y-107961000D01*
X280240000Y-107921000D02*
X278951000Y-107921000D01*
X283609000Y-107921000D02*
X282320000Y-107921000D01*
X280240000Y-107881000D02*
X278932000Y-107881000D01*
X283628000Y-107881000D02*
X282320000Y-107881000D01*
X280240000Y-107841000D02*
X278915000Y-107841000D01*
X283645000Y-107841000D02*
X282320000Y-107841000D01*
X280240000Y-107801000D02*
X278898000Y-107801000D01*
X283662000Y-107801000D02*
X282320000Y-107801000D01*
X280240000Y-107761000D02*
X278882000Y-107761000D01*
X283678000Y-107761000D02*
X282320000Y-107761000D01*
X280240000Y-107721000D02*
X278866000Y-107721000D01*
X283694000Y-107721000D02*
X282320000Y-107721000D01*
X280240000Y-107681000D02*
X278852000Y-107681000D01*
X283708000Y-107681000D02*
X282320000Y-107681000D01*
X280240000Y-107641000D02*
X278838000Y-107641000D01*
X283722000Y-107641000D02*
X282320000Y-107641000D01*
X280240000Y-107601000D02*
X278825000Y-107601000D01*
X283735000Y-107601000D02*
X282320000Y-107601000D01*
X280240000Y-107561000D02*
X278812000Y-107561000D01*
X283748000Y-107561000D02*
X282320000Y-107561000D01*
X280240000Y-107521000D02*
X278800000Y-107521000D01*
X283760000Y-107521000D02*
X282320000Y-107521000D01*
X280240000Y-107480000D02*
X278789000Y-107480000D01*
X283771000Y-107480000D02*
X282320000Y-107480000D01*
X280240000Y-107440000D02*
X278779000Y-107440000D01*
X283781000Y-107440000D02*
X282320000Y-107440000D01*
X280240000Y-107400000D02*
X278769000Y-107400000D01*
X283791000Y-107400000D02*
X282320000Y-107400000D01*
X280240000Y-107360000D02*
X278760000Y-107360000D01*
X283800000Y-107360000D02*
X282320000Y-107360000D01*
X280240000Y-107320000D02*
X278752000Y-107320000D01*
X283808000Y-107320000D02*
X282320000Y-107320000D01*
X280240000Y-107280000D02*
X278744000Y-107280000D01*
X283816000Y-107280000D02*
X282320000Y-107280000D01*
X280240000Y-107240000D02*
X278737000Y-107240000D01*
X283823000Y-107240000D02*
X282320000Y-107240000D01*
X280240000Y-107200000D02*
X278730000Y-107200000D01*
X283830000Y-107200000D02*
X282320000Y-107200000D01*
X280240000Y-107160000D02*
X278724000Y-107160000D01*
X283836000Y-107160000D02*
X282320000Y-107160000D01*
X280240000Y-107120000D02*
X278719000Y-107120000D01*
X283841000Y-107120000D02*
X282320000Y-107120000D01*
X280240000Y-107080000D02*
X278715000Y-107080000D01*
X283845000Y-107080000D02*
X282320000Y-107080000D01*
X280240000Y-107040000D02*
X278711000Y-107040000D01*
X283849000Y-107040000D02*
X282320000Y-107040000D01*
X283853000Y-107000000D02*
X278707000Y-107000000D01*
X283856000Y-106960000D02*
X278704000Y-106960000D01*
X283858000Y-106920000D02*
X278702000Y-106920000D01*
X283859000Y-106880000D02*
X278701000Y-106880000D01*
X283860000Y-106840000D02*
X278700000Y-106840000D01*
X283860000Y-106800000D02*
X278700000Y-106800000D01*
X283900000Y-106800000D02*
G75*
G03X283900000Y-106800000I-2620000J0D01*
G01*
X277290000Y-111230225D02*
X276790000Y-111230225D01*
X277040000Y-110980225D02*
X277040000Y-111480225D01*
X275849000Y-116386000D02*
X275281000Y-116386000D01*
X276083000Y-116346000D02*
X275047000Y-116346000D01*
X276242000Y-116306000D02*
X274888000Y-116306000D01*
X276370000Y-116266000D02*
X274760000Y-116266000D01*
X276480000Y-116226000D02*
X274650000Y-116226000D01*
X276576000Y-116186000D02*
X274554000Y-116186000D01*
X276663000Y-116146000D02*
X274467000Y-116146000D01*
X276743000Y-116106000D02*
X274387000Y-116106000D01*
X274525000Y-116066000D02*
X274314000Y-116066000D01*
X276816000Y-116066000D02*
X276605000Y-116066000D01*
X274525000Y-116026000D02*
X274246000Y-116026000D01*
X276884000Y-116026000D02*
X276605000Y-116026000D01*
X274525000Y-115986000D02*
X274182000Y-115986000D01*
X276948000Y-115986000D02*
X276605000Y-115986000D01*
X274525000Y-115946000D02*
X274122000Y-115946000D01*
X277008000Y-115946000D02*
X276605000Y-115946000D01*
X274525000Y-115906000D02*
X274065000Y-115906000D01*
X277065000Y-115906000D02*
X276605000Y-115906000D01*
X274525000Y-115866000D02*
X274011000Y-115866000D01*
X277119000Y-115866000D02*
X276605000Y-115866000D01*
X274525000Y-115826000D02*
X273960000Y-115826000D01*
X277170000Y-115826000D02*
X276605000Y-115826000D01*
X274525000Y-115786000D02*
X273912000Y-115786000D01*
X277218000Y-115786000D02*
X276605000Y-115786000D01*
X274525000Y-115746000D02*
X273866000Y-115746000D01*
X277264000Y-115746000D02*
X276605000Y-115746000D01*
X274525000Y-115706000D02*
X273822000Y-115706000D01*
X277308000Y-115706000D02*
X276605000Y-115706000D01*
X274525000Y-115666000D02*
X273780000Y-115666000D01*
X277350000Y-115666000D02*
X276605000Y-115666000D01*
X274525000Y-115626000D02*
X273739000Y-115626000D01*
X277391000Y-115626000D02*
X276605000Y-115626000D01*
X274525000Y-115586000D02*
X273701000Y-115586000D01*
X277429000Y-115586000D02*
X276605000Y-115586000D01*
X274525000Y-115546000D02*
X273664000Y-115546000D01*
X277466000Y-115546000D02*
X276605000Y-115546000D01*
X274525000Y-115506000D02*
X273628000Y-115506000D01*
X277502000Y-115506000D02*
X276605000Y-115506000D01*
X274525000Y-115466000D02*
X273594000Y-115466000D01*
X277536000Y-115466000D02*
X276605000Y-115466000D01*
X274525000Y-115426000D02*
X273561000Y-115426000D01*
X277569000Y-115426000D02*
X276605000Y-115426000D01*
X274525000Y-115386000D02*
X273530000Y-115386000D01*
X277600000Y-115386000D02*
X276605000Y-115386000D01*
X274525000Y-115346000D02*
X273500000Y-115346000D01*
X277630000Y-115346000D02*
X276605000Y-115346000D01*
X274525000Y-115306000D02*
X273470000Y-115306000D01*
X277660000Y-115306000D02*
X276605000Y-115306000D01*
X274525000Y-115266000D02*
X273443000Y-115266000D01*
X277687000Y-115266000D02*
X276605000Y-115266000D01*
X274525000Y-115226000D02*
X273416000Y-115226000D01*
X277714000Y-115226000D02*
X276605000Y-115226000D01*
X274525000Y-115186000D02*
X273390000Y-115186000D01*
X277740000Y-115186000D02*
X276605000Y-115186000D01*
X274525000Y-115146000D02*
X273365000Y-115146000D01*
X277765000Y-115146000D02*
X276605000Y-115146000D01*
X274525000Y-115106000D02*
X273341000Y-115106000D01*
X277789000Y-115106000D02*
X276605000Y-115106000D01*
X274525000Y-115066000D02*
X273318000Y-115066000D01*
X277812000Y-115066000D02*
X276605000Y-115066000D01*
X274525000Y-115026000D02*
X273297000Y-115026000D01*
X277833000Y-115026000D02*
X276605000Y-115026000D01*
X274525000Y-114986000D02*
X273275000Y-114986000D01*
X277855000Y-114986000D02*
X276605000Y-114986000D01*
X274525000Y-114946000D02*
X273255000Y-114946000D01*
X277875000Y-114946000D02*
X276605000Y-114946000D01*
X274525000Y-114906000D02*
X273236000Y-114906000D01*
X277894000Y-114906000D02*
X276605000Y-114906000D01*
X274525000Y-114866000D02*
X273217000Y-114866000D01*
X277913000Y-114866000D02*
X276605000Y-114866000D01*
X274525000Y-114826000D02*
X273200000Y-114826000D01*
X277930000Y-114826000D02*
X276605000Y-114826000D01*
X274525000Y-114786000D02*
X273183000Y-114786000D01*
X277947000Y-114786000D02*
X276605000Y-114786000D01*
X274525000Y-114746000D02*
X273167000Y-114746000D01*
X277963000Y-114746000D02*
X276605000Y-114746000D01*
X274525000Y-114706000D02*
X273151000Y-114706000D01*
X277979000Y-114706000D02*
X276605000Y-114706000D01*
X274525000Y-114666000D02*
X273137000Y-114666000D01*
X277993000Y-114666000D02*
X276605000Y-114666000D01*
X274525000Y-114626000D02*
X273123000Y-114626000D01*
X278007000Y-114626000D02*
X276605000Y-114626000D01*
X274525000Y-114586000D02*
X273110000Y-114586000D01*
X278020000Y-114586000D02*
X276605000Y-114586000D01*
X274525000Y-114546000D02*
X273097000Y-114546000D01*
X278033000Y-114546000D02*
X276605000Y-114546000D01*
X274525000Y-114506000D02*
X273085000Y-114506000D01*
X278045000Y-114506000D02*
X276605000Y-114506000D01*
X274525000Y-114465000D02*
X273074000Y-114465000D01*
X278056000Y-114465000D02*
X276605000Y-114465000D01*
X274525000Y-114425000D02*
X273064000Y-114425000D01*
X278066000Y-114425000D02*
X276605000Y-114425000D01*
X274525000Y-114385000D02*
X273054000Y-114385000D01*
X278076000Y-114385000D02*
X276605000Y-114385000D01*
X274525000Y-114345000D02*
X273045000Y-114345000D01*
X278085000Y-114345000D02*
X276605000Y-114345000D01*
X274525000Y-114305000D02*
X273037000Y-114305000D01*
X278093000Y-114305000D02*
X276605000Y-114305000D01*
X274525000Y-114265000D02*
X273029000Y-114265000D01*
X278101000Y-114265000D02*
X276605000Y-114265000D01*
X274525000Y-114225000D02*
X273022000Y-114225000D01*
X278108000Y-114225000D02*
X276605000Y-114225000D01*
X274525000Y-114185000D02*
X273015000Y-114185000D01*
X278115000Y-114185000D02*
X276605000Y-114185000D01*
X274525000Y-114145000D02*
X273009000Y-114145000D01*
X278121000Y-114145000D02*
X276605000Y-114145000D01*
X274525000Y-114105000D02*
X273004000Y-114105000D01*
X278126000Y-114105000D02*
X276605000Y-114105000D01*
X274525000Y-114065000D02*
X273000000Y-114065000D01*
X278130000Y-114065000D02*
X276605000Y-114065000D01*
X274525000Y-114025000D02*
X272996000Y-114025000D01*
X278134000Y-114025000D02*
X276605000Y-114025000D01*
X278138000Y-113985000D02*
X272992000Y-113985000D01*
X278141000Y-113945000D02*
X272989000Y-113945000D01*
X278143000Y-113905000D02*
X272987000Y-113905000D01*
X278144000Y-113865000D02*
X272986000Y-113865000D01*
X278145000Y-113825000D02*
X272985000Y-113825000D01*
X278145000Y-113785000D02*
X272985000Y-113785000D01*
X278185000Y-113785000D02*
G75*
G03X278185000Y-113785000I-2620000J0D01*
G01*
D10*
X250283333Y-109041666D02*
X250283333Y-108341666D01*
X250450000Y-108341666D01*
X250550000Y-108375000D01*
X250616666Y-108441666D01*
X250650000Y-108508333D01*
X250683333Y-108641666D01*
X250683333Y-108741666D01*
X250650000Y-108875000D01*
X250616666Y-108941666D01*
X250550000Y-109008333D01*
X250450000Y-109041666D01*
X250283333Y-109041666D01*
X251316666Y-108341666D02*
X250983333Y-108341666D01*
X250950000Y-108675000D01*
X250983333Y-108641666D01*
X251050000Y-108608333D01*
X251216666Y-108608333D01*
X251283333Y-108641666D01*
X251316666Y-108675000D01*
X251350000Y-108741666D01*
X251350000Y-108908333D01*
X251316666Y-108975000D01*
X251283333Y-109008333D01*
X251216666Y-109041666D01*
X251050000Y-109041666D01*
X250983333Y-109008333D01*
X250950000Y-108975000D01*
X235110000Y-102056666D02*
X234876666Y-101723333D01*
X234710000Y-102056666D02*
X234710000Y-101356666D01*
X234976666Y-101356666D01*
X235043333Y-101390000D01*
X235076666Y-101423333D01*
X235110000Y-101490000D01*
X235110000Y-101590000D01*
X235076666Y-101656666D01*
X235043333Y-101690000D01*
X234976666Y-101723333D01*
X234710000Y-101723333D01*
X235776666Y-102056666D02*
X235376666Y-102056666D01*
X235576666Y-102056666D02*
X235576666Y-101356666D01*
X235510000Y-101456666D01*
X235443333Y-101523333D01*
X235376666Y-101556666D01*
X236043333Y-101423333D02*
X236076666Y-101390000D01*
X236143333Y-101356666D01*
X236310000Y-101356666D01*
X236376666Y-101390000D01*
X236410000Y-101423333D01*
X236443333Y-101490000D01*
X236443333Y-101556666D01*
X236410000Y-101656666D01*
X236010000Y-102056666D01*
X236443333Y-102056666D01*
X240190000Y-102056666D02*
X239956666Y-101723333D01*
X239790000Y-102056666D02*
X239790000Y-101356666D01*
X240056666Y-101356666D01*
X240123333Y-101390000D01*
X240156666Y-101423333D01*
X240190000Y-101490000D01*
X240190000Y-101590000D01*
X240156666Y-101656666D01*
X240123333Y-101690000D01*
X240056666Y-101723333D01*
X239790000Y-101723333D01*
X240856666Y-102056666D02*
X240456666Y-102056666D01*
X240656666Y-102056666D02*
X240656666Y-101356666D01*
X240590000Y-101456666D01*
X240523333Y-101523333D01*
X240456666Y-101556666D01*
X241523333Y-102056666D02*
X241123333Y-102056666D01*
X241323333Y-102056666D02*
X241323333Y-101356666D01*
X241256666Y-101456666D01*
X241190000Y-101523333D01*
X241123333Y-101556666D01*
X207286666Y-145642380D02*
X207286666Y-146356666D01*
X207239047Y-146499523D01*
X207143809Y-146594761D01*
X207000952Y-146642380D01*
X206905714Y-146642380D01*
X207715238Y-145737619D02*
X207762857Y-145690000D01*
X207858095Y-145642380D01*
X208096190Y-145642380D01*
X208191428Y-145690000D01*
X208239047Y-145737619D01*
X208286666Y-145832857D01*
X208286666Y-145928095D01*
X208239047Y-146070952D01*
X207667619Y-146642380D01*
X208286666Y-146642380D01*
X219558095Y-109447380D02*
X219558095Y-110256904D01*
X219605714Y-110352142D01*
X219653333Y-110399761D01*
X219748571Y-110447380D01*
X219939047Y-110447380D01*
X220034285Y-110399761D01*
X220081904Y-110352142D01*
X220129523Y-110256904D01*
X220129523Y-109447380D01*
X221129523Y-110447380D02*
X220558095Y-110447380D01*
X220843809Y-110447380D02*
X220843809Y-109447380D01*
X220748571Y-109590238D01*
X220653333Y-109685476D01*
X220558095Y-109733095D01*
X265071666Y-115162380D02*
X265071666Y-115876666D01*
X265024047Y-116019523D01*
X264928809Y-116114761D01*
X264785952Y-116162380D01*
X264690714Y-116162380D01*
X265452619Y-115162380D02*
X266071666Y-115162380D01*
X265738333Y-115543333D01*
X265881190Y-115543333D01*
X265976428Y-115590952D01*
X266024047Y-115638571D01*
X266071666Y-115733809D01*
X266071666Y-115971904D01*
X266024047Y-116067142D01*
X265976428Y-116114761D01*
X265881190Y-116162380D01*
X265595476Y-116162380D01*
X265500238Y-116114761D01*
X265452619Y-116067142D01*
X265222380Y-100525476D02*
X264746190Y-100858809D01*
X265222380Y-101096904D02*
X264222380Y-101096904D01*
X264222380Y-100715952D01*
X264270000Y-100620714D01*
X264317619Y-100573095D01*
X264412857Y-100525476D01*
X264555714Y-100525476D01*
X264650952Y-100573095D01*
X264698571Y-100620714D01*
X264746190Y-100715952D01*
X264746190Y-101096904D01*
X265222380Y-100096904D02*
X264222380Y-100096904D01*
X265222380Y-99525476D01*
X264222380Y-99525476D01*
X264555714Y-98620714D02*
X265222380Y-98620714D01*
X264174761Y-98858809D02*
X264889047Y-99096904D01*
X264889047Y-98477857D01*
X255546666Y-147928380D02*
X255546666Y-148642666D01*
X255499047Y-148785523D01*
X255403809Y-148880761D01*
X255260952Y-148928380D01*
X255165714Y-148928380D01*
X255927619Y-147928380D02*
X256594285Y-147928380D01*
X256165714Y-148928380D01*
X231416666Y-102462380D02*
X231416666Y-103176666D01*
X231369047Y-103319523D01*
X231273809Y-103414761D01*
X231130952Y-103462380D01*
X231035714Y-103462380D01*
X232321428Y-102462380D02*
X232130952Y-102462380D01*
X232035714Y-102510000D01*
X231988095Y-102557619D01*
X231892857Y-102700476D01*
X231845238Y-102890952D01*
X231845238Y-103271904D01*
X231892857Y-103367142D01*
X231940476Y-103414761D01*
X232035714Y-103462380D01*
X232226190Y-103462380D01*
X232321428Y-103414761D01*
X232369047Y-103367142D01*
X232416666Y-103271904D01*
X232416666Y-103033809D01*
X232369047Y-102938571D01*
X232321428Y-102890952D01*
X232226190Y-102843333D01*
X232035714Y-102843333D01*
X231940476Y-102890952D01*
X231892857Y-102938571D01*
X231845238Y-103033809D01*
X248942666Y-109320380D02*
X248942666Y-110034666D01*
X248895047Y-110177523D01*
X248799809Y-110272761D01*
X248656952Y-110320380D01*
X248561714Y-110320380D01*
X249895047Y-109320380D02*
X249418857Y-109320380D01*
X249371238Y-109796571D01*
X249418857Y-109748952D01*
X249514095Y-109701333D01*
X249752190Y-109701333D01*
X249847428Y-109748952D01*
X249895047Y-109796571D01*
X249942666Y-109891809D01*
X249942666Y-110129904D01*
X249895047Y-110225142D01*
X249847428Y-110272761D01*
X249752190Y-110320380D01*
X249514095Y-110320380D01*
X249418857Y-110272761D01*
X249371238Y-110225142D01*
X236861904Y-121877380D02*
X236861904Y-120877380D01*
X237242857Y-120877380D01*
X237338095Y-120925000D01*
X237385714Y-120972619D01*
X237433333Y-121067857D01*
X237433333Y-121210714D01*
X237385714Y-121305952D01*
X237338095Y-121353571D01*
X237242857Y-121401190D01*
X236861904Y-121401190D01*
X238433333Y-121782142D02*
X238385714Y-121829761D01*
X238242857Y-121877380D01*
X238147619Y-121877380D01*
X238004761Y-121829761D01*
X237909523Y-121734523D01*
X237861904Y-121639285D01*
X237814285Y-121448809D01*
X237814285Y-121305952D01*
X237861904Y-121115476D01*
X237909523Y-121020238D01*
X238004761Y-120925000D01*
X238147619Y-120877380D01*
X238242857Y-120877380D01*
X238385714Y-120925000D01*
X238433333Y-120972619D01*
X239338095Y-120877380D02*
X238861904Y-120877380D01*
X238814285Y-121353571D01*
X238861904Y-121305952D01*
X238957142Y-121258333D01*
X239195238Y-121258333D01*
X239290476Y-121305952D01*
X239338095Y-121353571D01*
X239385714Y-121448809D01*
X239385714Y-121686904D01*
X239338095Y-121782142D01*
X239290476Y-121829761D01*
X239195238Y-121877380D01*
X238957142Y-121877380D01*
X238861904Y-121829761D01*
X238814285Y-121782142D01*
X280311666Y-109955380D02*
X280311666Y-110669666D01*
X280264047Y-110812523D01*
X280168809Y-110907761D01*
X280025952Y-110955380D01*
X279930714Y-110955380D01*
X280835476Y-110955380D02*
X281025952Y-110955380D01*
X281121190Y-110907761D01*
X281168809Y-110860142D01*
X281264047Y-110717285D01*
X281311666Y-110526809D01*
X281311666Y-110145857D01*
X281264047Y-110050619D01*
X281216428Y-110003000D01*
X281121190Y-109955380D01*
X280930714Y-109955380D01*
X280835476Y-110003000D01*
X280787857Y-110050619D01*
X280740238Y-110145857D01*
X280740238Y-110383952D01*
X280787857Y-110479190D01*
X280835476Y-110526809D01*
X280930714Y-110574428D01*
X281121190Y-110574428D01*
X281216428Y-110526809D01*
X281264047Y-110479190D01*
X281311666Y-110383952D01*
X229718095Y-126084380D02*
X229718095Y-126893904D01*
X229765714Y-126989142D01*
X229813333Y-127036761D01*
X229908571Y-127084380D01*
X230099047Y-127084380D01*
X230194285Y-127036761D01*
X230241904Y-126989142D01*
X230289523Y-126893904D01*
X230289523Y-126084380D01*
X231194285Y-126084380D02*
X231003809Y-126084380D01*
X230908571Y-126132000D01*
X230860952Y-126179619D01*
X230765714Y-126322476D01*
X230718095Y-126512952D01*
X230718095Y-126893904D01*
X230765714Y-126989142D01*
X230813333Y-127036761D01*
X230908571Y-127084380D01*
X231099047Y-127084380D01*
X231194285Y-127036761D01*
X231241904Y-126989142D01*
X231289523Y-126893904D01*
X231289523Y-126655809D01*
X231241904Y-126560571D01*
X231194285Y-126512952D01*
X231099047Y-126465333D01*
X230908571Y-126465333D01*
X230813333Y-126512952D01*
X230765714Y-126560571D01*
X230718095Y-126655809D01*
X201246285Y-142308571D02*
X201389142Y-142356190D01*
X201436761Y-142403809D01*
X201484380Y-142499047D01*
X201484380Y-142641904D01*
X201436761Y-142737142D01*
X201389142Y-142784761D01*
X201293904Y-142832380D01*
X200912952Y-142832380D01*
X200912952Y-141832380D01*
X201246285Y-141832380D01*
X201341523Y-141880000D01*
X201389142Y-141927619D01*
X201436761Y-142022857D01*
X201436761Y-142118095D01*
X201389142Y-142213333D01*
X201341523Y-142260952D01*
X201246285Y-142308571D01*
X200912952Y-142308571D01*
X201770095Y-141832380D02*
X202341523Y-141832380D01*
X202055809Y-142832380D02*
X202055809Y-141832380D01*
X203198666Y-142832380D02*
X202627238Y-142832380D01*
X202912952Y-142832380D02*
X202912952Y-141832380D01*
X202817714Y-141975238D01*
X202722476Y-142070476D01*
X202627238Y-142118095D01*
X201571666Y-115797380D02*
X201571666Y-116511666D01*
X201524047Y-116654523D01*
X201428809Y-116749761D01*
X201285952Y-116797380D01*
X201190714Y-116797380D01*
X202190714Y-116225952D02*
X202095476Y-116178333D01*
X202047857Y-116130714D01*
X202000238Y-116035476D01*
X202000238Y-115987857D01*
X202047857Y-115892619D01*
X202095476Y-115845000D01*
X202190714Y-115797380D01*
X202381190Y-115797380D01*
X202476428Y-115845000D01*
X202524047Y-115892619D01*
X202571666Y-115987857D01*
X202571666Y-116035476D01*
X202524047Y-116130714D01*
X202476428Y-116178333D01*
X202381190Y-116225952D01*
X202190714Y-116225952D01*
X202095476Y-116273571D01*
X202047857Y-116321190D01*
X202000238Y-116416428D01*
X202000238Y-116606904D01*
X202047857Y-116702142D01*
X202095476Y-116749761D01*
X202190714Y-116797380D01*
X202381190Y-116797380D01*
X202476428Y-116749761D01*
X202524047Y-116702142D01*
X202571666Y-116606904D01*
X202571666Y-116416428D01*
X202524047Y-116321190D01*
X202476428Y-116273571D01*
X202381190Y-116225952D01*
X279258333Y-120471666D02*
X279025000Y-120138333D01*
X278858333Y-120471666D02*
X278858333Y-119771666D01*
X279125000Y-119771666D01*
X279191666Y-119805000D01*
X279225000Y-119838333D01*
X279258333Y-119905000D01*
X279258333Y-120005000D01*
X279225000Y-120071666D01*
X279191666Y-120105000D01*
X279125000Y-120138333D01*
X278858333Y-120138333D01*
X279891666Y-119771666D02*
X279558333Y-119771666D01*
X279525000Y-120105000D01*
X279558333Y-120071666D01*
X279625000Y-120038333D01*
X279791666Y-120038333D01*
X279858333Y-120071666D01*
X279891666Y-120105000D01*
X279925000Y-120171666D01*
X279925000Y-120338333D01*
X279891666Y-120405000D01*
X279858333Y-120438333D01*
X279791666Y-120471666D01*
X279625000Y-120471666D01*
X279558333Y-120438333D01*
X279525000Y-120405000D01*
X247926666Y-133418571D02*
X247593333Y-133418571D01*
X247593333Y-133942380D02*
X247593333Y-132942380D01*
X248069523Y-132942380D01*
X248402857Y-133037619D02*
X248450476Y-132990000D01*
X248545714Y-132942380D01*
X248783809Y-132942380D01*
X248879047Y-132990000D01*
X248926666Y-133037619D01*
X248974285Y-133132857D01*
X248974285Y-133228095D01*
X248926666Y-133370952D01*
X248355238Y-133942380D01*
X248974285Y-133942380D01*
X237258666Y-145388380D02*
X237258666Y-146102666D01*
X237211047Y-146245523D01*
X237115809Y-146340761D01*
X236972952Y-146388380D01*
X236877714Y-146388380D01*
X238258666Y-146388380D02*
X237687238Y-146388380D01*
X237972952Y-146388380D02*
X237972952Y-145388380D01*
X237877714Y-145531238D01*
X237782476Y-145626476D01*
X237687238Y-145674095D01*
X279732142Y-103811666D02*
X279779761Y-103859285D01*
X279827380Y-104002142D01*
X279827380Y-104097380D01*
X279779761Y-104240238D01*
X279684523Y-104335476D01*
X279589285Y-104383095D01*
X279398809Y-104430714D01*
X279255952Y-104430714D01*
X279065476Y-104383095D01*
X278970238Y-104335476D01*
X278875000Y-104240238D01*
X278827380Y-104097380D01*
X278827380Y-104002142D01*
X278875000Y-103859285D01*
X278922619Y-103811666D01*
X279160714Y-102954523D02*
X279827380Y-102954523D01*
X278779761Y-103192619D02*
X279494047Y-103430714D01*
X279494047Y-102811666D01*
X276477904Y-109177380D02*
X276477904Y-108177380D01*
X276716000Y-108177380D01*
X276858857Y-108225000D01*
X276954095Y-108320238D01*
X277001714Y-108415476D01*
X277049333Y-108605952D01*
X277049333Y-108748809D01*
X277001714Y-108939285D01*
X276954095Y-109034523D01*
X276858857Y-109129761D01*
X276716000Y-109177380D01*
X276477904Y-109177380D01*
X277525523Y-109177380D02*
X277716000Y-109177380D01*
X277811238Y-109129761D01*
X277858857Y-109082142D01*
X277954095Y-108939285D01*
X278001714Y-108748809D01*
X278001714Y-108367857D01*
X277954095Y-108272619D01*
X277906476Y-108225000D01*
X277811238Y-108177380D01*
X277620761Y-108177380D01*
X277525523Y-108225000D01*
X277477904Y-108272619D01*
X277430285Y-108367857D01*
X277430285Y-108605952D01*
X277477904Y-108701190D01*
X277525523Y-108748809D01*
X277620761Y-108796428D01*
X277811238Y-108796428D01*
X277906476Y-108748809D01*
X277954095Y-108701190D01*
X278001714Y-108605952D01*
X235043333Y-109041666D02*
X235043333Y-108341666D01*
X235210000Y-108341666D01*
X235310000Y-108375000D01*
X235376666Y-108441666D01*
X235410000Y-108508333D01*
X235443333Y-108641666D01*
X235443333Y-108741666D01*
X235410000Y-108875000D01*
X235376666Y-108941666D01*
X235310000Y-109008333D01*
X235210000Y-109041666D01*
X235043333Y-109041666D01*
X235843333Y-108641666D02*
X235776666Y-108608333D01*
X235743333Y-108575000D01*
X235710000Y-108508333D01*
X235710000Y-108475000D01*
X235743333Y-108408333D01*
X235776666Y-108375000D01*
X235843333Y-108341666D01*
X235976666Y-108341666D01*
X236043333Y-108375000D01*
X236076666Y-108408333D01*
X236110000Y-108475000D01*
X236110000Y-108508333D01*
X236076666Y-108575000D01*
X236043333Y-108608333D01*
X235976666Y-108641666D01*
X235843333Y-108641666D01*
X235776666Y-108675000D01*
X235743333Y-108708333D01*
X235710000Y-108775000D01*
X235710000Y-108908333D01*
X235743333Y-108975000D01*
X235776666Y-109008333D01*
X235843333Y-109041666D01*
X235976666Y-109041666D01*
X236043333Y-109008333D01*
X236076666Y-108975000D01*
X236110000Y-108908333D01*
X236110000Y-108775000D01*
X236076666Y-108708333D01*
X236043333Y-108675000D01*
X235976666Y-108641666D01*
X240123333Y-109041666D02*
X240123333Y-108341666D01*
X240290000Y-108341666D01*
X240390000Y-108375000D01*
X240456666Y-108441666D01*
X240490000Y-108508333D01*
X240523333Y-108641666D01*
X240523333Y-108741666D01*
X240490000Y-108875000D01*
X240456666Y-108941666D01*
X240390000Y-109008333D01*
X240290000Y-109041666D01*
X240123333Y-109041666D01*
X240756666Y-108341666D02*
X241223333Y-108341666D01*
X240923333Y-109041666D01*
X245203333Y-109041666D02*
X245203333Y-108341666D01*
X245370000Y-108341666D01*
X245470000Y-108375000D01*
X245536666Y-108441666D01*
X245570000Y-108508333D01*
X245603333Y-108641666D01*
X245603333Y-108741666D01*
X245570000Y-108875000D01*
X245536666Y-108941666D01*
X245470000Y-109008333D01*
X245370000Y-109041666D01*
X245203333Y-109041666D01*
X246203333Y-108341666D02*
X246070000Y-108341666D01*
X246003333Y-108375000D01*
X245970000Y-108408333D01*
X245903333Y-108508333D01*
X245870000Y-108641666D01*
X245870000Y-108908333D01*
X245903333Y-108975000D01*
X245936666Y-109008333D01*
X246003333Y-109041666D01*
X246136666Y-109041666D01*
X246203333Y-109008333D01*
X246236666Y-108975000D01*
X246270000Y-108908333D01*
X246270000Y-108741666D01*
X246236666Y-108675000D01*
X246203333Y-108641666D01*
X246136666Y-108608333D01*
X246003333Y-108608333D01*
X245936666Y-108641666D01*
X245903333Y-108675000D01*
X245870000Y-108741666D01*
X265523333Y-120471666D02*
X265523333Y-119771666D01*
X265690000Y-119771666D01*
X265790000Y-119805000D01*
X265856666Y-119871666D01*
X265890000Y-119938333D01*
X265923333Y-120071666D01*
X265923333Y-120171666D01*
X265890000Y-120305000D01*
X265856666Y-120371666D01*
X265790000Y-120438333D01*
X265690000Y-120471666D01*
X265523333Y-120471666D01*
X266523333Y-120005000D02*
X266523333Y-120471666D01*
X266356666Y-119738333D02*
X266190000Y-120238333D01*
X266623333Y-120238333D01*
X270603333Y-120471666D02*
X270603333Y-119771666D01*
X270770000Y-119771666D01*
X270870000Y-119805000D01*
X270936666Y-119871666D01*
X270970000Y-119938333D01*
X271003333Y-120071666D01*
X271003333Y-120171666D01*
X270970000Y-120305000D01*
X270936666Y-120371666D01*
X270870000Y-120438333D01*
X270770000Y-120471666D01*
X270603333Y-120471666D01*
X271236666Y-119771666D02*
X271670000Y-119771666D01*
X271436666Y-120038333D01*
X271536666Y-120038333D01*
X271603333Y-120071666D01*
X271636666Y-120105000D01*
X271670000Y-120171666D01*
X271670000Y-120338333D01*
X271636666Y-120405000D01*
X271603333Y-120438333D01*
X271536666Y-120471666D01*
X271336666Y-120471666D01*
X271270000Y-120438333D01*
X271236666Y-120405000D01*
X275683333Y-120471666D02*
X275683333Y-119771666D01*
X275850000Y-119771666D01*
X275950000Y-119805000D01*
X276016666Y-119871666D01*
X276050000Y-119938333D01*
X276083333Y-120071666D01*
X276083333Y-120171666D01*
X276050000Y-120305000D01*
X276016666Y-120371666D01*
X275950000Y-120438333D01*
X275850000Y-120471666D01*
X275683333Y-120471666D01*
X276350000Y-119838333D02*
X276383333Y-119805000D01*
X276450000Y-119771666D01*
X276616666Y-119771666D01*
X276683333Y-119805000D01*
X276716666Y-119838333D01*
X276750000Y-119905000D01*
X276750000Y-119971666D01*
X276716666Y-120071666D01*
X276316666Y-120471666D01*
X276750000Y-120471666D01*
X280763333Y-120471666D02*
X280763333Y-119771666D01*
X280930000Y-119771666D01*
X281030000Y-119805000D01*
X281096666Y-119871666D01*
X281130000Y-119938333D01*
X281163333Y-120071666D01*
X281163333Y-120171666D01*
X281130000Y-120305000D01*
X281096666Y-120371666D01*
X281030000Y-120438333D01*
X280930000Y-120471666D01*
X280763333Y-120471666D01*
X281830000Y-120471666D02*
X281430000Y-120471666D01*
X281630000Y-120471666D02*
X281630000Y-119771666D01*
X281563333Y-119871666D01*
X281496666Y-119938333D01*
X281430000Y-119971666D01*
X253681333Y-128767142D02*
X253633714Y-128814761D01*
X253490857Y-128862380D01*
X253395619Y-128862380D01*
X253252761Y-128814761D01*
X253157523Y-128719523D01*
X253109904Y-128624285D01*
X253062285Y-128433809D01*
X253062285Y-128290952D01*
X253109904Y-128100476D01*
X253157523Y-128005238D01*
X253252761Y-127910000D01*
X253395619Y-127862380D01*
X253490857Y-127862380D01*
X253633714Y-127910000D01*
X253681333Y-127957619D01*
X254538476Y-127862380D02*
X254348000Y-127862380D01*
X254252761Y-127910000D01*
X254205142Y-127957619D01*
X254109904Y-128100476D01*
X254062285Y-128290952D01*
X254062285Y-128671904D01*
X254109904Y-128767142D01*
X254157523Y-128814761D01*
X254252761Y-128862380D01*
X254443238Y-128862380D01*
X254538476Y-128814761D01*
X254586095Y-128767142D01*
X254633714Y-128671904D01*
X254633714Y-128433809D01*
X254586095Y-128338571D01*
X254538476Y-128290952D01*
X254443238Y-128243333D01*
X254252761Y-128243333D01*
X254157523Y-128290952D01*
X254109904Y-128338571D01*
X254062285Y-128433809D01*
X207453333Y-115432142D02*
X207405714Y-115479761D01*
X207262857Y-115527380D01*
X207167619Y-115527380D01*
X207024761Y-115479761D01*
X206929523Y-115384523D01*
X206881904Y-115289285D01*
X206834285Y-115098809D01*
X206834285Y-114955952D01*
X206881904Y-114765476D01*
X206929523Y-114670238D01*
X207024761Y-114575000D01*
X207167619Y-114527380D01*
X207262857Y-114527380D01*
X207405714Y-114575000D01*
X207453333Y-114622619D01*
X207834285Y-114622619D02*
X207881904Y-114575000D01*
X207977142Y-114527380D01*
X208215238Y-114527380D01*
X208310476Y-114575000D01*
X208358095Y-114622619D01*
X208405714Y-114717857D01*
X208405714Y-114813095D01*
X208358095Y-114955952D01*
X207786666Y-115527380D01*
X208405714Y-115527380D01*
X207453333Y-135752142D02*
X207405714Y-135799761D01*
X207262857Y-135847380D01*
X207167619Y-135847380D01*
X207024761Y-135799761D01*
X206929523Y-135704523D01*
X206881904Y-135609285D01*
X206834285Y-135418809D01*
X206834285Y-135275952D01*
X206881904Y-135085476D01*
X206929523Y-134990238D01*
X207024761Y-134895000D01*
X207167619Y-134847380D01*
X207262857Y-134847380D01*
X207405714Y-134895000D01*
X207453333Y-134942619D01*
X208405714Y-135847380D02*
X207834285Y-135847380D01*
X208120000Y-135847380D02*
X208120000Y-134847380D01*
X208024761Y-134990238D01*
X207929523Y-135085476D01*
X207834285Y-135133095D01*
X207143809Y-125211190D02*
X207143809Y-125687380D01*
X206810476Y-124687380D02*
X207143809Y-125211190D01*
X207477142Y-124687380D01*
X208334285Y-125687380D02*
X207762857Y-125687380D01*
X208048571Y-125687380D02*
X208048571Y-124687380D01*
X207953333Y-124830238D01*
X207858095Y-124925476D01*
X207762857Y-124973095D01*
X280518095Y-96747380D02*
X280518095Y-97556904D01*
X280565714Y-97652142D01*
X280613333Y-97699761D01*
X280708571Y-97747380D01*
X280899047Y-97747380D01*
X280994285Y-97699761D01*
X281041904Y-97652142D01*
X281089523Y-97556904D01*
X281089523Y-96747380D01*
X282041904Y-96747380D02*
X281565714Y-96747380D01*
X281518095Y-97223571D01*
X281565714Y-97175952D01*
X281660952Y-97128333D01*
X281899047Y-97128333D01*
X281994285Y-97175952D01*
X282041904Y-97223571D01*
X282089523Y-97318809D01*
X282089523Y-97556904D01*
X282041904Y-97652142D01*
X281994285Y-97699761D01*
X281899047Y-97747380D01*
X281660952Y-97747380D01*
X281565714Y-97699761D01*
X281518095Y-97652142D01*
X217018095Y-123417380D02*
X217018095Y-124226904D01*
X217065714Y-124322142D01*
X217113333Y-124369761D01*
X217208571Y-124417380D01*
X217399047Y-124417380D01*
X217494285Y-124369761D01*
X217541904Y-124322142D01*
X217589523Y-124226904D01*
X217589523Y-123417380D01*
X218494285Y-123750714D02*
X218494285Y-124417380D01*
X218256190Y-123369761D02*
X218018095Y-124084047D01*
X218637142Y-124084047D01*
X263754095Y-125576380D02*
X263754095Y-126385904D01*
X263801714Y-126481142D01*
X263849333Y-126528761D01*
X263944571Y-126576380D01*
X264135047Y-126576380D01*
X264230285Y-126528761D01*
X264277904Y-126481142D01*
X264325523Y-126385904D01*
X264325523Y-125576380D01*
X264754095Y-125671619D02*
X264801714Y-125624000D01*
X264896952Y-125576380D01*
X265135047Y-125576380D01*
X265230285Y-125624000D01*
X265277904Y-125671619D01*
X265325523Y-125766857D01*
X265325523Y-125862095D01*
X265277904Y-126004952D01*
X264706476Y-126576380D01*
X265325523Y-126576380D01*
X220899523Y-126068380D02*
X220566190Y-125592190D01*
X220328095Y-126068380D02*
X220328095Y-125068380D01*
X220709047Y-125068380D01*
X220804285Y-125116000D01*
X220851904Y-125163619D01*
X220899523Y-125258857D01*
X220899523Y-125401714D01*
X220851904Y-125496952D01*
X220804285Y-125544571D01*
X220709047Y-125592190D01*
X220328095Y-125592190D01*
X221328095Y-126068380D02*
X221328095Y-125068380D01*
X221899523Y-126068380D01*
X221899523Y-125068380D01*
X222280476Y-125068380D02*
X222899523Y-125068380D01*
X222566190Y-125449333D01*
X222709047Y-125449333D01*
X222804285Y-125496952D01*
X222851904Y-125544571D01*
X222899523Y-125639809D01*
X222899523Y-125877904D01*
X222851904Y-125973142D01*
X222804285Y-126020761D01*
X222709047Y-126068380D01*
X222423333Y-126068380D01*
X222328095Y-126020761D01*
X222280476Y-125973142D01*
X283764523Y-126957380D02*
X283431190Y-126481190D01*
X283193095Y-126957380D02*
X283193095Y-125957380D01*
X283574047Y-125957380D01*
X283669285Y-126005000D01*
X283716904Y-126052619D01*
X283764523Y-126147857D01*
X283764523Y-126290714D01*
X283716904Y-126385952D01*
X283669285Y-126433571D01*
X283574047Y-126481190D01*
X283193095Y-126481190D01*
X284193095Y-126957380D02*
X284193095Y-125957380D01*
X284764523Y-126957380D01*
X284764523Y-125957380D01*
X285193095Y-126052619D02*
X285240714Y-126005000D01*
X285335952Y-125957380D01*
X285574047Y-125957380D01*
X285669285Y-126005000D01*
X285716904Y-126052619D01*
X285764523Y-126147857D01*
X285764523Y-126243095D01*
X285716904Y-126385952D01*
X285145476Y-126957380D01*
X285764523Y-126957380D01*
X283764523Y-142197380D02*
X283431190Y-141721190D01*
X283193095Y-142197380D02*
X283193095Y-141197380D01*
X283574047Y-141197380D01*
X283669285Y-141245000D01*
X283716904Y-141292619D01*
X283764523Y-141387857D01*
X283764523Y-141530714D01*
X283716904Y-141625952D01*
X283669285Y-141673571D01*
X283574047Y-141721190D01*
X283193095Y-141721190D01*
X284193095Y-142197380D02*
X284193095Y-141197380D01*
X284764523Y-142197380D01*
X284764523Y-141197380D01*
X285764523Y-142197380D02*
X285193095Y-142197380D01*
X285478809Y-142197380D02*
X285478809Y-141197380D01*
X285383571Y-141340238D01*
X285288333Y-141435476D01*
X285193095Y-141483095D01*
X247617142Y-127084380D02*
X247283809Y-126608190D01*
X247045714Y-127084380D02*
X247045714Y-126084380D01*
X247426666Y-126084380D01*
X247521904Y-126132000D01*
X247569523Y-126179619D01*
X247617142Y-126274857D01*
X247617142Y-126417714D01*
X247569523Y-126512952D01*
X247521904Y-126560571D01*
X247426666Y-126608190D01*
X247045714Y-126608190D01*
X248569523Y-127084380D02*
X247998095Y-127084380D01*
X248283809Y-127084380D02*
X248283809Y-126084380D01*
X248188571Y-126227238D01*
X248093333Y-126322476D01*
X247998095Y-126370095D01*
X249140952Y-126512952D02*
X249045714Y-126465333D01*
X248998095Y-126417714D01*
X248950476Y-126322476D01*
X248950476Y-126274857D01*
X248998095Y-126179619D01*
X249045714Y-126132000D01*
X249140952Y-126084380D01*
X249331428Y-126084380D01*
X249426666Y-126132000D01*
X249474285Y-126179619D01*
X249521904Y-126274857D01*
X249521904Y-126322476D01*
X249474285Y-126417714D01*
X249426666Y-126465333D01*
X249331428Y-126512952D01*
X249140952Y-126512952D01*
X249045714Y-126560571D01*
X248998095Y-126608190D01*
X248950476Y-126703428D01*
X248950476Y-126893904D01*
X248998095Y-126989142D01*
X249045714Y-127036761D01*
X249140952Y-127084380D01*
X249331428Y-127084380D01*
X249426666Y-127036761D01*
X249474285Y-126989142D01*
X249521904Y-126893904D01*
X249521904Y-126703428D01*
X249474285Y-126608190D01*
X249426666Y-126560571D01*
X249331428Y-126512952D01*
X276017380Y-103652857D02*
X275541190Y-103986190D01*
X276017380Y-104224285D02*
X275017380Y-104224285D01*
X275017380Y-103843333D01*
X275065000Y-103748095D01*
X275112619Y-103700476D01*
X275207857Y-103652857D01*
X275350714Y-103652857D01*
X275445952Y-103700476D01*
X275493571Y-103748095D01*
X275541190Y-103843333D01*
X275541190Y-104224285D01*
X276017380Y-102700476D02*
X276017380Y-103271904D01*
X276017380Y-102986190D02*
X275017380Y-102986190D01*
X275160238Y-103081428D01*
X275255476Y-103176666D01*
X275303095Y-103271904D01*
X275017380Y-102367142D02*
X275017380Y-101700476D01*
X276017380Y-102129047D01*
X249846278Y-112216666D02*
X249612944Y-111883333D01*
X249446278Y-112216666D02*
X249446278Y-111516666D01*
X249712944Y-111516666D01*
X249779611Y-111550000D01*
X249812944Y-111583333D01*
X249846278Y-111650000D01*
X249846278Y-111750000D01*
X249812944Y-111816666D01*
X249779611Y-111850000D01*
X249712944Y-111883333D01*
X249446278Y-111883333D01*
X250512944Y-112216666D02*
X250112944Y-112216666D01*
X250312944Y-112216666D02*
X250312944Y-111516666D01*
X250246278Y-111616666D01*
X250179611Y-111683333D01*
X250112944Y-111716666D01*
X251112944Y-111516666D02*
X250979611Y-111516666D01*
X250912944Y-111550000D01*
X250879611Y-111583333D01*
X250812944Y-111683333D01*
X250779611Y-111816666D01*
X250779611Y-112083333D01*
X250812944Y-112150000D01*
X250846278Y-112183333D01*
X250912944Y-112216666D01*
X251046278Y-112216666D01*
X251112944Y-112183333D01*
X251146278Y-112150000D01*
X251179611Y-112083333D01*
X251179611Y-111916666D01*
X251146278Y-111850000D01*
X251112944Y-111816666D01*
X251046278Y-111783333D01*
X250912944Y-111783333D01*
X250846278Y-111816666D01*
X250812944Y-111850000D01*
X250779611Y-111916666D01*
X249846278Y-114756666D02*
X249612944Y-114423333D01*
X249446278Y-114756666D02*
X249446278Y-114056666D01*
X249712944Y-114056666D01*
X249779611Y-114090000D01*
X249812944Y-114123333D01*
X249846278Y-114190000D01*
X249846278Y-114290000D01*
X249812944Y-114356666D01*
X249779611Y-114390000D01*
X249712944Y-114423333D01*
X249446278Y-114423333D01*
X250512944Y-114756666D02*
X250112944Y-114756666D01*
X250312944Y-114756666D02*
X250312944Y-114056666D01*
X250246278Y-114156666D01*
X250179611Y-114223333D01*
X250112944Y-114256666D01*
X251146278Y-114056666D02*
X250812944Y-114056666D01*
X250779611Y-114390000D01*
X250812944Y-114356666D01*
X250879611Y-114323333D01*
X251046278Y-114323333D01*
X251112944Y-114356666D01*
X251146278Y-114390000D01*
X251179611Y-114456666D01*
X251179611Y-114623333D01*
X251146278Y-114690000D01*
X251112944Y-114723333D01*
X251046278Y-114756666D01*
X250879611Y-114756666D01*
X250812944Y-114723333D01*
X250779611Y-114690000D01*
X249846278Y-117296666D02*
X249612944Y-116963333D01*
X249446278Y-117296666D02*
X249446278Y-116596666D01*
X249712944Y-116596666D01*
X249779611Y-116630000D01*
X249812944Y-116663333D01*
X249846278Y-116730000D01*
X249846278Y-116830000D01*
X249812944Y-116896666D01*
X249779611Y-116930000D01*
X249712944Y-116963333D01*
X249446278Y-116963333D01*
X250512944Y-117296666D02*
X250112944Y-117296666D01*
X250312944Y-117296666D02*
X250312944Y-116596666D01*
X250246278Y-116696666D01*
X250179611Y-116763333D01*
X250112944Y-116796666D01*
X251112944Y-116830000D02*
X251112944Y-117296666D01*
X250946278Y-116563333D02*
X250779611Y-117063333D01*
X251212944Y-117063333D01*
X249846278Y-119836666D02*
X249612944Y-119503333D01*
X249446278Y-119836666D02*
X249446278Y-119136666D01*
X249712944Y-119136666D01*
X249779611Y-119170000D01*
X249812944Y-119203333D01*
X249846278Y-119270000D01*
X249846278Y-119370000D01*
X249812944Y-119436666D01*
X249779611Y-119470000D01*
X249712944Y-119503333D01*
X249446278Y-119503333D01*
X250512944Y-119836666D02*
X250112944Y-119836666D01*
X250312944Y-119836666D02*
X250312944Y-119136666D01*
X250246278Y-119236666D01*
X250179611Y-119303333D01*
X250112944Y-119336666D01*
X250746278Y-119136666D02*
X251179611Y-119136666D01*
X250946278Y-119403333D01*
X251046278Y-119403333D01*
X251112944Y-119436666D01*
X251146278Y-119470000D01*
X251179611Y-119536666D01*
X251179611Y-119703333D01*
X251146278Y-119770000D01*
X251112944Y-119803333D01*
X251046278Y-119836666D01*
X250846278Y-119836666D01*
X250779611Y-119803333D01*
X250746278Y-119770000D01*
X245270000Y-102056666D02*
X245036666Y-101723333D01*
X244870000Y-102056666D02*
X244870000Y-101356666D01*
X245136666Y-101356666D01*
X245203333Y-101390000D01*
X245236666Y-101423333D01*
X245270000Y-101490000D01*
X245270000Y-101590000D01*
X245236666Y-101656666D01*
X245203333Y-101690000D01*
X245136666Y-101723333D01*
X244870000Y-101723333D01*
X245936666Y-102056666D02*
X245536666Y-102056666D01*
X245736666Y-102056666D02*
X245736666Y-101356666D01*
X245670000Y-101456666D01*
X245603333Y-101523333D01*
X245536666Y-101556666D01*
X246370000Y-101356666D02*
X246436666Y-101356666D01*
X246503333Y-101390000D01*
X246536666Y-101423333D01*
X246570000Y-101490000D01*
X246603333Y-101623333D01*
X246603333Y-101790000D01*
X246570000Y-101923333D01*
X246536666Y-101990000D01*
X246503333Y-102023333D01*
X246436666Y-102056666D01*
X246370000Y-102056666D01*
X246303333Y-102023333D01*
X246270000Y-101990000D01*
X246236666Y-101923333D01*
X246203333Y-101790000D01*
X246203333Y-101623333D01*
X246236666Y-101490000D01*
X246270000Y-101423333D01*
X246303333Y-101390000D01*
X246370000Y-101356666D01*
X250683333Y-102056666D02*
X250450000Y-101723333D01*
X250283333Y-102056666D02*
X250283333Y-101356666D01*
X250550000Y-101356666D01*
X250616666Y-101390000D01*
X250650000Y-101423333D01*
X250683333Y-101490000D01*
X250683333Y-101590000D01*
X250650000Y-101656666D01*
X250616666Y-101690000D01*
X250550000Y-101723333D01*
X250283333Y-101723333D01*
X251016666Y-102056666D02*
X251150000Y-102056666D01*
X251216666Y-102023333D01*
X251250000Y-101990000D01*
X251316666Y-101890000D01*
X251350000Y-101756666D01*
X251350000Y-101490000D01*
X251316666Y-101423333D01*
X251283333Y-101390000D01*
X251216666Y-101356666D01*
X251083333Y-101356666D01*
X251016666Y-101390000D01*
X250983333Y-101423333D01*
X250950000Y-101490000D01*
X250950000Y-101656666D01*
X250983333Y-101723333D01*
X251016666Y-101756666D01*
X251083333Y-101790000D01*
X251216666Y-101790000D01*
X251283333Y-101756666D01*
X251316666Y-101723333D01*
X251350000Y-101656666D01*
X264018333Y-120471666D02*
X263785000Y-120138333D01*
X263618333Y-120471666D02*
X263618333Y-119771666D01*
X263885000Y-119771666D01*
X263951666Y-119805000D01*
X263985000Y-119838333D01*
X264018333Y-119905000D01*
X264018333Y-120005000D01*
X263985000Y-120071666D01*
X263951666Y-120105000D01*
X263885000Y-120138333D01*
X263618333Y-120138333D01*
X264418333Y-120071666D02*
X264351666Y-120038333D01*
X264318333Y-120005000D01*
X264285000Y-119938333D01*
X264285000Y-119905000D01*
X264318333Y-119838333D01*
X264351666Y-119805000D01*
X264418333Y-119771666D01*
X264551666Y-119771666D01*
X264618333Y-119805000D01*
X264651666Y-119838333D01*
X264685000Y-119905000D01*
X264685000Y-119938333D01*
X264651666Y-120005000D01*
X264618333Y-120038333D01*
X264551666Y-120071666D01*
X264418333Y-120071666D01*
X264351666Y-120105000D01*
X264318333Y-120138333D01*
X264285000Y-120205000D01*
X264285000Y-120338333D01*
X264318333Y-120405000D01*
X264351666Y-120438333D01*
X264418333Y-120471666D01*
X264551666Y-120471666D01*
X264618333Y-120438333D01*
X264651666Y-120405000D01*
X264685000Y-120338333D01*
X264685000Y-120205000D01*
X264651666Y-120138333D01*
X264618333Y-120105000D01*
X264551666Y-120071666D01*
X269098333Y-120471666D02*
X268865000Y-120138333D01*
X268698333Y-120471666D02*
X268698333Y-119771666D01*
X268965000Y-119771666D01*
X269031666Y-119805000D01*
X269065000Y-119838333D01*
X269098333Y-119905000D01*
X269098333Y-120005000D01*
X269065000Y-120071666D01*
X269031666Y-120105000D01*
X268965000Y-120138333D01*
X268698333Y-120138333D01*
X269331666Y-119771666D02*
X269798333Y-119771666D01*
X269498333Y-120471666D01*
X274178333Y-120471666D02*
X273945000Y-120138333D01*
X273778333Y-120471666D02*
X273778333Y-119771666D01*
X274045000Y-119771666D01*
X274111666Y-119805000D01*
X274145000Y-119838333D01*
X274178333Y-119905000D01*
X274178333Y-120005000D01*
X274145000Y-120071666D01*
X274111666Y-120105000D01*
X274045000Y-120138333D01*
X273778333Y-120138333D01*
X274778333Y-119771666D02*
X274645000Y-119771666D01*
X274578333Y-119805000D01*
X274545000Y-119838333D01*
X274478333Y-119938333D01*
X274445000Y-120071666D01*
X274445000Y-120338333D01*
X274478333Y-120405000D01*
X274511666Y-120438333D01*
X274578333Y-120471666D01*
X274711666Y-120471666D01*
X274778333Y-120438333D01*
X274811666Y-120405000D01*
X274845000Y-120338333D01*
X274845000Y-120171666D01*
X274811666Y-120105000D01*
X274778333Y-120071666D01*
X274711666Y-120038333D01*
X274578333Y-120038333D01*
X274511666Y-120071666D01*
X274478333Y-120105000D01*
X274445000Y-120171666D01*
X270953333Y-148547380D02*
X270620000Y-148071190D01*
X270381904Y-148547380D02*
X270381904Y-147547380D01*
X270762857Y-147547380D01*
X270858095Y-147595000D01*
X270905714Y-147642619D01*
X270953333Y-147737857D01*
X270953333Y-147880714D01*
X270905714Y-147975952D01*
X270858095Y-148023571D01*
X270762857Y-148071190D01*
X270381904Y-148071190D01*
X271810476Y-147880714D02*
X271810476Y-148547380D01*
X271572380Y-147499761D02*
X271334285Y-148214047D01*
X271953333Y-148214047D01*
X273493333Y-148547380D02*
X273160000Y-148071190D01*
X272921904Y-148547380D02*
X272921904Y-147547380D01*
X273302857Y-147547380D01*
X273398095Y-147595000D01*
X273445714Y-147642619D01*
X273493333Y-147737857D01*
X273493333Y-147880714D01*
X273445714Y-147975952D01*
X273398095Y-148023571D01*
X273302857Y-148071190D01*
X272921904Y-148071190D01*
X273826666Y-147547380D02*
X274445714Y-147547380D01*
X274112380Y-147928333D01*
X274255238Y-147928333D01*
X274350476Y-147975952D01*
X274398095Y-148023571D01*
X274445714Y-148118809D01*
X274445714Y-148356904D01*
X274398095Y-148452142D01*
X274350476Y-148499761D01*
X274255238Y-148547380D01*
X273969523Y-148547380D01*
X273874285Y-148499761D01*
X273826666Y-148452142D01*
X276033333Y-148547380D02*
X275700000Y-148071190D01*
X275461904Y-148547380D02*
X275461904Y-147547380D01*
X275842857Y-147547380D01*
X275938095Y-147595000D01*
X275985714Y-147642619D01*
X276033333Y-147737857D01*
X276033333Y-147880714D01*
X275985714Y-147975952D01*
X275938095Y-148023571D01*
X275842857Y-148071190D01*
X275461904Y-148071190D01*
X276414285Y-147642619D02*
X276461904Y-147595000D01*
X276557142Y-147547380D01*
X276795238Y-147547380D01*
X276890476Y-147595000D01*
X276938095Y-147642619D01*
X276985714Y-147737857D01*
X276985714Y-147833095D01*
X276938095Y-147975952D01*
X276366666Y-148547380D01*
X276985714Y-148547380D01*
X278573333Y-148547380D02*
X278240000Y-148071190D01*
X278001904Y-148547380D02*
X278001904Y-147547380D01*
X278382857Y-147547380D01*
X278478095Y-147595000D01*
X278525714Y-147642619D01*
X278573333Y-147737857D01*
X278573333Y-147880714D01*
X278525714Y-147975952D01*
X278478095Y-148023571D01*
X278382857Y-148071190D01*
X278001904Y-148071190D01*
X279525714Y-148547380D02*
X278954285Y-148547380D01*
X279240000Y-148547380D02*
X279240000Y-147547380D01*
X279144761Y-147690238D01*
X279049523Y-147785476D01*
X278954285Y-147833095D01*
X263903333Y-128472666D02*
X263903333Y-127772666D01*
X264170000Y-127772666D01*
X264236666Y-127806000D01*
X264270000Y-127839333D01*
X264303333Y-127906000D01*
X264303333Y-128006000D01*
X264270000Y-128072666D01*
X264236666Y-128106000D01*
X264170000Y-128139333D01*
X263903333Y-128139333D01*
X265003333Y-128406000D02*
X264970000Y-128439333D01*
X264870000Y-128472666D01*
X264803333Y-128472666D01*
X264703333Y-128439333D01*
X264636666Y-128372666D01*
X264603333Y-128306000D01*
X264570000Y-128172666D01*
X264570000Y-128072666D01*
X264603333Y-127939333D01*
X264636666Y-127872666D01*
X264703333Y-127806000D01*
X264803333Y-127772666D01*
X264870000Y-127772666D01*
X264970000Y-127806000D01*
X265003333Y-127839333D01*
X265603333Y-128006000D02*
X265603333Y-128472666D01*
X265436666Y-127739333D02*
X265270000Y-128239333D01*
X265703333Y-128239333D01*
X268983333Y-128472666D02*
X268983333Y-127772666D01*
X269250000Y-127772666D01*
X269316666Y-127806000D01*
X269350000Y-127839333D01*
X269383333Y-127906000D01*
X269383333Y-128006000D01*
X269350000Y-128072666D01*
X269316666Y-128106000D01*
X269250000Y-128139333D01*
X268983333Y-128139333D01*
X270083333Y-128406000D02*
X270050000Y-128439333D01*
X269950000Y-128472666D01*
X269883333Y-128472666D01*
X269783333Y-128439333D01*
X269716666Y-128372666D01*
X269683333Y-128306000D01*
X269650000Y-128172666D01*
X269650000Y-128072666D01*
X269683333Y-127939333D01*
X269716666Y-127872666D01*
X269783333Y-127806000D01*
X269883333Y-127772666D01*
X269950000Y-127772666D01*
X270050000Y-127806000D01*
X270083333Y-127839333D01*
X270316666Y-127772666D02*
X270750000Y-127772666D01*
X270516666Y-128039333D01*
X270616666Y-128039333D01*
X270683333Y-128072666D01*
X270716666Y-128106000D01*
X270750000Y-128172666D01*
X270750000Y-128339333D01*
X270716666Y-128406000D01*
X270683333Y-128439333D01*
X270616666Y-128472666D01*
X270416666Y-128472666D01*
X270350000Y-128439333D01*
X270316666Y-128406000D01*
X274063333Y-128472666D02*
X274063333Y-127772666D01*
X274330000Y-127772666D01*
X274396666Y-127806000D01*
X274430000Y-127839333D01*
X274463333Y-127906000D01*
X274463333Y-128006000D01*
X274430000Y-128072666D01*
X274396666Y-128106000D01*
X274330000Y-128139333D01*
X274063333Y-128139333D01*
X275163333Y-128406000D02*
X275130000Y-128439333D01*
X275030000Y-128472666D01*
X274963333Y-128472666D01*
X274863333Y-128439333D01*
X274796666Y-128372666D01*
X274763333Y-128306000D01*
X274730000Y-128172666D01*
X274730000Y-128072666D01*
X274763333Y-127939333D01*
X274796666Y-127872666D01*
X274863333Y-127806000D01*
X274963333Y-127772666D01*
X275030000Y-127772666D01*
X275130000Y-127806000D01*
X275163333Y-127839333D01*
X275430000Y-127839333D02*
X275463333Y-127806000D01*
X275530000Y-127772666D01*
X275696666Y-127772666D01*
X275763333Y-127806000D01*
X275796666Y-127839333D01*
X275830000Y-127906000D01*
X275830000Y-127972666D01*
X275796666Y-128072666D01*
X275396666Y-128472666D01*
X275830000Y-128472666D01*
X279143333Y-128472666D02*
X279143333Y-127772666D01*
X279410000Y-127772666D01*
X279476666Y-127806000D01*
X279510000Y-127839333D01*
X279543333Y-127906000D01*
X279543333Y-128006000D01*
X279510000Y-128072666D01*
X279476666Y-128106000D01*
X279410000Y-128139333D01*
X279143333Y-128139333D01*
X280243333Y-128406000D02*
X280210000Y-128439333D01*
X280110000Y-128472666D01*
X280043333Y-128472666D01*
X279943333Y-128439333D01*
X279876666Y-128372666D01*
X279843333Y-128306000D01*
X279810000Y-128172666D01*
X279810000Y-128072666D01*
X279843333Y-127939333D01*
X279876666Y-127872666D01*
X279943333Y-127806000D01*
X280043333Y-127772666D01*
X280110000Y-127772666D01*
X280210000Y-127806000D01*
X280243333Y-127839333D01*
X280910000Y-128472666D02*
X280510000Y-128472666D01*
X280710000Y-128472666D02*
X280710000Y-127772666D01*
X280643333Y-127872666D01*
X280576666Y-127939333D01*
X280510000Y-127972666D01*
X234591666Y-124052380D02*
X234591666Y-124766666D01*
X234544047Y-124909523D01*
X234448809Y-125004761D01*
X234305952Y-125052380D01*
X234210714Y-125052380D01*
X235496428Y-124385714D02*
X235496428Y-125052380D01*
X235258333Y-124004761D02*
X235020238Y-124719047D01*
X235639285Y-124719047D01*
X266976666Y-97858571D02*
X266643333Y-97858571D01*
X266643333Y-98382380D02*
X266643333Y-97382380D01*
X267119523Y-97382380D01*
X268024285Y-98382380D02*
X267452857Y-98382380D01*
X267738571Y-98382380D02*
X267738571Y-97382380D01*
X267643333Y-97525238D01*
X267548095Y-97620476D01*
X267452857Y-97668095D01*
X251252380Y-132164285D02*
X250252380Y-132164285D01*
X250252380Y-131926190D01*
X250300000Y-131783333D01*
X250395238Y-131688095D01*
X250490476Y-131640476D01*
X250680952Y-131592857D01*
X250823809Y-131592857D01*
X251014285Y-131640476D01*
X251109523Y-131688095D01*
X251204761Y-131783333D01*
X251252380Y-131926190D01*
X251252380Y-132164285D01*
X251252380Y-130640476D02*
X251252380Y-131211904D01*
X251252380Y-130926190D02*
X250252380Y-130926190D01*
X250395238Y-131021428D01*
X250490476Y-131116666D01*
X250538095Y-131211904D01*
X251252380Y-129688095D02*
X251252380Y-130259523D01*
X251252380Y-129973809D02*
X250252380Y-129973809D01*
X250395238Y-130069047D01*
X250490476Y-130164285D01*
X250538095Y-130259523D01*
X283240714Y-102192380D02*
X283240714Y-101192380D01*
X283478809Y-101192380D01*
X283621666Y-101240000D01*
X283716904Y-101335238D01*
X283764523Y-101430476D01*
X283812142Y-101620952D01*
X283812142Y-101763809D01*
X283764523Y-101954285D01*
X283716904Y-102049523D01*
X283621666Y-102144761D01*
X283478809Y-102192380D01*
X283240714Y-102192380D01*
X284764523Y-102192380D02*
X284193095Y-102192380D01*
X284478809Y-102192380D02*
X284478809Y-101192380D01*
X284383571Y-101335238D01*
X284288333Y-101430476D01*
X284193095Y-101478095D01*
X285383571Y-101192380D02*
X285478809Y-101192380D01*
X285574047Y-101240000D01*
X285621666Y-101287619D01*
X285669285Y-101382857D01*
X285716904Y-101573333D01*
X285716904Y-101811428D01*
X285669285Y-102001904D01*
X285621666Y-102097142D01*
X285574047Y-102144761D01*
X285478809Y-102192380D01*
X285383571Y-102192380D01*
X285288333Y-102144761D01*
X285240714Y-102097142D01*
X285193095Y-102001904D01*
X285145476Y-101811428D01*
X285145476Y-101573333D01*
X285193095Y-101382857D01*
X285240714Y-101287619D01*
X285288333Y-101240000D01*
X285383571Y-101192380D01*
X282923095Y-99652380D02*
X282923095Y-98652380D01*
X283494523Y-99652380D02*
X283065952Y-99080952D01*
X283494523Y-98652380D02*
X282923095Y-99223809D01*
X284161333Y-104637142D02*
X284113714Y-104684761D01*
X283970857Y-104732380D01*
X283875619Y-104732380D01*
X283732761Y-104684761D01*
X283637523Y-104589523D01*
X283589904Y-104494285D01*
X283542285Y-104303809D01*
X283542285Y-104160952D01*
X283589904Y-103970476D01*
X283637523Y-103875238D01*
X283732761Y-103780000D01*
X283875619Y-103732380D01*
X283970857Y-103732380D01*
X284113714Y-103780000D01*
X284161333Y-103827619D01*
X285066095Y-103732380D02*
X284589904Y-103732380D01*
X284542285Y-104208571D01*
X284589904Y-104160952D01*
X284685142Y-104113333D01*
X284923238Y-104113333D01*
X285018476Y-104160952D01*
X285066095Y-104208571D01*
X285113714Y-104303809D01*
X285113714Y-104541904D01*
X285066095Y-104637142D01*
X285018476Y-104684761D01*
X284923238Y-104732380D01*
X284685142Y-104732380D01*
X284589904Y-104684761D01*
X284542285Y-104637142D01*
X277938333Y-110987142D02*
X277890714Y-111034761D01*
X277747857Y-111082380D01*
X277652619Y-111082380D01*
X277509761Y-111034761D01*
X277414523Y-110939523D01*
X277366904Y-110844285D01*
X277319285Y-110653809D01*
X277319285Y-110510952D01*
X277366904Y-110320476D01*
X277414523Y-110225238D01*
X277509761Y-110130000D01*
X277652619Y-110082380D01*
X277747857Y-110082380D01*
X277890714Y-110130000D01*
X277938333Y-110177619D01*
X278271666Y-110082380D02*
X278890714Y-110082380D01*
X278557380Y-110463333D01*
X278700238Y-110463333D01*
X278795476Y-110510952D01*
X278843095Y-110558571D01*
X278890714Y-110653809D01*
X278890714Y-110891904D01*
X278843095Y-110987142D01*
X278795476Y-111034761D01*
X278700238Y-111082380D01*
X278414523Y-111082380D01*
X278319285Y-111034761D01*
X278271666Y-110987142D01*
M02*
